<svg id="Layer_1" data-name="Layer 1" xmlns="http://www.w3.org/2000/svg" width="340.83" height="95.19" viewBox="0 0 340.83 95.19"><defs><style>.cls-1{fill:#8ecfd6;}.cls-2{fill:#fff;}.cls-3{fill:none;stroke:#fff;stroke-miterlimit:10;stroke-width:3.67px;}</style></defs><title>agree_button</title><polygon class="cls-1" points="2.13 15.74 18.69 7.93 308.03 5.2 331.45 13.86 331.45 84.82 303.06 93.31 22 95.19 0 87.66 2.13 15.74"/><path class="cls-2" d="M46.92,40.84a1.06,1.06,0,1,1,2.11,0v11.4c0,2.85-1.41,4.37-4,4.37-1.85,0-3.63-.92-3.63-1.89a.8.8,0,0,1,.85-.84,1.47,1.47,0,0,1,.93.37,2.79,2.79,0,0,0,1.85.6c1.31,0,1.93-.75,1.93-2.39Z"/><path class="cls-2" d="M53.15,51.07A3.62,3.62,0,0,0,57,54.85a5,5,0,0,0,3.4-1.22c.49-.37.7-.47.93-.47a.83.83,0,0,1,.74.87c0,1.19-2.83,2.58-5.22,2.58-3.48,0-5.79-2.51-5.79-6.28S53.46,44,56.75,44a5.69,5.69,0,0,1,5.56,6c0,.84-.31,1.14-1.18,1.14Zm7.05-1.54c-.1-2.41-1.41-3.82-3.55-3.82s-3.32,1.29-3.5,3.82Z"/><path class="cls-2" d="M72.81,45A1,1,0,0,1,74,44a1,1,0,0,1,1,1v10.6c0,3.58-2.26,5.91-5.74,5.91-2.34,0-5-1.21-5-2.28a.86.86,0,0,1,.88-.92,2.37,2.37,0,0,1,1.23.5,5.33,5.33,0,0,0,3,.94c2.19,0,3.5-1.44,3.5-3.8V54.82h0a3.63,3.63,0,0,1-3.32,1.79c-3.19,0-5.56-2.68-5.56-6.33S66.25,44,69.39,44a4.32,4.32,0,0,1,3.37,1.56h0ZM66,50.25c0,2.81,1.39,4.6,3.53,4.6s3.53-1.84,3.53-4.57-1.42-4.57-3.53-4.57S66,47.52,66,50.25Z"/><path class="cls-2" d="M86,45.58A4.4,4.4,0,0,1,89.54,44C92.25,44,94,45.81,94,48.64v6.88a1.06,1.06,0,1,1-2.11,0V48.76a3,3,0,1,0-5.94,0v6.76a1.06,1.06,0,1,1-2.12,0V39.6a1.06,1.06,0,1,1,2.12,0v5.94Z"/><path class="cls-2" d="M105.48,45a1,1,0,1,1,2,0V55.59a1,1,0,1,1-2,0v-.84h-.06a4.1,4.1,0,0,1-3.55,1.86c-3.21,0-5.58-2.68-5.58-6.33S98.66,44,101.9,44a4.44,4.44,0,0,1,3.52,1.66h.06ZM98.4,50.25c0,2.81,1.39,4.6,3.52,4.6s3.53-1.82,3.53-4.57-1.39-4.57-3.53-4.57S98.4,47.52,98.4,50.25Z"/><path class="cls-2" d="M112.4,46.08A3.69,3.69,0,0,1,115.31,44a1.06,1.06,0,0,1,1.16,1c0,.59-.41.94-1.32,1.12a3.26,3.26,0,0,0-2.8,3.52v5.89a1.06,1.06,0,1,1-2.11,0V45a1.06,1.06,0,1,1,2.11,0v1Z"/><path class="cls-2" d="M126.66,55.52a1.06,1.06,0,1,1-2.11,0V45.86h-.88c-.67,0-1-.32-1-.87s.38-.89,1-.89h.88V41.19a2.57,2.57,0,0,1,2.8-2.68H128c.69,0,1.21.4,1.21.92s-.41.84-1.16.84h-.51c-.62,0-.88.25-.88.82v3H128c.7,0,1.08.32,1.08.89s-.38.87-1.08.87h-1.31Z"/><path class="cls-2" d="M140.69,50.28c0,3.67-2.37,6.33-5.64,6.33s-5.64-2.66-5.64-6.28S131.76,44,135.05,44,140.69,46.6,140.69,50.28Zm-9.17,0c0,2.81,1.4,4.6,3.53,4.6s3.53-1.82,3.53-4.57-1.39-4.57-3.53-4.57S131.52,47.52,131.52,50.25Z"/><path class="cls-2" d="M145.09,46.08A3.69,3.69,0,0,1,148,44a1.06,1.06,0,0,1,1.16,1c0,.59-.41.94-1.32,1.12a3.26,3.26,0,0,0-2.8,3.52v5.89a1.06,1.06,0,1,1-2.11,0V45A1.06,1.06,0,1,1,145,45v1Z"/><path class="cls-2" d="M158.89,46.16A.85.85,0,0,1,158,47a1.65,1.65,0,0,1-1-.44,3.48,3.48,0,0,0-2.32-.82c-1.31,0-2.24.62-2.24,1.51s.78,1.34,2.78,2c2.89,1,4.07,2,4.07,3.65,0,2.16-2,3.7-4.71,3.7-2.45,0-4.79-1.17-4.79-2.39a.88.88,0,0,1,.88-.89,2.23,2.23,0,0,1,1.1.52,4.76,4.76,0,0,0,2.89,1c1.41,0,2.49-.75,2.49-1.69s-.82-1.49-3-2.29c-2.78-1-3.86-2-3.86-3.45,0-2,1.86-3.47,4.33-3.47C156.75,44,158.89,45,158.89,46.16Z"/><path class="cls-2" d="M162.1,41.41a1.06,1.06,0,1,1,2.11,0V44.1h.88c.67,0,1,.32,1,.89s-.38.87-1,.87h-.88v9.66a1.06,1.06,0,1,1-2.11,0V45.86h-.87c-.67,0-1.06-.32-1.06-.87s.39-.89,1.06-.89h.87Z"/><path class="cls-2" d="M176.18,45a1,1,0,1,1,2,0V55.59a1,1,0,1,1-2,0v-.84h-.05a4.11,4.11,0,0,1-3.55,1.86c-3.22,0-5.59-2.68-5.59-6.33S169.36,44,172.6,44a4.46,4.46,0,0,1,3.53,1.66h.05Zm-7.08,5.29c0,2.81,1.39,4.6,3.53,4.6s3.53-1.82,3.53-4.57-1.39-4.57-3.53-4.57S169.1,47.52,169.1,50.25Zm6-9.56a2.27,2.27,0,1,1-2.27-2.18A2.22,2.22,0,0,1,175.13,40.69Zm-3.38,0a1.08,1.08,0,0,0,1.11,1.07,1.07,1.07,0,1,0-1.11-1.07Z"/><path class="cls-2" d="M182.28,51.07a3.62,3.62,0,0,0,3.84,3.78,5,5,0,0,0,3.39-1.22c.49-.37.7-.47.93-.47a.83.83,0,0,1,.75.87c0,1.19-2.83,2.58-5.23,2.58-3.47,0-5.79-2.51-5.79-6.28S182.59,44,185.88,44a5.69,5.69,0,0,1,5.57,6c0,.84-.31,1.14-1.19,1.14Zm7.05-1.54c-.1-2.41-1.41-3.82-3.55-3.82s-3.32,1.29-3.5,3.82Z"/><path class="cls-2" d="M194.07,41.41a1.06,1.06,0,1,1,2.11,0V44.1h.88c.67,0,1.05.32,1.05.89s-.38.87-1.05.87h-.88v9.66a1.06,1.06,0,1,1-2.11,0V45.86h-.87c-.67,0-1.06-.32-1.06-.87s.39-.89,1.06-.89h.87Z"/><path class="cls-2" d="M207.82,46.08a3.69,3.69,0,0,1,2.9-2.13,1.06,1.06,0,0,1,1.16,1c0,.59-.41.94-1.31,1.12a3.27,3.27,0,0,0-2.81,3.52v5.89a1.06,1.06,0,1,1-2.11,0V45a1.06,1.06,0,1,1,2.11,0v1Z"/><path class="cls-2" d="M214.28,51.07a3.7,3.7,0,0,0,1.1,2.78,3.77,3.77,0,0,0,2.73,1,5.06,5.06,0,0,0,3.4-1.22c.49-.37.69-.47.93-.47a.83.83,0,0,1,.74.87c0,1.19-2.83,2.58-5.22,2.58-3.48,0-5.79-2.51-5.79-6.28S214.58,44,217.88,44a5.69,5.69,0,0,1,5.56,6c0,.84-.31,1.14-1.18,1.14Zm7.05-1.54c-.1-2.41-1.42-3.82-3.55-3.82s-3.32,1.29-3.5,3.82Z"/><path class="cls-2" d="M233.94,45a1,1,0,0,1,1.13-1,1,1,0,0,1,1,1v10.6c0,3.58-2.27,5.91-5.74,5.91-2.34,0-5-1.21-5-2.28a.85.85,0,0,1,.87-.92,2.42,2.42,0,0,1,1.24.5,5.33,5.33,0,0,0,3,.94c2.19,0,3.5-1.44,3.5-3.8V54.82h-.05a3.63,3.63,0,0,1-3.32,1.79c-3.19,0-5.56-2.68-5.56-6.33S227.38,44,230.52,44a4.32,4.32,0,0,1,3.37,1.56h.05Zm-6.82,5.29c0,2.81,1.39,4.6,3.53,4.6s3.52-1.84,3.52-4.57-1.41-4.57-3.52-4.57S227.12,47.52,227.12,50.25Z"/><path class="cls-2" d="M241.2,55.52a1.06,1.06,0,1,1-2.11,0V39.6a1.06,1.06,0,1,1,2.11,0Z"/><path class="cls-2" d="M245.34,51.07a3.62,3.62,0,0,0,3.84,3.78,5.06,5.06,0,0,0,3.4-1.22c.48-.37.69-.47.92-.47a.83.83,0,0,1,.75.87c0,1.19-2.83,2.58-5.23,2.58-3.47,0-5.79-2.51-5.79-6.28S245.65,44,249,44a5.69,5.69,0,0,1,5.56,6c0,.84-.31,1.14-1.19,1.14Zm7.06-1.54c-.11-2.41-1.42-3.82-3.56-3.82s-3.32,1.29-3.5,3.82Z"/><path class="cls-2" d="M258.7,46.08A3.69,3.69,0,0,1,261.61,44a1.06,1.06,0,0,1,1.16,1c0,.59-.41.94-1.31,1.12a3.26,3.26,0,0,0-2.81,3.52v5.89a1.06,1.06,0,1,1-2.11,0V45a1.06,1.06,0,1,1,2.11,0v1Z"/><path class="cls-2" d="M266.45,45.58A4.41,4.41,0,0,1,270,44c2.7,0,4.47,1.86,4.47,4.69v6.88a1.06,1.06,0,1,1-2.11,0V48.76a3,3,0,1,0-5.94,0v6.76a1.06,1.06,0,1,1-2.11,0V45a1.06,1.06,0,1,1,2.11,0v.5Z"/><path class="cls-2" d="M278.6,51.07a3.66,3.66,0,0,0,1.11,2.78,3.73,3.73,0,0,0,2.72,1,5,5,0,0,0,3.4-1.22c.49-.37.7-.47.93-.47a.83.83,0,0,1,.74.87c0,1.19-2.83,2.58-5.22,2.58-3.48,0-5.79-2.51-5.79-6.28S278.91,44,282.2,44a5.69,5.69,0,0,1,5.56,6c0,.84-.31,1.14-1.18,1.14Zm7-1.54c-.1-2.41-1.41-3.82-3.55-3.82s-3.32,1.29-3.5,3.82Z"/><polygon class="cls-3" points="9.68 12.38 26.23 4.57 315.58 1.84 339 10.5 339 81.46 310.61 89.95 29.55 91.83 7.55 84.3 9.68 12.38"/></svg>