<svg id="Layer_1" data-name="Layer 1" xmlns="http://www.w3.org/2000/svg" viewBox="0 0 490 260"><defs><style>.cls-1{fill:#51b4e7;}.cls-2{fill:none;stroke:#fff;stroke-miterlimit:10;stroke-width:3px;}.cls-3{fill:#fff;}</style></defs><title>del_knap</title><polygon class="cls-1" points="7.21 43.99 30.54 23.24 438.21 15.99 471.21 38.99 471.21 227.46 431.21 249.99 35.21 254.99 4.21 234.99 7.21 43.99"/><polygon class="cls-2" points="20.29 34.52 43.62 13.77 451.29 6.52 484.29 29.52 484.29 217.98 444.29 240.52 48.29 245.52 17.29 225.52 20.29 34.52"/><path class="cls-3" d="M198,113.28a2.7,2.7,0,0,1,3-3H212c12.24,0,20.17,8.57,20.17,22s-7.66,22-19.42,22H201a2.7,2.7,0,0,1-3-3Zm5.6,36.34h8.07c9,0,14.56-6.66,14.56-17.47s-5.61-17.15-15-17.15h-7.66Z"/><path class="cls-3" d="M242,140c.21,3.5,1,5.54,2.94,7.39a10,10,0,0,0,7.25,2.64,13.36,13.36,0,0,0,9-3.23c1.3-1,1.84-1.26,2.46-1.26a2.23,2.23,0,0,1,2,2.31c0,3.17-7.52,6.86-13.87,6.86-9.23,0-15.39-6.66-15.39-16.68,0-9.83,6.43-17,15.18-17,8.34,0,14.77,6.92,14.77,15.89,0,2.24-.82,3-3.15,3Zm18.73-4.09c-.27-6.39-3.76-10.15-9.43-10.15s-8.82,3.43-9.3,10.15Z"/><path class="cls-3" d="M277.73,151.8a2.81,2.81,0,1,1-5.61,0V109.52a2.81,2.81,0,1,1,5.61,0Z"/></svg>