<svg id="Layer_1" data-name="Layer 1" xmlns="http://www.w3.org/2000/svg" width="1927.93" height="1213.53" viewBox="0 0 1927.93 1213.53"><defs><style>.cls-1{fill:#24111f;}.cls-2{fill:#1f2944;}.cls-3{fill:#006e94;}.cls-4{fill:#fff;}.cls-5{fill:#292740;}.cls-6{fill:none;stroke:#fff;stroke-miterlimit:10;stroke-width:2.04px;}</style></defs><title>foreground-01</title><polygon class="cls-1" points="766.93 131.97 1196.56 120.97 1199.02 405.65 1919.93 0.2 0 0 0 1080 763.28 650.72 766.93 131.97"/><path class="cls-2" d="M.07.8v1080H1920V.8Zm753.4,919,5.54-786,429.62-11,6.9,797.07Z" transform="translate(7.93 -0.8)"/><path class="cls-3" d="M1213.83,967.25l-7.36-908.72-32.61-22.09-407,6.31-23.14,20-5.26,904.52L771,998.8h410.19ZM752.51,919.77l5.53-786,429.62-11,6.9,797.07Z" transform="translate(7.93 -0.8)"/><circle class="cls-4" cx="992.23" cy="954.75" r="25.11"/><rect class="cls-4" x="967.24" y="998" width="50.21" height="58.82"/><rect class="cls-4" x="983.95" y="1056.83" width="16.79" height="31.7"/><path class="cls-4" d="M981.88,1089.36c.12,44.05-46,67.2-82.92,76.7a241.28,241.28,0,0,1-33.13,5.83c-13.6,1.53-27.2,3-40.86,3.85-26.58,1.59-53.86.61-79-9.12-13.15-5.09-24.56-13-36.14-20.91q-19.29-13.15-38.37-26.61t-38.24-26.82c-11.14-7.76-22.4-14.6-35.07-19.6-24.45-9.64-51.22-13-77.38-13-25.67.08-51.66,7.82-74.63,18.94-24.42,11.82-46.37,29-65.77,47.87-22.4,21.75-44.3,44-66.17,66.32q-8.07,8.22-16.09,16.45c-2.65,2.73,1.52,6.91,4.18,4.18q33-33.93,66.64-67.32c20.69-20.57,41.64-40.28,66.9-55.23,22.6-13.37,48.86-22.66,75.12-24.87,13-1.09,26.34-.31,39.28,1.16a187.52,187.52,0,0,1,39.38,8.62,145.24,145.24,0,0,1,36.24,18.51c12.79,8.88,25.52,17.86,38.26,26.81s25.49,17.86,38.33,26.65c11.94,8.19,23.7,16.75,37.06,22.52,24.31,10.5,51,12.72,77.25,11.74,13.81-.52,27.58-1.88,41.31-3.39,11.74-1.29,23.44-2.6,35-5.13,37.2-8.16,84.26-28.49,93.24-70a65.83,65.83,0,0,0,1.46-14.2c0-3.8-5.92-3.81-5.91,0Z" transform="translate(7.93 -0.8)"/><polygon class="cls-5" points="747.93 663.2 762.93 655.2 765.93 134.2 1195.93 123.2 1197.93 411.2 1216.93 400.2 1213.93 59.2 1181.93 36.2 774.76 42.95 751.93 63.2 747.93 663.2"/><path class="cls-4" d="M924.38,93.37a5.1,5.1,0,0,1,5.1-5.1H993.3a5.11,5.11,0,1,1,.45,10.21H929.48a5.1,5.1,0,0,1-5.1-5.1Z" transform="translate(7.93 -0.8)"/><circle class="cls-4" cx="1025.44" cy="93.35" r="5.28"/><path class="cls-6" d="M1222,959.08l-7.36-908.72L1182,28.27,775,34.58l-23.14,20-5.26,904.5,32.61,31.55H1189.4ZM760.68,911.6l5.53-786,429.62-11,6.9,797.07Z" transform="translate(7.93 -0.8)"/><path class="cls-2" d="M760.68,911.6" transform="translate(7.93 -0.8)"/></svg>