<svg id="Layer_1" data-name="Layer 1" xmlns="http://www.w3.org/2000/svg" viewBox="0 0 205.43 107.65"><defs><style>.cls-1{fill:#006e93;}.cls-2{fill:#fff;}</style></defs><title>point_counter</title><polygon class="cls-1" points="0 98.94 0 17.69 11.74 8.01 183.96 4.16 199.56 14.79 199.56 96.04 181.45 105.72 12.41 107.65 0 98.94"/><path class="cls-2" d="M16.25,102.35,3.4,93.59V13.52L15.55,3.78h.17L189.35,0l.14.09,15.94,10.56V90.78l-18.62,9.68h-.12ZM4.4,93.06l12.16,8.29,170-1.89,17.87-9.28v-79L189.06,1,15.91,4.77,4.4,14Z"/><path class="cls-2" d="M21.62,83.42a1.35,1.35,0,1,1-2.7,0V64.81a1.31,1.31,0,0,1,1.45-1.43h5.38c4.16,0,7.13,2.77,7.13,6.66s-3,6.65-7.06,6.65h-4.2Zm0-9h4A4.32,4.32,0,0,0,30.18,70c0-2.68-1.85-4.4-4.66-4.4h-3.9Z"/><path class="cls-2" d="M48.44,76.69c0,4.72-3,8.13-7.23,8.13S34,81.41,34,76.76s3-8.19,7.23-8.19S48.44,72,48.44,76.69Zm-11.75,0c0,3.6,1.78,5.9,4.52,5.9s4.52-2.33,4.52-5.87S44,70.83,41.21,70.83,36.69,73.16,36.69,76.66Z"/><path class="cls-2" d="M54.36,64.81a1.67,1.67,0,1,1-1.69-1.62A1.62,1.62,0,0,1,54.36,64.81ZM54,83.42a1.36,1.36,0,1,1-2.71,0V70A1.36,1.36,0,1,1,54,70Z"/><path class="cls-2" d="M60.4,70.67a5.63,5.63,0,0,1,4.52-2.1c3.47,0,5.75,2.39,5.75,6v8.83a1.36,1.36,0,1,1-2.71,0V74.75a3.82,3.82,0,1,0-7.63,0v8.67a1.35,1.35,0,1,1-2.7,0V70a1.35,1.35,0,1,1,2.7,0v.64Z"/><path class="cls-2" d="M75.16,65.32a1.36,1.36,0,1,1,2.71,0v3.44H79c.86,0,1.36.42,1.36,1.15S79.85,71,79,71H77.87v12.4a1.36,1.36,0,1,1-2.71,0V71H74c-.86,0-1.35-.41-1.35-1.11s.49-1.15,1.35-1.15h1.12Z"/><path class="cls-2" d="M86.46,73.25a1.58,1.58,0,0,1-1.59,1.53,1.53,1.53,0,1,1,0-3.06A1.59,1.59,0,0,1,86.46,73.25Zm0,10a1.59,1.59,0,0,1-3.17,0,1.54,1.54,0,0,1,1.58-1.53A1.58,1.58,0,0,1,86.46,83.29Z"/></svg>