<svg id="Layer_1" data-name="Layer 1" xmlns="http://www.w3.org/2000/svg" viewBox="0 0 205.43 107.65"><defs><style>.cls-1{fill:#006e93;}.cls-2{fill:#fff;}</style></defs><title>replay_button</title><polygon class="cls-1" points="0 98.94 0 17.69 11.74 8.01 183.96 4.16 199.56 14.79 199.56 96.04 181.45 105.72 12.41 107.65 0 98.94"/><path class="cls-2" d="M16.25,102.35,3.4,93.59V13.52L15.55,3.78h.17L189.35,0l16.08,10.65V90.78l-18.62,9.68h-.12ZM4.4,93.06l12.16,8.29,170-1.89,17.87-9.28v-79L189.06,1,15.91,4.77,4.4,14Z"/><path class="cls-2" d="M23.31,71.31A4.74,4.74,0,0,1,27,68.57a1.36,1.36,0,0,1,1.49,1.34c0,.76-.53,1.21-1.69,1.43a4.2,4.2,0,0,0-3.6,4.53v7.55a1.35,1.35,0,1,1-2.7,0V70a1.35,1.35,0,1,1,2.7,0v1.34Z"/><path class="cls-2" d="M31.6,77.71a4.63,4.63,0,0,0,4.92,4.85A6.49,6.49,0,0,0,40.88,81c.63-.48.89-.61,1.19-.61a1.08,1.08,0,0,1,1,1.12c0,1.53-3.63,3.31-6.7,3.31-4.46,0-7.43-3.22-7.43-8.06s3.11-8.19,7.33-8.19c4,0,7.13,3.35,7.13,7.68,0,1.08-.39,1.46-1.51,1.46Zm9-2c-.14-3.09-1.82-4.91-4.56-4.91s-4.26,1.66-4.49,4.91Z"/><path class="cls-2" d="M48.81,89.66a1.36,1.36,0,1,1-2.71,0V70a1.36,1.36,0,1,1,2.71,0v.8h.06a4.41,4.41,0,0,1,4.29-2.2c4.13,0,7.1,3.41,7.1,8.12s-3,8.13-7,8.13a5.29,5.29,0,0,1-4.43-2.17h-.06Zm-.27-13c0,3.6,1.75,5.9,4.53,5.9s4.49-2.33,4.49-5.87S55.77,70.83,53,70.83,48.54,73.16,48.54,76.66Z"/><path class="cls-2" d="M65.88,83.42a1.36,1.36,0,1,1-2.71,0V63a1.36,1.36,0,1,1,2.71,0Z"/><path class="cls-2" d="M80.58,69.88a1.27,1.27,0,1,1,2.54,0V83.51a1.27,1.27,0,1,1-2.54,0V82.43h-.07A5.27,5.27,0,0,1,76,84.82c-4.12,0-7.16-3.44-7.16-8.13s3-8.12,7.2-8.12a5.71,5.71,0,0,1,4.52,2.14h.07ZM71.5,76.66c0,3.6,1.78,5.9,4.52,5.9s4.52-2.33,4.52-5.87S78.76,70.83,76,70.83,71.5,73.16,71.5,76.66Z"/><path class="cls-2" d="M85.73,71.15a5.84,5.84,0,0,1-.36-1.46,1.2,1.2,0,0,1,1.25-1.12,1.43,1.43,0,0,1,1.36,1l3.76,10.89h.07l3.7-10.89a1.34,1.34,0,0,1,1.28-1,1.2,1.2,0,0,1,1.26,1.12,4.72,4.72,0,0,1-.37,1.46l-6.86,19a1.44,1.44,0,0,1-1.32,1A1.17,1.17,0,0,1,88.24,90a4.23,4.23,0,0,1,.4-1.43l1.75-4.46Z"/></svg>