<svg id="Layer_1" data-name="Layer 1" xmlns="http://www.w3.org/2000/svg" viewBox="0 0 205.43 107.65"><defs><style>.cls-1{fill:#006e93;}.cls-2{fill:#fff;}</style></defs><title>start_button</title><polygon class="cls-1" points="0 98.94 0 17.69 11.74 8.01 183.96 4.16 199.56 14.79 199.56 96.04 181.45 105.72 12.41 107.65 0 98.94"/><path class="cls-2" d="M16.25,102.35,3.4,93.59V13.52L15.55,3.78h.17L189.35,0l.14.09,15.94,10.56V90.78l-18.62,9.68h-.12ZM4.4,93.06l12.16,8.29,170-1.89,17.87-9.28v-79L189.06,1,15.91,4.77,4.4,14Z"/><path class="cls-2" d="M31.27,71.41a1.09,1.09,0,0,1-1.19,1,2.12,2.12,0,0,1-1.32-.58,4.51,4.51,0,0,0-3-1c-1.69,0-2.88.8-2.88,2s1,1.72,3.57,2.61c3.7,1.27,5.22,2.61,5.22,4.68,0,2.77-2.51,4.75-6.05,4.75-3.13,0-6.14-1.5-6.14-3.06a1.13,1.13,0,0,1,1.12-1.15,2.89,2.89,0,0,1,1.42.67,6,6,0,0,0,3.7,1.28c1.82,0,3.21-1,3.21-2.17s-1.06-1.91-3.8-2.93c-3.57-1.34-4.95-2.58-4.95-4.43,0-2.55,2.37-4.46,5.54-4.46C28.53,68.57,31.27,70,31.27,71.41Z"/><path class="cls-2" d="M35.4,65.32a1.35,1.35,0,1,1,2.7,0v3.44h1.13c.86,0,1.35.42,1.35,1.15S40.09,71,39.23,71H38.1v12.4a1.35,1.35,0,1,1-2.7,0V71H34.27c-.85,0-1.35-.41-1.35-1.11s.5-1.15,1.35-1.15H35.4Z"/><path class="cls-2" d="M53.46,69.88a1.27,1.27,0,1,1,2.54,0V83.51a1.27,1.27,0,1,1-2.54,0V82.43H53.4a5.28,5.28,0,0,1-4.56,2.39c-4.13,0-7.17-3.44-7.17-8.13s3-8.12,7.2-8.12a5.73,5.73,0,0,1,4.53,2.14h.06Zm-9.08,6.78c0,3.6,1.78,5.9,4.52,5.9s4.53-2.33,4.53-5.87-1.79-5.86-4.53-5.86S44.38,73.16,44.38,76.66Z"/><path class="cls-2" d="M62.35,71.31a4.73,4.73,0,0,1,3.73-2.74,1.35,1.35,0,0,1,1.48,1.34c0,.76-.52,1.21-1.68,1.43a4.2,4.2,0,0,0-3.6,4.53v7.55a1.36,1.36,0,1,1-2.71,0V70a1.36,1.36,0,1,1,2.71,0v1.34Z"/><path class="cls-2" d="M71.2,65.32a1.36,1.36,0,1,1,2.71,0v3.44H75c.86,0,1.35.42,1.35,1.15S75.89,71,75,71H73.91v12.4a1.36,1.36,0,1,1-2.71,0V71H70.08c-.86,0-1.36-.41-1.36-1.11s.5-1.15,1.36-1.15H71.2Z"/></svg>