<svg id="Layer_1" data-name="Layer 1" xmlns="http://www.w3.org/2000/svg" width="1920" height="1080" viewBox="0 0 1920 1080"><defs><style>.cls-1{fill:#1f2944;}.cls-2{fill:#24111f;}.cls-3{fill:#435363;}.cls-4{fill:#046e95;}.cls-5{fill:#fff;}.cls-6{fill:#006e94;}.cls-10,.cls-12,.cls-14,.cls-7,.cls-9{fill:none;}.cls-7{stroke:#006e94;}.cls-12,.cls-14,.cls-7{stroke-miterlimit:10;}.cls-8{fill:#00aace;}.cls-10,.cls-12,.cls-14,.cls-9{stroke:#fff;}.cls-10,.cls-9{stroke-linecap:round;stroke-linejoin:round;}.cls-10{stroke-width:0.78px;}.cls-11{fill:#253351;}.cls-12{stroke-width:1.89px;}.cls-13{fill:#282740;}.cls-15{opacity:0.95;}</style></defs><title>start_skaerm</title><rect class="cls-1" x="0.07" y="0.8" width="1919.93" height="1080"/><polygon class="cls-2" points="1348 2 0.07 1080.8 0.07 0.8 1348 2"/><polygon class="cls-3" points="228.46 642.21 1073.99 648.16 1073.99 172.64 216.57 180.07 228.46 642.21"/><path class="cls-4" d="M1125.06,152,147.55,159.9,123.79,195l6.79,437.85,21.49,24.89,973,5.65L1159,628.29V187.05ZM1074,648.22l-845.53-6L216.57,180.13,1074,172.7Z"/><circle class="cls-5" cx="1112.47" cy="398.88" r="27.01"/><path class="cls-5" d="M185,463.35a5.49,5.49,0,0,1-5.49-5.5V389.2a5.49,5.49,0,0,1,11,0v68.65A5.49,5.49,0,0,1,185,463.35Z"/><circle class="cls-5" cx="184.67" cy="363.16" r="5.67"/><rect class="cls-6" x="1420" y="-9.05" width="500" height="1090.05"/><rect class="cls-7" x="1715.98" y="-9.05" width="210.95" height="745.05"/><rect class="cls-8" x="1747.66" y="21.06" width="141.07" height="48" rx="5.14"/><rect class="cls-9" x="1755.55" y="15.11" width="141.07" height="48" rx="5.14"/><rect class="cls-8" x="1747.66" y="88.49" width="129.18" height="102.31" rx="5.14"/><rect class="cls-9" x="1755.55" y="82.54" width="129.18" height="102.31" rx="5.14"/><rect class="cls-8" x="1748.3" y="217.45" width="184.11" height="102.31" rx="5.22"/><rect class="cls-9" x="1755.55" y="211.5" width="184.11" height="102.31" rx="5.22"/><rect class="cls-8" x="1748.3" y="346.46" width="184.11" height="102.31" rx="5.22"/><rect class="cls-10" x="1754.58" y="340.52" width="184.11" height="102.31" rx="5.22"/><rect class="cls-8" x="1748.3" y="475.45" width="153.88" height="102.31" rx="5.14"/><rect class="cls-10" x="1755.95" y="469.5" width="153.88" height="102.31" rx="5.14"/><rect class="cls-8" x="1748.3" y="604.44" width="113.38" height="102.31" rx="5.14"/><rect class="cls-10" x="1755.95" y="598.65" width="113.38" height="102.31" rx="5.14"/><ellipse class="cls-8" cx="1476.45" cy="23.92" rx="3.33" ry="2.86"/><ellipse class="cls-8" cx="1489.51" cy="23.92" rx="3.33" ry="2.86"/><ellipse class="cls-8" cx="1502.58" cy="23.92" rx="3.33" ry="2.86"/><ellipse class="cls-8" cx="1515.64" cy="23.92" rx="3.33" ry="2.86"/><ellipse class="cls-8" cx="1528.71" cy="23.92" rx="3.33" ry="2.86"/><ellipse class="cls-8" cx="1541.77" cy="23.92" rx="3.33" ry="2.86"/><ellipse class="cls-8" cx="1554.84" cy="23.92" rx="3.33" ry="2.86"/><ellipse class="cls-8" cx="1567.9" cy="23.92" rx="3.33" ry="2.86"/><ellipse class="cls-8" cx="1580.97" cy="23.92" rx="3.33" ry="2.86"/><ellipse class="cls-8" cx="1594.03" cy="23.92" rx="3.33" ry="2.86"/><ellipse class="cls-8" cx="1607.1" cy="23.92" rx="3.33" ry="2.86"/><ellipse class="cls-8" cx="1620.16" cy="23.92" rx="3.33" ry="2.86"/><ellipse class="cls-8" cx="1633.23" cy="23.92" rx="3.33" ry="2.86"/><ellipse class="cls-8" cx="1646.29" cy="23.92" rx="3.33" ry="2.86"/><ellipse class="cls-8" cx="1659.36" cy="23.92" rx="3.33" ry="2.86"/><ellipse class="cls-8" cx="1672.43" cy="23.92" rx="3.33" ry="2.86"/><ellipse class="cls-8" cx="1476.45" cy="32.42" rx="3.33" ry="2.86"/><ellipse class="cls-8" cx="1489.51" cy="32.42" rx="3.33" ry="2.86"/><ellipse class="cls-8" cx="1502.58" cy="32.42" rx="3.33" ry="2.86"/><ellipse class="cls-8" cx="1515.64" cy="32.42" rx="3.33" ry="2.86"/><ellipse class="cls-8" cx="1528.71" cy="32.42" rx="3.33" ry="2.86"/><ellipse class="cls-8" cx="1541.77" cy="32.42" rx="3.33" ry="2.86"/><ellipse class="cls-8" cx="1554.84" cy="32.42" rx="3.33" ry="2.86"/><ellipse class="cls-8" cx="1567.9" cy="32.42" rx="3.33" ry="2.86"/><ellipse class="cls-8" cx="1580.97" cy="32.42" rx="3.33" ry="2.86"/><ellipse class="cls-8" cx="1594.03" cy="32.42" rx="3.33" ry="2.86"/><ellipse class="cls-8" cx="1607.1" cy="32.42" rx="3.33" ry="2.86"/><ellipse class="cls-8" cx="1620.16" cy="32.42" rx="3.33" ry="2.86"/><ellipse class="cls-8" cx="1633.23" cy="32.42" rx="3.33" ry="2.86"/><ellipse class="cls-8" cx="1646.29" cy="32.42" rx="3.33" ry="2.86"/><ellipse class="cls-8" cx="1659.36" cy="32.42" rx="3.33" ry="2.86"/><ellipse class="cls-8" cx="1672.43" cy="32.42" rx="3.33" ry="2.86"/><ellipse class="cls-8" cx="1476.45" cy="40.92" rx="3.33" ry="2.86"/><ellipse class="cls-8" cx="1489.51" cy="40.92" rx="3.33" ry="2.86"/><ellipse class="cls-8" cx="1502.58" cy="40.92" rx="3.33" ry="2.86"/><ellipse class="cls-8" cx="1515.64" cy="40.92" rx="3.33" ry="2.86"/><ellipse class="cls-8" cx="1528.71" cy="40.92" rx="3.33" ry="2.86"/><ellipse class="cls-8" cx="1541.77" cy="40.92" rx="3.33" ry="2.86"/><ellipse class="cls-8" cx="1554.84" cy="40.92" rx="3.33" ry="2.86"/><ellipse class="cls-8" cx="1567.9" cy="40.92" rx="3.33" ry="2.86"/><ellipse class="cls-8" cx="1580.97" cy="40.92" rx="3.33" ry="2.86"/><ellipse class="cls-8" cx="1594.03" cy="40.92" rx="3.33" ry="2.86"/><ellipse class="cls-8" cx="1607.1" cy="40.92" rx="3.33" ry="2.86"/><ellipse class="cls-8" cx="1620.16" cy="40.92" rx="3.33" ry="2.86"/><ellipse class="cls-8" cx="1633.23" cy="40.92" rx="3.33" ry="2.86"/><ellipse class="cls-8" cx="1646.29" cy="40.92" rx="3.33" ry="2.86"/><ellipse class="cls-8" cx="1659.36" cy="40.92" rx="3.33" ry="2.86"/><ellipse class="cls-8" cx="1672.43" cy="40.92" rx="3.33" ry="2.86"/><ellipse class="cls-8" cx="1476.45" cy="49.42" rx="3.33" ry="2.86"/><ellipse class="cls-8" cx="1489.51" cy="49.42" rx="3.33" ry="2.86"/><ellipse class="cls-8" cx="1502.58" cy="49.42" rx="3.33" ry="2.86"/><ellipse class="cls-8" cx="1515.64" cy="49.42" rx="3.33" ry="2.86"/><ellipse class="cls-8" cx="1528.71" cy="49.42" rx="3.33" ry="2.86"/><ellipse class="cls-8" cx="1541.77" cy="49.42" rx="3.33" ry="2.86"/><ellipse class="cls-8" cx="1554.84" cy="49.42" rx="3.33" ry="2.86"/><ellipse class="cls-8" cx="1567.9" cy="49.42" rx="3.33" ry="2.86"/><ellipse class="cls-8" cx="1580.97" cy="49.42" rx="3.33" ry="2.86"/><ellipse class="cls-8" cx="1594.03" cy="49.42" rx="3.33" ry="2.86"/><ellipse class="cls-8" cx="1607.1" cy="49.42" rx="3.33" ry="2.86"/><ellipse class="cls-8" cx="1620.16" cy="49.42" rx="3.33" ry="2.86"/><ellipse class="cls-8" cx="1633.23" cy="49.42" rx="3.33" ry="2.86"/><ellipse class="cls-8" cx="1646.29" cy="49.42" rx="3.33" ry="2.86"/><ellipse class="cls-8" cx="1659.36" cy="49.42" rx="3.33" ry="2.86"/><ellipse class="cls-8" cx="1672.43" cy="49.42" rx="3.33" ry="2.86"/><ellipse class="cls-8" cx="1476.45" cy="57.92" rx="3.33" ry="2.86"/><ellipse class="cls-8" cx="1489.51" cy="57.92" rx="3.33" ry="2.86"/><ellipse class="cls-8" cx="1502.58" cy="57.92" rx="3.33" ry="2.86"/><ellipse class="cls-8" cx="1515.64" cy="57.92" rx="3.33" ry="2.86"/><ellipse class="cls-8" cx="1528.71" cy="57.92" rx="3.33" ry="2.86"/><ellipse class="cls-8" cx="1541.77" cy="57.92" rx="3.33" ry="2.86"/><ellipse class="cls-8" cx="1554.84" cy="57.92" rx="3.33" ry="2.86"/><ellipse class="cls-8" cx="1567.9" cy="57.92" rx="3.33" ry="2.86"/><ellipse class="cls-8" cx="1580.97" cy="57.92" rx="3.33" ry="2.86"/><ellipse class="cls-8" cx="1594.03" cy="57.92" rx="3.33" ry="2.86"/><ellipse class="cls-8" cx="1607.1" cy="57.92" rx="3.33" ry="2.86"/><ellipse class="cls-8" cx="1620.16" cy="57.92" rx="3.33" ry="2.86"/><ellipse class="cls-8" cx="1633.23" cy="57.92" rx="3.33" ry="2.86"/><ellipse class="cls-8" cx="1646.29" cy="57.92" rx="3.33" ry="2.86"/><ellipse class="cls-8" cx="1659.36" cy="57.92" rx="3.33" ry="2.86"/><ellipse class="cls-8" cx="1672.43" cy="57.92" rx="3.33" ry="2.86"/><ellipse class="cls-8" cx="1476.45" cy="66.42" rx="3.33" ry="2.86"/><ellipse class="cls-8" cx="1489.51" cy="66.42" rx="3.33" ry="2.86"/><ellipse class="cls-8" cx="1502.58" cy="66.42" rx="3.33" ry="2.86"/><ellipse class="cls-8" cx="1515.64" cy="66.42" rx="3.33" ry="2.86"/><ellipse class="cls-8" cx="1528.71" cy="66.42" rx="3.33" ry="2.86"/><ellipse class="cls-8" cx="1541.77" cy="66.42" rx="3.33" ry="2.86"/><ellipse class="cls-8" cx="1554.84" cy="66.42" rx="3.33" ry="2.86"/><ellipse class="cls-8" cx="1567.9" cy="66.42" rx="3.33" ry="2.86"/><ellipse class="cls-8" cx="1580.97" cy="66.42" rx="3.33" ry="2.86"/><ellipse class="cls-8" cx="1594.03" cy="66.42" rx="3.33" ry="2.86"/><ellipse class="cls-8" cx="1607.1" cy="66.42" rx="3.33" ry="2.86"/><ellipse class="cls-8" cx="1620.16" cy="66.42" rx="3.33" ry="2.86"/><ellipse class="cls-8" cx="1633.23" cy="66.42" rx="3.33" ry="2.86"/><ellipse class="cls-8" cx="1646.29" cy="66.42" rx="3.33" ry="2.86"/><ellipse class="cls-8" cx="1659.36" cy="66.42" rx="3.33" ry="2.86"/><ellipse class="cls-8" cx="1672.43" cy="66.42" rx="3.33" ry="2.86"/><ellipse class="cls-8" cx="1476.45" cy="74.92" rx="3.33" ry="2.86"/><ellipse class="cls-8" cx="1489.51" cy="74.92" rx="3.33" ry="2.86"/><ellipse class="cls-8" cx="1502.58" cy="74.92" rx="3.33" ry="2.86"/><ellipse class="cls-8" cx="1515.64" cy="74.92" rx="3.33" ry="2.86"/><ellipse class="cls-8" cx="1528.71" cy="74.92" rx="3.33" ry="2.86"/><ellipse class="cls-8" cx="1541.77" cy="74.92" rx="3.33" ry="2.86"/><ellipse class="cls-8" cx="1554.84" cy="74.92" rx="3.33" ry="2.86"/><ellipse class="cls-8" cx="1567.9" cy="74.92" rx="3.33" ry="2.86"/><ellipse class="cls-8" cx="1580.97" cy="74.92" rx="3.33" ry="2.86"/><ellipse class="cls-8" cx="1594.03" cy="74.92" rx="3.33" ry="2.86"/><ellipse class="cls-8" cx="1607.1" cy="74.92" rx="3.33" ry="2.86"/><ellipse class="cls-8" cx="1620.16" cy="74.92" rx="3.33" ry="2.86"/><ellipse class="cls-8" cx="1633.23" cy="74.92" rx="3.33" ry="2.86"/><ellipse class="cls-8" cx="1646.29" cy="74.92" rx="3.33" ry="2.86"/><ellipse class="cls-8" cx="1659.36" cy="74.92" rx="3.33" ry="2.86"/><ellipse class="cls-8" cx="1672.43" cy="74.92" rx="3.33" ry="2.86"/><ellipse class="cls-8" cx="1476.45" cy="83.41" rx="3.33" ry="2.86"/><ellipse class="cls-8" cx="1489.51" cy="83.41" rx="3.33" ry="2.86"/><ellipse class="cls-8" cx="1502.58" cy="83.41" rx="3.33" ry="2.86"/><ellipse class="cls-8" cx="1515.64" cy="83.41" rx="3.33" ry="2.86"/><ellipse class="cls-8" cx="1528.71" cy="83.41" rx="3.33" ry="2.86"/><ellipse class="cls-8" cx="1541.77" cy="83.41" rx="3.33" ry="2.86"/><ellipse class="cls-8" cx="1554.84" cy="83.41" rx="3.33" ry="2.86"/><ellipse class="cls-8" cx="1567.9" cy="83.41" rx="3.33" ry="2.86"/><ellipse class="cls-8" cx="1580.97" cy="83.41" rx="3.33" ry="2.86"/><ellipse class="cls-8" cx="1594.03" cy="83.41" rx="3.33" ry="2.86"/><ellipse class="cls-8" cx="1607.1" cy="83.41" rx="3.33" ry="2.86"/><ellipse class="cls-8" cx="1620.16" cy="83.41" rx="3.33" ry="2.86"/><ellipse class="cls-8" cx="1633.23" cy="83.41" rx="3.33" ry="2.86"/><ellipse class="cls-8" cx="1646.29" cy="83.41" rx="3.33" ry="2.86"/><ellipse class="cls-8" cx="1659.36" cy="83.41" rx="3.33" ry="2.86"/><ellipse class="cls-8" cx="1672.43" cy="83.41" rx="3.33" ry="2.86"/><ellipse class="cls-8" cx="1476.45" cy="91.91" rx="3.33" ry="2.86"/><ellipse class="cls-8" cx="1489.51" cy="91.91" rx="3.33" ry="2.86"/><ellipse class="cls-8" cx="1502.58" cy="91.91" rx="3.33" ry="2.86"/><ellipse class="cls-8" cx="1515.64" cy="91.91" rx="3.33" ry="2.86"/><ellipse class="cls-8" cx="1528.71" cy="91.91" rx="3.33" ry="2.86"/><ellipse class="cls-8" cx="1541.77" cy="91.91" rx="3.33" ry="2.86"/><ellipse class="cls-8" cx="1554.84" cy="91.91" rx="3.33" ry="2.86"/><ellipse class="cls-8" cx="1567.9" cy="91.91" rx="3.33" ry="2.86"/><ellipse class="cls-8" cx="1580.97" cy="91.91" rx="3.33" ry="2.86"/><ellipse class="cls-8" cx="1594.03" cy="91.91" rx="3.33" ry="2.86"/><ellipse class="cls-8" cx="1607.1" cy="91.91" rx="3.33" ry="2.86"/><ellipse class="cls-8" cx="1620.16" cy="91.91" rx="3.33" ry="2.86"/><ellipse class="cls-8" cx="1633.23" cy="91.91" rx="3.33" ry="2.86"/><ellipse class="cls-8" cx="1646.29" cy="91.91" rx="3.33" ry="2.86"/><ellipse class="cls-8" cx="1659.36" cy="91.91" rx="3.33" ry="2.86"/><ellipse class="cls-8" cx="1672.43" cy="91.91" rx="3.33" ry="2.86"/><ellipse class="cls-8" cx="1476.45" cy="100.41" rx="3.33" ry="2.86"/><ellipse class="cls-8" cx="1489.51" cy="100.41" rx="3.33" ry="2.86"/><ellipse class="cls-8" cx="1502.58" cy="100.41" rx="3.33" ry="2.86"/><ellipse class="cls-8" cx="1515.64" cy="100.41" rx="3.33" ry="2.86"/><ellipse class="cls-8" cx="1528.71" cy="100.41" rx="3.33" ry="2.86"/><ellipse class="cls-8" cx="1541.77" cy="100.41" rx="3.33" ry="2.86"/><ellipse class="cls-8" cx="1554.84" cy="100.41" rx="3.33" ry="2.86"/><ellipse class="cls-8" cx="1567.9" cy="100.41" rx="3.33" ry="2.86"/><ellipse class="cls-8" cx="1580.97" cy="100.41" rx="3.33" ry="2.86"/><ellipse class="cls-8" cx="1594.03" cy="100.41" rx="3.33" ry="2.86"/><ellipse class="cls-8" cx="1607.1" cy="100.41" rx="3.33" ry="2.86"/><ellipse class="cls-8" cx="1620.16" cy="100.41" rx="3.33" ry="2.86"/><ellipse class="cls-8" cx="1633.23" cy="100.41" rx="3.33" ry="2.86"/><ellipse class="cls-8" cx="1646.29" cy="100.41" rx="3.33" ry="2.86"/><ellipse class="cls-8" cx="1659.36" cy="100.41" rx="3.33" ry="2.86"/><ellipse class="cls-8" cx="1672.43" cy="100.41" rx="3.33" ry="2.86"/><ellipse class="cls-8" cx="1476.45" cy="108.91" rx="3.33" ry="2.86"/><ellipse class="cls-8" cx="1489.51" cy="108.91" rx="3.33" ry="2.86"/><ellipse class="cls-8" cx="1502.58" cy="108.91" rx="3.33" ry="2.86"/><ellipse class="cls-8" cx="1515.64" cy="108.91" rx="3.33" ry="2.86"/><ellipse class="cls-8" cx="1528.71" cy="108.91" rx="3.33" ry="2.86"/><ellipse class="cls-8" cx="1541.77" cy="108.91" rx="3.33" ry="2.86"/><ellipse class="cls-8" cx="1554.84" cy="108.91" rx="3.33" ry="2.86"/><ellipse class="cls-8" cx="1567.9" cy="108.91" rx="3.33" ry="2.86"/><ellipse class="cls-8" cx="1580.97" cy="108.91" rx="3.33" ry="2.86"/><ellipse class="cls-8" cx="1594.03" cy="108.91" rx="3.33" ry="2.86"/><ellipse class="cls-8" cx="1607.1" cy="108.91" rx="3.33" ry="2.86"/><ellipse class="cls-8" cx="1620.16" cy="108.91" rx="3.33" ry="2.86"/><ellipse class="cls-8" cx="1633.23" cy="108.91" rx="3.33" ry="2.86"/><ellipse class="cls-8" cx="1646.29" cy="108.91" rx="3.33" ry="2.86"/><ellipse class="cls-8" cx="1659.36" cy="108.91" rx="3.33" ry="2.86"/><ellipse class="cls-8" cx="1672.43" cy="108.91" rx="3.33" ry="2.86"/><ellipse class="cls-8" cx="1476.45" cy="117.41" rx="3.33" ry="2.86"/><ellipse class="cls-8" cx="1489.51" cy="117.41" rx="3.33" ry="2.86"/><ellipse class="cls-8" cx="1502.58" cy="117.41" rx="3.33" ry="2.86"/><ellipse class="cls-8" cx="1515.64" cy="117.41" rx="3.33" ry="2.86"/><ellipse class="cls-8" cx="1528.71" cy="117.41" rx="3.33" ry="2.86"/><ellipse class="cls-8" cx="1541.77" cy="117.41" rx="3.33" ry="2.86"/><ellipse class="cls-8" cx="1554.84" cy="117.41" rx="3.33" ry="2.86"/><ellipse class="cls-8" cx="1567.9" cy="117.41" rx="3.33" ry="2.86"/><ellipse class="cls-8" cx="1580.97" cy="117.41" rx="3.33" ry="2.86"/><ellipse class="cls-8" cx="1594.03" cy="117.41" rx="3.33" ry="2.86"/><ellipse class="cls-8" cx="1607.1" cy="117.41" rx="3.33" ry="2.86"/><ellipse class="cls-8" cx="1620.16" cy="117.41" rx="3.33" ry="2.86"/><ellipse class="cls-8" cx="1633.23" cy="117.41" rx="3.33" ry="2.86"/><ellipse class="cls-8" cx="1646.29" cy="117.41" rx="3.33" ry="2.86"/><ellipse class="cls-8" cx="1659.36" cy="117.41" rx="3.33" ry="2.86"/><ellipse class="cls-8" cx="1672.43" cy="117.41" rx="3.33" ry="2.86"/><ellipse class="cls-8" cx="1476.45" cy="125.91" rx="3.33" ry="2.86"/><ellipse class="cls-8" cx="1489.51" cy="125.91" rx="3.33" ry="2.86"/><ellipse class="cls-8" cx="1502.58" cy="125.91" rx="3.33" ry="2.86"/><ellipse class="cls-8" cx="1515.64" cy="125.91" rx="3.33" ry="2.86"/><ellipse class="cls-8" cx="1528.71" cy="125.91" rx="3.33" ry="2.86"/><ellipse class="cls-8" cx="1541.77" cy="125.91" rx="3.33" ry="2.86"/><ellipse class="cls-8" cx="1554.84" cy="125.91" rx="3.33" ry="2.86"/><ellipse class="cls-8" cx="1567.9" cy="125.91" rx="3.33" ry="2.86"/><ellipse class="cls-8" cx="1580.97" cy="125.91" rx="3.33" ry="2.86"/><ellipse class="cls-8" cx="1594.03" cy="125.91" rx="3.33" ry="2.86"/><ellipse class="cls-8" cx="1607.1" cy="125.91" rx="3.33" ry="2.86"/><ellipse class="cls-8" cx="1620.16" cy="125.91" rx="3.33" ry="2.86"/><ellipse class="cls-8" cx="1633.23" cy="125.91" rx="3.33" ry="2.86"/><ellipse class="cls-8" cx="1646.29" cy="125.91" rx="3.33" ry="2.86"/><ellipse class="cls-8" cx="1659.36" cy="125.91" rx="3.33" ry="2.86"/><ellipse class="cls-8" cx="1672.43" cy="125.91" rx="3.33" ry="2.86"/><ellipse class="cls-8" cx="1476.45" cy="134.41" rx="3.33" ry="2.86"/><ellipse class="cls-8" cx="1489.51" cy="134.41" rx="3.33" ry="2.86"/><ellipse class="cls-8" cx="1502.58" cy="134.41" rx="3.33" ry="2.86"/><ellipse class="cls-8" cx="1515.64" cy="134.41" rx="3.33" ry="2.86"/><ellipse class="cls-8" cx="1528.71" cy="134.41" rx="3.33" ry="2.86"/><ellipse class="cls-8" cx="1541.77" cy="134.41" rx="3.33" ry="2.86"/><ellipse class="cls-8" cx="1554.84" cy="134.41" rx="3.33" ry="2.86"/><ellipse class="cls-8" cx="1567.9" cy="134.41" rx="3.33" ry="2.86"/><ellipse class="cls-8" cx="1580.97" cy="134.41" rx="3.33" ry="2.86"/><ellipse class="cls-8" cx="1594.03" cy="134.41" rx="3.33" ry="2.86"/><ellipse class="cls-8" cx="1607.1" cy="134.41" rx="3.33" ry="2.86"/><ellipse class="cls-8" cx="1620.16" cy="134.41" rx="3.33" ry="2.86"/><ellipse class="cls-8" cx="1633.23" cy="134.41" rx="3.33" ry="2.86"/><ellipse class="cls-8" cx="1646.29" cy="134.41" rx="3.33" ry="2.86"/><ellipse class="cls-8" cx="1659.36" cy="134.41" rx="3.33" ry="2.86"/><ellipse class="cls-8" cx="1672.43" cy="134.41" rx="3.33" ry="2.86"/><ellipse class="cls-8" cx="1476.45" cy="142.91" rx="3.33" ry="2.86"/><ellipse class="cls-8" cx="1489.51" cy="142.91" rx="3.33" ry="2.86"/><ellipse class="cls-8" cx="1502.58" cy="142.91" rx="3.33" ry="2.86"/><ellipse class="cls-8" cx="1515.64" cy="142.91" rx="3.33" ry="2.86"/><ellipse class="cls-8" cx="1528.71" cy="142.91" rx="3.33" ry="2.86"/><ellipse class="cls-8" cx="1541.77" cy="142.91" rx="3.33" ry="2.86"/><ellipse class="cls-8" cx="1554.84" cy="142.91" rx="3.33" ry="2.86"/><ellipse class="cls-8" cx="1567.9" cy="142.91" rx="3.33" ry="2.86"/><ellipse class="cls-8" cx="1580.97" cy="142.91" rx="3.33" ry="2.86"/><ellipse class="cls-8" cx="1594.03" cy="142.91" rx="3.33" ry="2.86"/><ellipse class="cls-8" cx="1607.1" cy="142.91" rx="3.33" ry="2.86"/><ellipse class="cls-8" cx="1620.16" cy="142.91" rx="3.33" ry="2.86"/><ellipse class="cls-8" cx="1633.23" cy="142.91" rx="3.33" ry="2.86"/><ellipse class="cls-8" cx="1646.29" cy="142.91" rx="3.33" ry="2.86"/><ellipse class="cls-8" cx="1659.36" cy="142.91" rx="3.33" ry="2.86"/><ellipse class="cls-8" cx="1672.43" cy="142.91" rx="3.33" ry="2.86"/><ellipse class="cls-8" cx="1476.45" cy="151.41" rx="3.33" ry="2.86"/><ellipse class="cls-8" cx="1489.51" cy="151.41" rx="3.33" ry="2.86"/><ellipse class="cls-8" cx="1502.58" cy="151.41" rx="3.33" ry="2.86"/><ellipse class="cls-8" cx="1515.64" cy="151.41" rx="3.33" ry="2.86"/><ellipse class="cls-8" cx="1528.71" cy="151.41" rx="3.33" ry="2.86"/><ellipse class="cls-8" cx="1541.77" cy="151.41" rx="3.33" ry="2.86"/><ellipse class="cls-8" cx="1554.84" cy="151.41" rx="3.33" ry="2.86"/><ellipse class="cls-8" cx="1567.9" cy="151.41" rx="3.33" ry="2.86"/><ellipse class="cls-8" cx="1580.97" cy="151.41" rx="3.33" ry="2.86"/><ellipse class="cls-8" cx="1594.03" cy="151.41" rx="3.33" ry="2.86"/><ellipse class="cls-8" cx="1607.1" cy="151.41" rx="3.33" ry="2.86"/><ellipse class="cls-8" cx="1620.16" cy="151.41" rx="3.33" ry="2.86"/><ellipse class="cls-8" cx="1633.23" cy="151.41" rx="3.33" ry="2.86"/><ellipse class="cls-8" cx="1646.29" cy="151.41" rx="3.33" ry="2.86"/><ellipse class="cls-8" cx="1659.36" cy="151.41" rx="3.33" ry="2.86"/><ellipse class="cls-8" cx="1672.43" cy="151.41" rx="3.33" ry="2.86"/><ellipse class="cls-8" cx="1476.45" cy="159.91" rx="3.33" ry="2.86"/><ellipse class="cls-8" cx="1489.51" cy="159.91" rx="3.33" ry="2.86"/><ellipse class="cls-8" cx="1502.58" cy="159.91" rx="3.33" ry="2.86"/><ellipse class="cls-8" cx="1515.64" cy="159.91" rx="3.33" ry="2.86"/><ellipse class="cls-8" cx="1528.71" cy="159.91" rx="3.33" ry="2.86"/><ellipse class="cls-8" cx="1541.77" cy="159.91" rx="3.33" ry="2.86"/><ellipse class="cls-8" cx="1554.84" cy="159.91" rx="3.33" ry="2.86"/><ellipse class="cls-8" cx="1567.9" cy="159.91" rx="3.33" ry="2.86"/><ellipse class="cls-8" cx="1580.97" cy="159.91" rx="3.33" ry="2.86"/><ellipse class="cls-8" cx="1594.03" cy="159.91" rx="3.33" ry="2.86"/><ellipse class="cls-8" cx="1607.1" cy="159.91" rx="3.33" ry="2.86"/><ellipse class="cls-8" cx="1620.16" cy="159.91" rx="3.33" ry="2.86"/><ellipse class="cls-8" cx="1633.23" cy="159.91" rx="3.33" ry="2.86"/><ellipse class="cls-8" cx="1646.29" cy="159.91" rx="3.33" ry="2.86"/><ellipse class="cls-8" cx="1659.36" cy="159.91" rx="3.33" ry="2.86"/><ellipse class="cls-8" cx="1672.43" cy="159.91" rx="3.33" ry="2.86"/><ellipse class="cls-8" cx="1476.45" cy="168.41" rx="3.33" ry="2.86"/><ellipse class="cls-8" cx="1489.51" cy="168.41" rx="3.33" ry="2.86"/><ellipse class="cls-8" cx="1502.58" cy="168.41" rx="3.33" ry="2.86"/><ellipse class="cls-8" cx="1515.64" cy="168.41" rx="3.33" ry="2.86"/><ellipse class="cls-8" cx="1528.71" cy="168.41" rx="3.33" ry="2.86"/><ellipse class="cls-8" cx="1541.77" cy="168.41" rx="3.33" ry="2.86"/><ellipse class="cls-8" cx="1554.84" cy="168.41" rx="3.33" ry="2.86"/><ellipse class="cls-8" cx="1567.9" cy="168.41" rx="3.33" ry="2.86"/><ellipse class="cls-8" cx="1580.97" cy="168.41" rx="3.33" ry="2.86"/><ellipse class="cls-8" cx="1594.03" cy="168.41" rx="3.33" ry="2.86"/><ellipse class="cls-8" cx="1607.1" cy="168.41" rx="3.33" ry="2.86"/><ellipse class="cls-8" cx="1620.16" cy="168.41" rx="3.33" ry="2.86"/><ellipse class="cls-8" cx="1633.23" cy="168.41" rx="3.33" ry="2.86"/><ellipse class="cls-8" cx="1646.29" cy="168.41" rx="3.33" ry="2.86"/><ellipse class="cls-8" cx="1659.36" cy="168.41" rx="3.33" ry="2.86"/><ellipse class="cls-8" cx="1672.43" cy="168.41" rx="3.33" ry="2.86"/><ellipse class="cls-8" cx="1476.45" cy="176.91" rx="3.33" ry="2.86"/><ellipse class="cls-8" cx="1489.51" cy="176.91" rx="3.33" ry="2.86"/><ellipse class="cls-8" cx="1502.58" cy="176.91" rx="3.33" ry="2.86"/><ellipse class="cls-8" cx="1515.64" cy="176.91" rx="3.33" ry="2.86"/><ellipse class="cls-8" cx="1528.71" cy="176.91" rx="3.33" ry="2.86"/><ellipse class="cls-8" cx="1541.77" cy="176.91" rx="3.33" ry="2.86"/><ellipse class="cls-8" cx="1554.84" cy="176.91" rx="3.33" ry="2.86"/><ellipse class="cls-8" cx="1567.9" cy="176.91" rx="3.33" ry="2.86"/><ellipse class="cls-8" cx="1580.97" cy="176.91" rx="3.33" ry="2.86"/><ellipse class="cls-8" cx="1594.03" cy="176.91" rx="3.33" ry="2.86"/><ellipse class="cls-8" cx="1607.1" cy="176.91" rx="3.33" ry="2.86"/><ellipse class="cls-8" cx="1620.16" cy="176.91" rx="3.33" ry="2.86"/><ellipse class="cls-8" cx="1633.23" cy="176.91" rx="3.33" ry="2.86"/><ellipse class="cls-8" cx="1646.29" cy="176.91" rx="3.33" ry="2.86"/><ellipse class="cls-8" cx="1659.36" cy="176.91" rx="3.33" ry="2.86"/><ellipse class="cls-8" cx="1672.43" cy="176.91" rx="3.33" ry="2.86"/><ellipse class="cls-8" cx="1476.45" cy="185.41" rx="3.33" ry="2.86"/><ellipse class="cls-8" cx="1489.51" cy="185.41" rx="3.33" ry="2.86"/><ellipse class="cls-8" cx="1502.58" cy="185.41" rx="3.33" ry="2.86"/><ellipse class="cls-8" cx="1515.64" cy="185.41" rx="3.33" ry="2.86"/><ellipse class="cls-8" cx="1528.71" cy="185.41" rx="3.33" ry="2.86"/><ellipse class="cls-8" cx="1541.77" cy="185.41" rx="3.33" ry="2.86"/><ellipse class="cls-8" cx="1554.84" cy="185.41" rx="3.33" ry="2.86"/><ellipse class="cls-8" cx="1567.9" cy="185.41" rx="3.33" ry="2.86"/><ellipse class="cls-8" cx="1580.97" cy="185.41" rx="3.33" ry="2.86"/><ellipse class="cls-8" cx="1594.03" cy="185.41" rx="3.33" ry="2.86"/><ellipse class="cls-8" cx="1607.1" cy="185.41" rx="3.33" ry="2.86"/><ellipse class="cls-8" cx="1620.16" cy="185.41" rx="3.33" ry="2.86"/><ellipse class="cls-8" cx="1633.23" cy="185.41" rx="3.33" ry="2.86"/><ellipse class="cls-8" cx="1646.29" cy="185.41" rx="3.33" ry="2.86"/><ellipse class="cls-8" cx="1659.36" cy="185.41" rx="3.33" ry="2.86"/><ellipse class="cls-8" cx="1672.43" cy="185.41" rx="3.33" ry="2.86"/><ellipse class="cls-8" cx="1476.45" cy="193.91" rx="3.33" ry="2.86"/><ellipse class="cls-8" cx="1489.51" cy="193.91" rx="3.33" ry="2.86"/><ellipse class="cls-8" cx="1502.58" cy="193.91" rx="3.33" ry="2.86"/><ellipse class="cls-8" cx="1515.64" cy="193.91" rx="3.33" ry="2.86"/><ellipse class="cls-8" cx="1528.71" cy="193.91" rx="3.33" ry="2.86"/><ellipse class="cls-8" cx="1541.77" cy="193.91" rx="3.33" ry="2.86"/><ellipse class="cls-8" cx="1554.84" cy="193.91" rx="3.33" ry="2.86"/><ellipse class="cls-8" cx="1567.9" cy="193.91" rx="3.33" ry="2.86"/><ellipse class="cls-8" cx="1580.97" cy="193.91" rx="3.33" ry="2.86"/><ellipse class="cls-8" cx="1594.03" cy="193.91" rx="3.33" ry="2.86"/><ellipse class="cls-8" cx="1607.1" cy="193.91" rx="3.33" ry="2.86"/><ellipse class="cls-8" cx="1620.16" cy="193.91" rx="3.33" ry="2.86"/><ellipse class="cls-8" cx="1633.23" cy="193.91" rx="3.33" ry="2.86"/><ellipse class="cls-8" cx="1646.29" cy="193.91" rx="3.33" ry="2.86"/><ellipse class="cls-8" cx="1659.36" cy="193.91" rx="3.33" ry="2.86"/><ellipse class="cls-8" cx="1672.43" cy="193.91" rx="3.33" ry="2.86"/><ellipse class="cls-8" cx="1476.45" cy="202.41" rx="3.33" ry="2.86"/><ellipse class="cls-8" cx="1489.51" cy="202.41" rx="3.33" ry="2.86"/><ellipse class="cls-8" cx="1502.58" cy="202.41" rx="3.33" ry="2.86"/><ellipse class="cls-8" cx="1515.64" cy="202.41" rx="3.33" ry="2.86"/><ellipse class="cls-8" cx="1528.71" cy="202.41" rx="3.33" ry="2.86"/><ellipse class="cls-8" cx="1541.77" cy="202.41" rx="3.33" ry="2.86"/><ellipse class="cls-8" cx="1554.84" cy="202.41" rx="3.33" ry="2.86"/><ellipse class="cls-8" cx="1567.9" cy="202.41" rx="3.33" ry="2.86"/><ellipse class="cls-8" cx="1580.97" cy="202.41" rx="3.33" ry="2.86"/><ellipse class="cls-8" cx="1594.03" cy="202.41" rx="3.33" ry="2.86"/><ellipse class="cls-8" cx="1607.1" cy="202.41" rx="3.33" ry="2.86"/><ellipse class="cls-8" cx="1620.16" cy="202.41" rx="3.33" ry="2.86"/><ellipse class="cls-8" cx="1633.23" cy="202.41" rx="3.33" ry="2.86"/><ellipse class="cls-8" cx="1646.29" cy="202.41" rx="3.33" ry="2.86"/><ellipse class="cls-8" cx="1659.36" cy="202.41" rx="3.33" ry="2.86"/><ellipse class="cls-8" cx="1672.43" cy="202.41" rx="3.33" ry="2.86"/><ellipse class="cls-8" cx="1476.45" cy="210.91" rx="3.33" ry="2.86"/><ellipse class="cls-8" cx="1489.51" cy="210.91" rx="3.33" ry="2.86"/><ellipse class="cls-8" cx="1502.58" cy="210.91" rx="3.33" ry="2.86"/><ellipse class="cls-8" cx="1515.64" cy="210.91" rx="3.33" ry="2.86"/><ellipse class="cls-8" cx="1528.71" cy="210.91" rx="3.33" ry="2.86"/><ellipse class="cls-8" cx="1541.77" cy="210.91" rx="3.33" ry="2.86"/><ellipse class="cls-8" cx="1554.84" cy="210.91" rx="3.33" ry="2.86"/><ellipse class="cls-8" cx="1567.9" cy="210.91" rx="3.33" ry="2.86"/><ellipse class="cls-8" cx="1580.97" cy="210.91" rx="3.33" ry="2.86"/><ellipse class="cls-8" cx="1594.03" cy="210.91" rx="3.33" ry="2.86"/><ellipse class="cls-8" cx="1607.1" cy="210.91" rx="3.33" ry="2.86"/><ellipse class="cls-8" cx="1620.16" cy="210.91" rx="3.33" ry="2.86"/><ellipse class="cls-8" cx="1633.23" cy="210.91" rx="3.33" ry="2.86"/><ellipse class="cls-8" cx="1646.29" cy="210.91" rx="3.33" ry="2.86"/><ellipse class="cls-8" cx="1659.36" cy="210.91" rx="3.33" ry="2.86"/><ellipse class="cls-8" cx="1672.43" cy="210.91" rx="3.33" ry="2.86"/><ellipse class="cls-8" cx="1476.45" cy="219.41" rx="3.33" ry="2.86"/><ellipse class="cls-8" cx="1489.51" cy="219.41" rx="3.33" ry="2.86"/><ellipse class="cls-8" cx="1502.58" cy="219.41" rx="3.33" ry="2.86"/><ellipse class="cls-8" cx="1515.64" cy="219.41" rx="3.33" ry="2.86"/><ellipse class="cls-8" cx="1528.71" cy="219.41" rx="3.33" ry="2.86"/><ellipse class="cls-8" cx="1541.77" cy="219.41" rx="3.33" ry="2.86"/><ellipse class="cls-8" cx="1554.84" cy="219.41" rx="3.33" ry="2.86"/><ellipse class="cls-8" cx="1567.9" cy="219.41" rx="3.33" ry="2.86"/><ellipse class="cls-8" cx="1580.97" cy="219.41" rx="3.33" ry="2.86"/><ellipse class="cls-8" cx="1594.03" cy="219.41" rx="3.33" ry="2.86"/><ellipse class="cls-8" cx="1607.1" cy="219.41" rx="3.33" ry="2.86"/><ellipse class="cls-8" cx="1620.16" cy="219.41" rx="3.33" ry="2.86"/><ellipse class="cls-8" cx="1633.23" cy="219.41" rx="3.33" ry="2.86"/><ellipse class="cls-8" cx="1646.29" cy="219.41" rx="3.33" ry="2.86"/><ellipse class="cls-8" cx="1659.36" cy="219.41" rx="3.33" ry="2.86"/><ellipse class="cls-8" cx="1672.43" cy="219.41" rx="3.33" ry="2.86"/><ellipse class="cls-8" cx="1476.45" cy="227.91" rx="3.33" ry="2.86"/><ellipse class="cls-8" cx="1489.51" cy="227.91" rx="3.33" ry="2.86"/><ellipse class="cls-8" cx="1502.58" cy="227.91" rx="3.33" ry="2.86"/><ellipse class="cls-8" cx="1515.64" cy="227.91" rx="3.33" ry="2.86"/><ellipse class="cls-8" cx="1528.71" cy="227.91" rx="3.33" ry="2.86"/><ellipse class="cls-8" cx="1541.77" cy="227.91" rx="3.33" ry="2.86"/><ellipse class="cls-8" cx="1554.84" cy="227.91" rx="3.33" ry="2.86"/><ellipse class="cls-8" cx="1567.9" cy="227.91" rx="3.33" ry="2.86"/><ellipse class="cls-8" cx="1580.97" cy="227.91" rx="3.33" ry="2.86"/><ellipse class="cls-8" cx="1594.03" cy="227.91" rx="3.33" ry="2.86"/><ellipse class="cls-8" cx="1607.1" cy="227.91" rx="3.33" ry="2.86"/><ellipse class="cls-8" cx="1620.16" cy="227.91" rx="3.33" ry="2.86"/><ellipse class="cls-8" cx="1633.23" cy="227.91" rx="3.33" ry="2.86"/><ellipse class="cls-8" cx="1646.29" cy="227.91" rx="3.33" ry="2.86"/><ellipse class="cls-8" cx="1659.36" cy="227.91" rx="3.33" ry="2.86"/><ellipse class="cls-8" cx="1672.43" cy="227.91" rx="3.33" ry="2.86"/><ellipse class="cls-8" cx="1476.45" cy="236.41" rx="3.33" ry="2.86"/><ellipse class="cls-8" cx="1489.51" cy="236.41" rx="3.33" ry="2.86"/><ellipse class="cls-8" cx="1502.58" cy="236.41" rx="3.33" ry="2.86"/><ellipse class="cls-8" cx="1515.64" cy="236.41" rx="3.33" ry="2.86"/><ellipse class="cls-8" cx="1528.71" cy="236.41" rx="3.33" ry="2.86"/><ellipse class="cls-8" cx="1541.77" cy="236.41" rx="3.33" ry="2.86"/><ellipse class="cls-8" cx="1554.84" cy="236.41" rx="3.33" ry="2.86"/><ellipse class="cls-8" cx="1567.9" cy="236.41" rx="3.33" ry="2.86"/><ellipse class="cls-8" cx="1580.97" cy="236.41" rx="3.33" ry="2.86"/><ellipse class="cls-8" cx="1594.03" cy="236.41" rx="3.33" ry="2.86"/><ellipse class="cls-8" cx="1607.1" cy="236.41" rx="3.33" ry="2.86"/><ellipse class="cls-8" cx="1620.16" cy="236.41" rx="3.33" ry="2.86"/><ellipse class="cls-8" cx="1633.23" cy="236.41" rx="3.33" ry="2.86"/><ellipse class="cls-8" cx="1646.29" cy="236.41" rx="3.33" ry="2.86"/><ellipse class="cls-8" cx="1659.36" cy="236.41" rx="3.33" ry="2.86"/><ellipse class="cls-8" cx="1672.43" cy="236.41" rx="3.33" ry="2.86"/><ellipse class="cls-8" cx="1476.45" cy="244.91" rx="3.33" ry="2.86"/><ellipse class="cls-8" cx="1489.51" cy="244.91" rx="3.33" ry="2.86"/><ellipse class="cls-8" cx="1502.58" cy="244.91" rx="3.33" ry="2.86"/><ellipse class="cls-8" cx="1515.64" cy="244.91" rx="3.33" ry="2.86"/><ellipse class="cls-8" cx="1528.71" cy="244.91" rx="3.33" ry="2.86"/><ellipse class="cls-8" cx="1541.77" cy="244.91" rx="3.33" ry="2.86"/><ellipse class="cls-8" cx="1554.84" cy="244.91" rx="3.33" ry="2.86"/><ellipse class="cls-8" cx="1567.9" cy="244.91" rx="3.33" ry="2.86"/><ellipse class="cls-8" cx="1580.97" cy="244.91" rx="3.33" ry="2.86"/><ellipse class="cls-8" cx="1594.03" cy="244.91" rx="3.33" ry="2.86"/><ellipse class="cls-8" cx="1607.1" cy="244.91" rx="3.33" ry="2.86"/><ellipse class="cls-8" cx="1620.16" cy="244.91" rx="3.33" ry="2.86"/><ellipse class="cls-8" cx="1633.23" cy="244.91" rx="3.33" ry="2.86"/><ellipse class="cls-8" cx="1646.29" cy="244.91" rx="3.33" ry="2.86"/><ellipse class="cls-8" cx="1659.36" cy="244.91" rx="3.33" ry="2.86"/><ellipse class="cls-8" cx="1672.43" cy="244.91" rx="3.33" ry="2.86"/><ellipse class="cls-8" cx="1476.45" cy="253.41" rx="3.33" ry="2.86"/><ellipse class="cls-8" cx="1489.51" cy="253.41" rx="3.33" ry="2.86"/><ellipse class="cls-8" cx="1502.58" cy="253.41" rx="3.33" ry="2.86"/><ellipse class="cls-8" cx="1515.64" cy="253.41" rx="3.33" ry="2.86"/><ellipse class="cls-8" cx="1528.71" cy="253.41" rx="3.33" ry="2.86"/><ellipse class="cls-8" cx="1541.77" cy="253.41" rx="3.33" ry="2.86"/><ellipse class="cls-8" cx="1554.84" cy="253.41" rx="3.33" ry="2.86"/><ellipse class="cls-8" cx="1567.9" cy="253.41" rx="3.33" ry="2.86"/><ellipse class="cls-8" cx="1580.97" cy="253.41" rx="3.33" ry="2.86"/><ellipse class="cls-8" cx="1594.03" cy="253.41" rx="3.33" ry="2.86"/><ellipse class="cls-8" cx="1607.1" cy="253.41" rx="3.33" ry="2.86"/><ellipse class="cls-8" cx="1620.16" cy="253.41" rx="3.33" ry="2.86"/><ellipse class="cls-8" cx="1633.23" cy="253.41" rx="3.33" ry="2.86"/><ellipse class="cls-8" cx="1646.29" cy="253.41" rx="3.33" ry="2.86"/><ellipse class="cls-8" cx="1659.36" cy="253.41" rx="3.33" ry="2.86"/><ellipse class="cls-8" cx="1672.43" cy="253.41" rx="3.33" ry="2.86"/><ellipse class="cls-8" cx="1476.45" cy="261.91" rx="3.33" ry="2.86"/><ellipse class="cls-8" cx="1489.51" cy="261.91" rx="3.33" ry="2.86"/><ellipse class="cls-8" cx="1502.58" cy="261.91" rx="3.33" ry="2.86"/><ellipse class="cls-8" cx="1515.64" cy="261.91" rx="3.33" ry="2.86"/><ellipse class="cls-8" cx="1528.71" cy="261.91" rx="3.33" ry="2.86"/><ellipse class="cls-8" cx="1541.77" cy="261.91" rx="3.33" ry="2.86"/><ellipse class="cls-8" cx="1554.84" cy="261.91" rx="3.33" ry="2.86"/><ellipse class="cls-8" cx="1567.9" cy="261.91" rx="3.33" ry="2.86"/><ellipse class="cls-8" cx="1580.97" cy="261.91" rx="3.33" ry="2.86"/><ellipse class="cls-8" cx="1594.03" cy="261.91" rx="3.33" ry="2.86"/><ellipse class="cls-8" cx="1607.1" cy="261.91" rx="3.33" ry="2.86"/><ellipse class="cls-8" cx="1620.16" cy="261.91" rx="3.33" ry="2.86"/><ellipse class="cls-8" cx="1633.23" cy="261.91" rx="3.33" ry="2.86"/><ellipse class="cls-8" cx="1646.29" cy="261.91" rx="3.33" ry="2.86"/><ellipse class="cls-8" cx="1659.36" cy="261.91" rx="3.33" ry="2.86"/><ellipse class="cls-8" cx="1672.43" cy="261.91" rx="3.33" ry="2.86"/><ellipse class="cls-8" cx="1476.45" cy="270.41" rx="3.33" ry="2.86"/><ellipse class="cls-8" cx="1489.51" cy="270.41" rx="3.33" ry="2.86"/><ellipse class="cls-8" cx="1502.58" cy="270.41" rx="3.33" ry="2.86"/><ellipse class="cls-8" cx="1515.64" cy="270.41" rx="3.33" ry="2.86"/><ellipse class="cls-8" cx="1528.71" cy="270.41" rx="3.33" ry="2.86"/><ellipse class="cls-8" cx="1541.77" cy="270.41" rx="3.33" ry="2.86"/><ellipse class="cls-8" cx="1554.84" cy="270.41" rx="3.33" ry="2.86"/><ellipse class="cls-8" cx="1567.9" cy="270.41" rx="3.33" ry="2.86"/><ellipse class="cls-8" cx="1580.97" cy="270.41" rx="3.33" ry="2.86"/><ellipse class="cls-8" cx="1594.03" cy="270.41" rx="3.33" ry="2.86"/><ellipse class="cls-8" cx="1607.1" cy="270.41" rx="3.33" ry="2.86"/><ellipse class="cls-8" cx="1620.16" cy="270.41" rx="3.33" ry="2.86"/><ellipse class="cls-8" cx="1633.23" cy="270.41" rx="3.33" ry="2.86"/><ellipse class="cls-8" cx="1646.29" cy="270.41" rx="3.33" ry="2.86"/><ellipse class="cls-8" cx="1659.36" cy="270.41" rx="3.33" ry="2.86"/><ellipse class="cls-8" cx="1672.43" cy="270.41" rx="3.33" ry="2.86"/><ellipse class="cls-8" cx="1476.45" cy="278.91" rx="3.33" ry="2.86"/><ellipse class="cls-8" cx="1489.51" cy="278.91" rx="3.33" ry="2.86"/><ellipse class="cls-8" cx="1502.58" cy="278.91" rx="3.33" ry="2.86"/><ellipse class="cls-8" cx="1515.64" cy="278.91" rx="3.33" ry="2.86"/><ellipse class="cls-8" cx="1528.71" cy="278.91" rx="3.33" ry="2.86"/><ellipse class="cls-8" cx="1541.77" cy="278.91" rx="3.33" ry="2.86"/><ellipse class="cls-8" cx="1554.84" cy="278.91" rx="3.33" ry="2.86"/><ellipse class="cls-8" cx="1567.9" cy="278.91" rx="3.33" ry="2.86"/><ellipse class="cls-8" cx="1580.97" cy="278.91" rx="3.33" ry="2.86"/><ellipse class="cls-8" cx="1594.03" cy="278.91" rx="3.33" ry="2.86"/><ellipse class="cls-8" cx="1607.1" cy="278.91" rx="3.33" ry="2.86"/><ellipse class="cls-8" cx="1620.16" cy="278.91" rx="3.33" ry="2.86"/><ellipse class="cls-8" cx="1633.23" cy="278.91" rx="3.33" ry="2.86"/><ellipse class="cls-8" cx="1646.29" cy="278.91" rx="3.33" ry="2.86"/><ellipse class="cls-8" cx="1659.36" cy="278.91" rx="3.33" ry="2.86"/><ellipse class="cls-8" cx="1672.43" cy="278.91" rx="3.33" ry="2.86"/><ellipse class="cls-8" cx="1476.45" cy="287.41" rx="3.33" ry="2.86"/><ellipse class="cls-8" cx="1489.51" cy="287.41" rx="3.33" ry="2.86"/><ellipse class="cls-8" cx="1502.58" cy="287.41" rx="3.33" ry="2.86"/><ellipse class="cls-8" cx="1515.64" cy="287.41" rx="3.33" ry="2.86"/><ellipse class="cls-8" cx="1528.71" cy="287.41" rx="3.33" ry="2.86"/><ellipse class="cls-8" cx="1541.77" cy="287.41" rx="3.33" ry="2.86"/><ellipse class="cls-8" cx="1554.84" cy="287.41" rx="3.33" ry="2.86"/><ellipse class="cls-8" cx="1567.9" cy="287.41" rx="3.33" ry="2.86"/><ellipse class="cls-8" cx="1580.97" cy="287.41" rx="3.33" ry="2.86"/><ellipse class="cls-8" cx="1594.03" cy="287.41" rx="3.33" ry="2.86"/><ellipse class="cls-8" cx="1607.1" cy="287.41" rx="3.33" ry="2.86"/><ellipse class="cls-8" cx="1620.16" cy="287.41" rx="3.33" ry="2.86"/><ellipse class="cls-8" cx="1633.23" cy="287.41" rx="3.33" ry="2.86"/><ellipse class="cls-8" cx="1646.29" cy="287.41" rx="3.33" ry="2.86"/><ellipse class="cls-8" cx="1659.36" cy="287.41" rx="3.33" ry="2.86"/><ellipse class="cls-8" cx="1672.43" cy="287.41" rx="3.33" ry="2.86"/><ellipse class="cls-8" cx="1476.45" cy="295.91" rx="3.33" ry="2.86"/><ellipse class="cls-8" cx="1489.51" cy="295.91" rx="3.33" ry="2.86"/><ellipse class="cls-8" cx="1502.58" cy="295.91" rx="3.33" ry="2.86"/><ellipse class="cls-8" cx="1515.64" cy="295.91" rx="3.33" ry="2.86"/><ellipse class="cls-8" cx="1528.71" cy="295.91" rx="3.33" ry="2.86"/><ellipse class="cls-8" cx="1541.77" cy="295.91" rx="3.33" ry="2.86"/><ellipse class="cls-8" cx="1554.84" cy="295.91" rx="3.33" ry="2.86"/><ellipse class="cls-8" cx="1567.9" cy="295.91" rx="3.33" ry="2.86"/><ellipse class="cls-8" cx="1580.97" cy="295.91" rx="3.33" ry="2.86"/><ellipse class="cls-8" cx="1594.03" cy="295.91" rx="3.33" ry="2.86"/><ellipse class="cls-8" cx="1607.1" cy="295.91" rx="3.33" ry="2.86"/><ellipse class="cls-8" cx="1620.16" cy="295.91" rx="3.33" ry="2.86"/><ellipse class="cls-8" cx="1633.23" cy="295.91" rx="3.33" ry="2.86"/><ellipse class="cls-8" cx="1646.29" cy="295.91" rx="3.33" ry="2.86"/><ellipse class="cls-8" cx="1659.36" cy="295.91" rx="3.33" ry="2.86"/><ellipse class="cls-8" cx="1672.43" cy="295.91" rx="3.33" ry="2.86"/><ellipse class="cls-8" cx="1476.45" cy="304.41" rx="3.33" ry="2.86"/><ellipse class="cls-8" cx="1489.51" cy="304.41" rx="3.33" ry="2.86"/><ellipse class="cls-8" cx="1502.58" cy="304.41" rx="3.33" ry="2.86"/><ellipse class="cls-8" cx="1515.64" cy="304.41" rx="3.33" ry="2.86"/><ellipse class="cls-8" cx="1528.71" cy="304.41" rx="3.33" ry="2.86"/><ellipse class="cls-8" cx="1541.77" cy="304.41" rx="3.33" ry="2.86"/><ellipse class="cls-8" cx="1554.84" cy="304.41" rx="3.33" ry="2.86"/><ellipse class="cls-8" cx="1567.9" cy="304.41" rx="3.33" ry="2.86"/><ellipse class="cls-8" cx="1580.97" cy="304.41" rx="3.33" ry="2.86"/><ellipse class="cls-8" cx="1594.03" cy="304.41" rx="3.33" ry="2.86"/><ellipse class="cls-8" cx="1607.1" cy="304.41" rx="3.33" ry="2.86"/><ellipse class="cls-8" cx="1620.16" cy="304.41" rx="3.33" ry="2.86"/><ellipse class="cls-8" cx="1633.23" cy="304.41" rx="3.33" ry="2.86"/><ellipse class="cls-8" cx="1646.29" cy="304.41" rx="3.33" ry="2.86"/><ellipse class="cls-8" cx="1659.36" cy="304.41" rx="3.33" ry="2.86"/><ellipse class="cls-8" cx="1672.43" cy="304.41" rx="3.33" ry="2.86"/><ellipse class="cls-8" cx="1476.45" cy="312.91" rx="3.33" ry="2.86"/><ellipse class="cls-8" cx="1489.51" cy="312.91" rx="3.33" ry="2.86"/><ellipse class="cls-8" cx="1502.58" cy="312.91" rx="3.33" ry="2.86"/><ellipse class="cls-8" cx="1515.64" cy="312.91" rx="3.33" ry="2.86"/><ellipse class="cls-8" cx="1528.71" cy="312.91" rx="3.33" ry="2.86"/><ellipse class="cls-8" cx="1541.77" cy="312.91" rx="3.33" ry="2.86"/><ellipse class="cls-8" cx="1554.84" cy="312.91" rx="3.33" ry="2.86"/><ellipse class="cls-8" cx="1567.9" cy="312.91" rx="3.33" ry="2.86"/><ellipse class="cls-8" cx="1580.97" cy="312.91" rx="3.33" ry="2.86"/><ellipse class="cls-8" cx="1594.03" cy="312.91" rx="3.33" ry="2.86"/><ellipse class="cls-8" cx="1607.1" cy="312.91" rx="3.33" ry="2.86"/><ellipse class="cls-8" cx="1620.16" cy="312.91" rx="3.33" ry="2.86"/><ellipse class="cls-8" cx="1633.23" cy="312.91" rx="3.33" ry="2.86"/><ellipse class="cls-8" cx="1646.29" cy="312.91" rx="3.33" ry="2.86"/><ellipse class="cls-8" cx="1659.36" cy="312.91" rx="3.33" ry="2.86"/><ellipse class="cls-8" cx="1672.43" cy="312.91" rx="3.33" ry="2.86"/><ellipse class="cls-8" cx="1476.45" cy="321.41" rx="3.33" ry="2.86"/><ellipse class="cls-8" cx="1489.51" cy="321.41" rx="3.33" ry="2.86"/><ellipse class="cls-8" cx="1502.58" cy="321.41" rx="3.33" ry="2.86"/><ellipse class="cls-8" cx="1515.64" cy="321.41" rx="3.33" ry="2.86"/><ellipse class="cls-8" cx="1528.71" cy="321.41" rx="3.33" ry="2.86"/><ellipse class="cls-8" cx="1541.77" cy="321.41" rx="3.33" ry="2.86"/><ellipse class="cls-8" cx="1554.84" cy="321.41" rx="3.33" ry="2.86"/><ellipse class="cls-8" cx="1567.9" cy="321.41" rx="3.33" ry="2.86"/><ellipse class="cls-8" cx="1580.97" cy="321.41" rx="3.33" ry="2.86"/><ellipse class="cls-8" cx="1594.03" cy="321.41" rx="3.33" ry="2.86"/><ellipse class="cls-8" cx="1607.1" cy="321.41" rx="3.33" ry="2.86"/><ellipse class="cls-8" cx="1620.16" cy="321.41" rx="3.33" ry="2.86"/><ellipse class="cls-8" cx="1633.23" cy="321.41" rx="3.33" ry="2.86"/><ellipse class="cls-8" cx="1646.29" cy="321.41" rx="3.33" ry="2.86"/><ellipse class="cls-8" cx="1659.36" cy="321.41" rx="3.33" ry="2.86"/><ellipse class="cls-8" cx="1672.43" cy="321.41" rx="3.33" ry="2.86"/><ellipse class="cls-8" cx="1476.45" cy="329.91" rx="3.33" ry="2.86"/><ellipse class="cls-8" cx="1489.51" cy="329.91" rx="3.33" ry="2.86"/><ellipse class="cls-8" cx="1502.58" cy="329.91" rx="3.33" ry="2.86"/><ellipse class="cls-8" cx="1515.64" cy="329.91" rx="3.33" ry="2.86"/><ellipse class="cls-8" cx="1528.71" cy="329.91" rx="3.33" ry="2.86"/><ellipse class="cls-8" cx="1541.77" cy="329.91" rx="3.33" ry="2.86"/><ellipse class="cls-8" cx="1554.84" cy="329.91" rx="3.33" ry="2.86"/><ellipse class="cls-8" cx="1567.9" cy="329.91" rx="3.33" ry="2.86"/><ellipse class="cls-8" cx="1580.97" cy="329.91" rx="3.33" ry="2.86"/><ellipse class="cls-8" cx="1594.03" cy="329.91" rx="3.33" ry="2.86"/><ellipse class="cls-8" cx="1607.1" cy="329.91" rx="3.33" ry="2.86"/><ellipse class="cls-8" cx="1620.16" cy="329.91" rx="3.33" ry="2.86"/><ellipse class="cls-8" cx="1633.23" cy="329.91" rx="3.33" ry="2.86"/><ellipse class="cls-8" cx="1646.29" cy="329.91" rx="3.33" ry="2.86"/><ellipse class="cls-8" cx="1659.36" cy="329.91" rx="3.33" ry="2.86"/><ellipse class="cls-8" cx="1672.43" cy="329.91" rx="3.33" ry="2.86"/><ellipse class="cls-8" cx="1476.45" cy="338.4" rx="3.33" ry="2.86"/><ellipse class="cls-8" cx="1489.51" cy="338.4" rx="3.33" ry="2.86"/><ellipse class="cls-8" cx="1502.58" cy="338.4" rx="3.33" ry="2.86"/><ellipse class="cls-8" cx="1515.64" cy="338.4" rx="3.33" ry="2.86"/><ellipse class="cls-8" cx="1528.71" cy="338.4" rx="3.33" ry="2.86"/><ellipse class="cls-8" cx="1541.77" cy="338.4" rx="3.33" ry="2.86"/><ellipse class="cls-8" cx="1554.84" cy="338.4" rx="3.33" ry="2.86"/><ellipse class="cls-8" cx="1567.9" cy="338.4" rx="3.33" ry="2.86"/><ellipse class="cls-8" cx="1580.97" cy="338.4" rx="3.33" ry="2.86"/><ellipse class="cls-8" cx="1594.03" cy="338.4" rx="3.33" ry="2.86"/><ellipse class="cls-8" cx="1607.1" cy="338.4" rx="3.33" ry="2.86"/><ellipse class="cls-8" cx="1620.16" cy="338.4" rx="3.33" ry="2.86"/><ellipse class="cls-8" cx="1633.23" cy="338.4" rx="3.33" ry="2.86"/><ellipse class="cls-8" cx="1646.29" cy="338.4" rx="3.33" ry="2.86"/><ellipse class="cls-8" cx="1659.36" cy="338.4" rx="3.33" ry="2.86"/><ellipse class="cls-8" cx="1672.43" cy="338.4" rx="3.33" ry="2.86"/><ellipse class="cls-8" cx="1476.45" cy="346.9" rx="3.33" ry="2.86"/><ellipse class="cls-8" cx="1489.51" cy="346.9" rx="3.33" ry="2.86"/><ellipse class="cls-8" cx="1502.58" cy="346.9" rx="3.33" ry="2.86"/><ellipse class="cls-8" cx="1515.64" cy="346.9" rx="3.33" ry="2.86"/><ellipse class="cls-8" cx="1528.71" cy="346.9" rx="3.33" ry="2.86"/><ellipse class="cls-8" cx="1541.77" cy="346.9" rx="3.33" ry="2.86"/><ellipse class="cls-8" cx="1554.84" cy="346.9" rx="3.33" ry="2.86"/><ellipse class="cls-8" cx="1567.9" cy="346.9" rx="3.33" ry="2.86"/><ellipse class="cls-8" cx="1580.97" cy="346.9" rx="3.33" ry="2.86"/><ellipse class="cls-8" cx="1594.03" cy="346.9" rx="3.33" ry="2.86"/><ellipse class="cls-8" cx="1607.1" cy="346.9" rx="3.33" ry="2.86"/><ellipse class="cls-8" cx="1620.16" cy="346.9" rx="3.33" ry="2.86"/><ellipse class="cls-8" cx="1633.23" cy="346.9" rx="3.33" ry="2.86"/><ellipse class="cls-8" cx="1646.29" cy="346.9" rx="3.33" ry="2.86"/><ellipse class="cls-8" cx="1659.36" cy="346.9" rx="3.33" ry="2.86"/><ellipse class="cls-8" cx="1672.43" cy="346.9" rx="3.33" ry="2.86"/><ellipse class="cls-8" cx="1476.45" cy="355.4" rx="3.33" ry="2.86"/><ellipse class="cls-8" cx="1489.51" cy="355.4" rx="3.33" ry="2.86"/><ellipse class="cls-8" cx="1502.58" cy="355.4" rx="3.33" ry="2.86"/><ellipse class="cls-8" cx="1515.64" cy="355.4" rx="3.33" ry="2.86"/><ellipse class="cls-8" cx="1528.71" cy="355.4" rx="3.33" ry="2.86"/><ellipse class="cls-8" cx="1541.77" cy="355.4" rx="3.33" ry="2.86"/><ellipse class="cls-8" cx="1554.84" cy="355.4" rx="3.33" ry="2.86"/><ellipse class="cls-8" cx="1567.9" cy="355.4" rx="3.33" ry="2.86"/><ellipse class="cls-8" cx="1580.97" cy="355.4" rx="3.33" ry="2.86"/><ellipse class="cls-8" cx="1594.03" cy="355.4" rx="3.33" ry="2.86"/><ellipse class="cls-8" cx="1607.1" cy="355.4" rx="3.33" ry="2.86"/><ellipse class="cls-8" cx="1620.16" cy="355.4" rx="3.33" ry="2.86"/><ellipse class="cls-8" cx="1633.23" cy="355.4" rx="3.33" ry="2.86"/><ellipse class="cls-8" cx="1646.29" cy="355.4" rx="3.33" ry="2.86"/><ellipse class="cls-8" cx="1659.36" cy="355.4" rx="3.33" ry="2.86"/><ellipse class="cls-8" cx="1672.43" cy="355.4" rx="3.33" ry="2.86"/><ellipse class="cls-8" cx="1476.45" cy="363.9" rx="3.33" ry="2.86"/><ellipse class="cls-8" cx="1489.51" cy="363.9" rx="3.33" ry="2.86"/><ellipse class="cls-8" cx="1502.58" cy="363.9" rx="3.33" ry="2.86"/><ellipse class="cls-8" cx="1515.64" cy="363.9" rx="3.33" ry="2.86"/><ellipse class="cls-8" cx="1528.71" cy="363.9" rx="3.33" ry="2.86"/><ellipse class="cls-8" cx="1541.77" cy="363.9" rx="3.33" ry="2.86"/><ellipse class="cls-8" cx="1554.84" cy="363.9" rx="3.33" ry="2.86"/><ellipse class="cls-8" cx="1567.9" cy="363.9" rx="3.33" ry="2.86"/><ellipse class="cls-8" cx="1580.97" cy="363.9" rx="3.33" ry="2.86"/><ellipse class="cls-8" cx="1594.03" cy="363.9" rx="3.33" ry="2.86"/><ellipse class="cls-8" cx="1607.1" cy="363.9" rx="3.33" ry="2.86"/><ellipse class="cls-8" cx="1620.16" cy="363.9" rx="3.33" ry="2.86"/><ellipse class="cls-8" cx="1633.23" cy="363.9" rx="3.33" ry="2.86"/><ellipse class="cls-8" cx="1646.29" cy="363.9" rx="3.33" ry="2.86"/><ellipse class="cls-8" cx="1659.36" cy="363.9" rx="3.33" ry="2.86"/><ellipse class="cls-8" cx="1672.43" cy="363.9" rx="3.33" ry="2.86"/><ellipse class="cls-8" cx="1476.45" cy="372.4" rx="3.33" ry="2.86"/><ellipse class="cls-8" cx="1489.51" cy="372.4" rx="3.33" ry="2.86"/><ellipse class="cls-8" cx="1502.58" cy="372.4" rx="3.33" ry="2.86"/><ellipse class="cls-8" cx="1515.64" cy="372.4" rx="3.33" ry="2.86"/><ellipse class="cls-8" cx="1528.71" cy="372.4" rx="3.33" ry="2.86"/><ellipse class="cls-8" cx="1541.77" cy="372.4" rx="3.33" ry="2.86"/><ellipse class="cls-8" cx="1554.84" cy="372.4" rx="3.33" ry="2.86"/><ellipse class="cls-8" cx="1567.9" cy="372.4" rx="3.33" ry="2.86"/><ellipse class="cls-8" cx="1580.97" cy="372.4" rx="3.33" ry="2.86"/><ellipse class="cls-8" cx="1594.03" cy="372.4" rx="3.33" ry="2.86"/><ellipse class="cls-8" cx="1607.1" cy="372.4" rx="3.33" ry="2.86"/><ellipse class="cls-8" cx="1620.16" cy="372.4" rx="3.33" ry="2.86"/><ellipse class="cls-8" cx="1633.23" cy="372.4" rx="3.33" ry="2.86"/><ellipse class="cls-8" cx="1646.29" cy="372.4" rx="3.33" ry="2.86"/><ellipse class="cls-8" cx="1659.36" cy="372.4" rx="3.33" ry="2.86"/><ellipse class="cls-8" cx="1672.43" cy="372.4" rx="3.33" ry="2.86"/><ellipse class="cls-8" cx="1476.45" cy="380.9" rx="3.33" ry="2.86"/><ellipse class="cls-8" cx="1489.51" cy="380.9" rx="3.33" ry="2.86"/><ellipse class="cls-8" cx="1502.58" cy="380.9" rx="3.33" ry="2.86"/><ellipse class="cls-8" cx="1515.64" cy="380.9" rx="3.33" ry="2.86"/><ellipse class="cls-8" cx="1528.71" cy="380.9" rx="3.33" ry="2.86"/><ellipse class="cls-8" cx="1541.77" cy="380.9" rx="3.33" ry="2.86"/><ellipse class="cls-8" cx="1554.84" cy="380.9" rx="3.33" ry="2.86"/><ellipse class="cls-8" cx="1567.9" cy="380.9" rx="3.33" ry="2.86"/><ellipse class="cls-8" cx="1580.97" cy="380.9" rx="3.33" ry="2.86"/><ellipse class="cls-8" cx="1594.03" cy="380.9" rx="3.33" ry="2.86"/><ellipse class="cls-8" cx="1607.1" cy="380.9" rx="3.33" ry="2.86"/><ellipse class="cls-8" cx="1620.16" cy="380.9" rx="3.33" ry="2.86"/><ellipse class="cls-8" cx="1633.23" cy="380.9" rx="3.33" ry="2.86"/><ellipse class="cls-8" cx="1646.29" cy="380.9" rx="3.33" ry="2.86"/><ellipse class="cls-8" cx="1659.36" cy="380.9" rx="3.33" ry="2.86"/><ellipse class="cls-8" cx="1672.43" cy="380.9" rx="3.33" ry="2.86"/><ellipse class="cls-8" cx="1476.45" cy="389.4" rx="3.33" ry="2.86"/><ellipse class="cls-8" cx="1489.51" cy="389.4" rx="3.33" ry="2.86"/><ellipse class="cls-8" cx="1502.58" cy="389.4" rx="3.33" ry="2.86"/><ellipse class="cls-8" cx="1515.64" cy="389.4" rx="3.33" ry="2.86"/><ellipse class="cls-8" cx="1528.71" cy="389.4" rx="3.33" ry="2.86"/><ellipse class="cls-8" cx="1541.77" cy="389.4" rx="3.33" ry="2.86"/><ellipse class="cls-8" cx="1554.84" cy="389.4" rx="3.33" ry="2.86"/><ellipse class="cls-8" cx="1567.9" cy="389.4" rx="3.33" ry="2.86"/><ellipse class="cls-8" cx="1580.97" cy="389.4" rx="3.33" ry="2.86"/><ellipse class="cls-8" cx="1594.03" cy="389.4" rx="3.33" ry="2.86"/><ellipse class="cls-8" cx="1607.1" cy="389.4" rx="3.33" ry="2.86"/><ellipse class="cls-8" cx="1620.16" cy="389.4" rx="3.33" ry="2.86"/><ellipse class="cls-8" cx="1633.23" cy="389.4" rx="3.33" ry="2.86"/><ellipse class="cls-8" cx="1646.29" cy="389.4" rx="3.33" ry="2.86"/><ellipse class="cls-8" cx="1659.36" cy="389.4" rx="3.33" ry="2.86"/><ellipse class="cls-8" cx="1672.43" cy="389.4" rx="3.33" ry="2.86"/><ellipse class="cls-8" cx="1476.45" cy="397.9" rx="3.33" ry="2.86"/><ellipse class="cls-8" cx="1489.51" cy="397.9" rx="3.33" ry="2.86"/><ellipse class="cls-8" cx="1502.58" cy="397.9" rx="3.33" ry="2.86"/><ellipse class="cls-8" cx="1515.64" cy="397.9" rx="3.33" ry="2.86"/><ellipse class="cls-8" cx="1528.71" cy="397.9" rx="3.33" ry="2.86"/><ellipse class="cls-8" cx="1541.77" cy="397.9" rx="3.33" ry="2.86"/><ellipse class="cls-8" cx="1554.84" cy="397.9" rx="3.33" ry="2.86"/><ellipse class="cls-8" cx="1567.9" cy="397.9" rx="3.33" ry="2.86"/><ellipse class="cls-8" cx="1580.97" cy="397.9" rx="3.33" ry="2.86"/><ellipse class="cls-8" cx="1594.03" cy="397.9" rx="3.33" ry="2.86"/><ellipse class="cls-8" cx="1607.1" cy="397.9" rx="3.33" ry="2.86"/><ellipse class="cls-8" cx="1620.16" cy="397.9" rx="3.33" ry="2.86"/><ellipse class="cls-8" cx="1633.23" cy="397.9" rx="3.33" ry="2.86"/><ellipse class="cls-8" cx="1646.29" cy="397.9" rx="3.33" ry="2.86"/><ellipse class="cls-8" cx="1659.36" cy="397.9" rx="3.33" ry="2.86"/><ellipse class="cls-8" cx="1672.43" cy="397.9" rx="3.33" ry="2.86"/><ellipse class="cls-8" cx="1476.45" cy="406.4" rx="3.33" ry="2.86"/><ellipse class="cls-8" cx="1489.51" cy="406.4" rx="3.33" ry="2.86"/><ellipse class="cls-8" cx="1502.58" cy="406.4" rx="3.33" ry="2.86"/><ellipse class="cls-8" cx="1515.64" cy="406.4" rx="3.33" ry="2.86"/><ellipse class="cls-8" cx="1528.71" cy="406.4" rx="3.33" ry="2.86"/><ellipse class="cls-8" cx="1541.77" cy="406.4" rx="3.33" ry="2.86"/><ellipse class="cls-8" cx="1554.84" cy="406.4" rx="3.33" ry="2.86"/><ellipse class="cls-8" cx="1567.9" cy="406.4" rx="3.33" ry="2.86"/><ellipse class="cls-8" cx="1580.97" cy="406.4" rx="3.33" ry="2.86"/><ellipse class="cls-8" cx="1594.03" cy="406.4" rx="3.33" ry="2.86"/><ellipse class="cls-8" cx="1607.1" cy="406.4" rx="3.33" ry="2.86"/><ellipse class="cls-8" cx="1620.16" cy="406.4" rx="3.33" ry="2.86"/><ellipse class="cls-8" cx="1633.23" cy="406.4" rx="3.33" ry="2.86"/><ellipse class="cls-8" cx="1646.29" cy="406.4" rx="3.33" ry="2.86"/><ellipse class="cls-8" cx="1659.36" cy="406.4" rx="3.33" ry="2.86"/><ellipse class="cls-8" cx="1672.43" cy="406.4" rx="3.33" ry="2.86"/><ellipse class="cls-8" cx="1476.45" cy="414.9" rx="3.33" ry="2.86"/><ellipse class="cls-8" cx="1489.51" cy="414.9" rx="3.33" ry="2.86"/><ellipse class="cls-8" cx="1502.58" cy="414.9" rx="3.33" ry="2.86"/><ellipse class="cls-8" cx="1515.64" cy="414.9" rx="3.33" ry="2.86"/><ellipse class="cls-8" cx="1528.71" cy="414.9" rx="3.33" ry="2.86"/><ellipse class="cls-8" cx="1541.77" cy="414.9" rx="3.33" ry="2.86"/><ellipse class="cls-8" cx="1554.84" cy="414.9" rx="3.33" ry="2.86"/><ellipse class="cls-8" cx="1567.9" cy="414.9" rx="3.33" ry="2.86"/><ellipse class="cls-8" cx="1580.97" cy="414.9" rx="3.33" ry="2.86"/><ellipse class="cls-8" cx="1594.03" cy="414.9" rx="3.33" ry="2.86"/><ellipse class="cls-8" cx="1607.1" cy="414.9" rx="3.33" ry="2.86"/><ellipse class="cls-8" cx="1620.16" cy="414.9" rx="3.33" ry="2.86"/><ellipse class="cls-8" cx="1633.23" cy="414.9" rx="3.33" ry="2.86"/><ellipse class="cls-8" cx="1646.29" cy="414.9" rx="3.33" ry="2.86"/><ellipse class="cls-8" cx="1659.36" cy="414.9" rx="3.33" ry="2.86"/><ellipse class="cls-8" cx="1672.43" cy="414.9" rx="3.33" ry="2.86"/><ellipse class="cls-8" cx="1476.45" cy="423.4" rx="3.33" ry="2.86"/><ellipse class="cls-8" cx="1489.51" cy="423.4" rx="3.33" ry="2.86"/><ellipse class="cls-8" cx="1502.58" cy="423.4" rx="3.33" ry="2.86"/><ellipse class="cls-8" cx="1515.64" cy="423.4" rx="3.33" ry="2.86"/><ellipse class="cls-8" cx="1528.71" cy="423.4" rx="3.33" ry="2.86"/><ellipse class="cls-8" cx="1541.77" cy="423.4" rx="3.33" ry="2.86"/><ellipse class="cls-8" cx="1554.84" cy="423.4" rx="3.33" ry="2.86"/><ellipse class="cls-8" cx="1567.9" cy="423.4" rx="3.33" ry="2.86"/><ellipse class="cls-8" cx="1580.97" cy="423.4" rx="3.33" ry="2.86"/><ellipse class="cls-8" cx="1594.03" cy="423.4" rx="3.33" ry="2.86"/><ellipse class="cls-8" cx="1607.1" cy="423.4" rx="3.33" ry="2.86"/><ellipse class="cls-8" cx="1620.16" cy="423.4" rx="3.33" ry="2.86"/><ellipse class="cls-8" cx="1633.23" cy="423.4" rx="3.33" ry="2.86"/><ellipse class="cls-8" cx="1646.29" cy="423.4" rx="3.33" ry="2.86"/><ellipse class="cls-8" cx="1659.36" cy="423.4" rx="3.33" ry="2.86"/><ellipse class="cls-8" cx="1672.43" cy="423.4" rx="3.33" ry="2.86"/><ellipse class="cls-8" cx="1476.45" cy="431.9" rx="3.33" ry="2.86"/><ellipse class="cls-8" cx="1489.51" cy="431.9" rx="3.33" ry="2.86"/><ellipse class="cls-8" cx="1502.58" cy="431.9" rx="3.33" ry="2.86"/><ellipse class="cls-8" cx="1515.64" cy="431.9" rx="3.33" ry="2.86"/><ellipse class="cls-8" cx="1528.71" cy="431.9" rx="3.33" ry="2.86"/><ellipse class="cls-8" cx="1541.77" cy="431.9" rx="3.33" ry="2.86"/><ellipse class="cls-8" cx="1554.84" cy="431.9" rx="3.33" ry="2.86"/><ellipse class="cls-8" cx="1567.9" cy="431.9" rx="3.33" ry="2.86"/><ellipse class="cls-8" cx="1580.97" cy="431.9" rx="3.33" ry="2.86"/><ellipse class="cls-8" cx="1594.03" cy="431.9" rx="3.33" ry="2.86"/><ellipse class="cls-8" cx="1607.1" cy="431.9" rx="3.33" ry="2.86"/><ellipse class="cls-8" cx="1620.16" cy="431.9" rx="3.33" ry="2.86"/><ellipse class="cls-8" cx="1633.23" cy="431.9" rx="3.33" ry="2.86"/><ellipse class="cls-8" cx="1646.29" cy="431.9" rx="3.33" ry="2.86"/><ellipse class="cls-8" cx="1659.36" cy="431.9" rx="3.33" ry="2.86"/><ellipse class="cls-8" cx="1672.43" cy="431.9" rx="3.33" ry="2.86"/><ellipse class="cls-8" cx="1476.45" cy="440.4" rx="3.33" ry="2.86"/><ellipse class="cls-8" cx="1489.51" cy="440.4" rx="3.33" ry="2.86"/><ellipse class="cls-8" cx="1502.58" cy="440.4" rx="3.33" ry="2.86"/><ellipse class="cls-8" cx="1515.64" cy="440.4" rx="3.33" ry="2.86"/><ellipse class="cls-8" cx="1528.71" cy="440.4" rx="3.33" ry="2.86"/><ellipse class="cls-8" cx="1541.77" cy="440.4" rx="3.33" ry="2.86"/><ellipse class="cls-8" cx="1554.84" cy="440.4" rx="3.33" ry="2.86"/><ellipse class="cls-8" cx="1567.9" cy="440.4" rx="3.33" ry="2.86"/><ellipse class="cls-8" cx="1580.97" cy="440.4" rx="3.33" ry="2.86"/><ellipse class="cls-8" cx="1594.03" cy="440.4" rx="3.33" ry="2.86"/><ellipse class="cls-8" cx="1607.1" cy="440.4" rx="3.33" ry="2.86"/><ellipse class="cls-8" cx="1620.16" cy="440.4" rx="3.33" ry="2.86"/><ellipse class="cls-8" cx="1633.23" cy="440.4" rx="3.33" ry="2.86"/><ellipse class="cls-8" cx="1646.29" cy="440.4" rx="3.33" ry="2.86"/><ellipse class="cls-8" cx="1659.36" cy="440.4" rx="3.33" ry="2.86"/><ellipse class="cls-8" cx="1672.43" cy="440.4" rx="3.33" ry="2.86"/><ellipse class="cls-8" cx="1476.45" cy="448.9" rx="3.33" ry="2.86"/><ellipse class="cls-8" cx="1489.51" cy="448.9" rx="3.33" ry="2.86"/><ellipse class="cls-8" cx="1502.58" cy="448.9" rx="3.33" ry="2.86"/><ellipse class="cls-8" cx="1515.64" cy="448.9" rx="3.33" ry="2.86"/><ellipse class="cls-8" cx="1528.71" cy="448.9" rx="3.33" ry="2.86"/><ellipse class="cls-8" cx="1541.77" cy="448.9" rx="3.33" ry="2.86"/><ellipse class="cls-8" cx="1554.84" cy="448.9" rx="3.33" ry="2.86"/><ellipse class="cls-8" cx="1567.9" cy="448.9" rx="3.33" ry="2.86"/><ellipse class="cls-8" cx="1580.97" cy="448.9" rx="3.33" ry="2.86"/><ellipse class="cls-8" cx="1594.03" cy="448.9" rx="3.33" ry="2.86"/><ellipse class="cls-8" cx="1607.1" cy="448.9" rx="3.33" ry="2.86"/><ellipse class="cls-8" cx="1620.16" cy="448.9" rx="3.33" ry="2.86"/><ellipse class="cls-8" cx="1633.23" cy="448.9" rx="3.33" ry="2.86"/><ellipse class="cls-8" cx="1646.29" cy="448.9" rx="3.33" ry="2.86"/><ellipse class="cls-8" cx="1659.36" cy="448.9" rx="3.33" ry="2.86"/><ellipse class="cls-8" cx="1672.43" cy="448.9" rx="3.33" ry="2.86"/><ellipse class="cls-8" cx="1476.45" cy="457.4" rx="3.33" ry="2.86"/><ellipse class="cls-8" cx="1489.51" cy="457.4" rx="3.33" ry="2.86"/><ellipse class="cls-8" cx="1502.58" cy="457.4" rx="3.33" ry="2.86"/><ellipse class="cls-8" cx="1515.64" cy="457.4" rx="3.33" ry="2.86"/><ellipse class="cls-8" cx="1528.71" cy="457.4" rx="3.33" ry="2.86"/><ellipse class="cls-8" cx="1541.77" cy="457.4" rx="3.33" ry="2.86"/><ellipse class="cls-8" cx="1554.84" cy="457.4" rx="3.33" ry="2.86"/><ellipse class="cls-8" cx="1567.9" cy="457.4" rx="3.33" ry="2.86"/><ellipse class="cls-8" cx="1580.97" cy="457.4" rx="3.33" ry="2.86"/><ellipse class="cls-8" cx="1594.03" cy="457.4" rx="3.33" ry="2.86"/><ellipse class="cls-8" cx="1607.1" cy="457.4" rx="3.33" ry="2.86"/><ellipse class="cls-8" cx="1620.16" cy="457.4" rx="3.33" ry="2.86"/><ellipse class="cls-8" cx="1633.23" cy="457.4" rx="3.33" ry="2.86"/><ellipse class="cls-8" cx="1646.29" cy="457.4" rx="3.33" ry="2.86"/><ellipse class="cls-8" cx="1659.36" cy="457.4" rx="3.33" ry="2.86"/><ellipse class="cls-8" cx="1672.43" cy="457.4" rx="3.33" ry="2.86"/><ellipse class="cls-8" cx="1476.45" cy="465.9" rx="3.33" ry="2.86"/><ellipse class="cls-8" cx="1489.51" cy="465.9" rx="3.33" ry="2.86"/><ellipse class="cls-8" cx="1502.58" cy="465.9" rx="3.33" ry="2.86"/><ellipse class="cls-8" cx="1515.64" cy="465.9" rx="3.33" ry="2.86"/><ellipse class="cls-8" cx="1528.71" cy="465.9" rx="3.33" ry="2.86"/><ellipse class="cls-8" cx="1541.77" cy="465.9" rx="3.33" ry="2.86"/><ellipse class="cls-8" cx="1554.84" cy="465.9" rx="3.33" ry="2.86"/><ellipse class="cls-8" cx="1567.9" cy="465.9" rx="3.33" ry="2.86"/><ellipse class="cls-8" cx="1580.97" cy="465.9" rx="3.33" ry="2.86"/><ellipse class="cls-8" cx="1594.03" cy="465.9" rx="3.33" ry="2.86"/><ellipse class="cls-8" cx="1607.1" cy="465.9" rx="3.33" ry="2.86"/><ellipse class="cls-8" cx="1620.16" cy="465.9" rx="3.33" ry="2.86"/><ellipse class="cls-8" cx="1633.23" cy="465.9" rx="3.33" ry="2.86"/><ellipse class="cls-8" cx="1646.29" cy="465.9" rx="3.33" ry="2.86"/><ellipse class="cls-8" cx="1659.36" cy="465.9" rx="3.33" ry="2.86"/><ellipse class="cls-8" cx="1672.43" cy="465.9" rx="3.33" ry="2.86"/><ellipse class="cls-8" cx="1476.45" cy="474.4" rx="3.33" ry="2.86"/><ellipse class="cls-8" cx="1489.51" cy="474.4" rx="3.33" ry="2.86"/><ellipse class="cls-8" cx="1502.58" cy="474.4" rx="3.33" ry="2.86"/><ellipse class="cls-8" cx="1515.64" cy="474.4" rx="3.33" ry="2.86"/><ellipse class="cls-8" cx="1528.71" cy="474.4" rx="3.33" ry="2.86"/><ellipse class="cls-8" cx="1541.77" cy="474.4" rx="3.33" ry="2.86"/><ellipse class="cls-8" cx="1554.84" cy="474.4" rx="3.33" ry="2.86"/><ellipse class="cls-8" cx="1567.9" cy="474.4" rx="3.33" ry="2.86"/><ellipse class="cls-8" cx="1580.97" cy="474.4" rx="3.33" ry="2.86"/><ellipse class="cls-8" cx="1594.03" cy="474.4" rx="3.33" ry="2.86"/><ellipse class="cls-8" cx="1607.1" cy="474.4" rx="3.33" ry="2.86"/><ellipse class="cls-8" cx="1620.16" cy="474.4" rx="3.33" ry="2.86"/><ellipse class="cls-8" cx="1633.23" cy="474.4" rx="3.33" ry="2.86"/><ellipse class="cls-8" cx="1646.29" cy="474.4" rx="3.33" ry="2.86"/><ellipse class="cls-8" cx="1659.36" cy="474.4" rx="3.33" ry="2.86"/><ellipse class="cls-8" cx="1672.43" cy="474.4" rx="3.33" ry="2.86"/><ellipse class="cls-8" cx="1476.45" cy="482.9" rx="3.33" ry="2.86"/><ellipse class="cls-8" cx="1489.51" cy="482.9" rx="3.33" ry="2.86"/><ellipse class="cls-8" cx="1502.58" cy="482.9" rx="3.33" ry="2.86"/><ellipse class="cls-8" cx="1515.64" cy="482.9" rx="3.33" ry="2.86"/><ellipse class="cls-8" cx="1528.71" cy="482.9" rx="3.33" ry="2.86"/><ellipse class="cls-8" cx="1541.77" cy="482.9" rx="3.33" ry="2.86"/><ellipse class="cls-8" cx="1554.84" cy="482.9" rx="3.33" ry="2.86"/><ellipse class="cls-8" cx="1567.9" cy="482.9" rx="3.33" ry="2.86"/><ellipse class="cls-8" cx="1580.97" cy="482.9" rx="3.33" ry="2.86"/><ellipse class="cls-8" cx="1594.03" cy="482.9" rx="3.33" ry="2.86"/><ellipse class="cls-8" cx="1607.1" cy="482.9" rx="3.33" ry="2.86"/><ellipse class="cls-8" cx="1620.16" cy="482.9" rx="3.33" ry="2.86"/><ellipse class="cls-8" cx="1633.23" cy="482.9" rx="3.33" ry="2.86"/><ellipse class="cls-8" cx="1646.29" cy="482.9" rx="3.33" ry="2.86"/><ellipse class="cls-8" cx="1659.36" cy="482.9" rx="3.33" ry="2.86"/><ellipse class="cls-8" cx="1672.43" cy="482.9" rx="3.33" ry="2.86"/><ellipse class="cls-8" cx="1476.45" cy="491.4" rx="3.33" ry="2.86"/><ellipse class="cls-8" cx="1489.51" cy="491.4" rx="3.33" ry="2.86"/><ellipse class="cls-8" cx="1502.58" cy="491.4" rx="3.33" ry="2.86"/><ellipse class="cls-8" cx="1515.64" cy="491.4" rx="3.33" ry="2.86"/><ellipse class="cls-8" cx="1528.71" cy="491.4" rx="3.33" ry="2.86"/><ellipse class="cls-8" cx="1541.77" cy="491.4" rx="3.33" ry="2.86"/><ellipse class="cls-8" cx="1554.84" cy="491.4" rx="3.33" ry="2.86"/><ellipse class="cls-8" cx="1567.9" cy="491.4" rx="3.33" ry="2.86"/><ellipse class="cls-8" cx="1580.97" cy="491.4" rx="3.33" ry="2.86"/><ellipse class="cls-8" cx="1594.03" cy="491.4" rx="3.33" ry="2.86"/><ellipse class="cls-8" cx="1607.1" cy="491.4" rx="3.33" ry="2.86"/><ellipse class="cls-8" cx="1620.16" cy="491.4" rx="3.33" ry="2.86"/><ellipse class="cls-8" cx="1633.23" cy="491.4" rx="3.33" ry="2.86"/><ellipse class="cls-8" cx="1646.29" cy="491.4" rx="3.33" ry="2.86"/><ellipse class="cls-8" cx="1659.36" cy="491.4" rx="3.33" ry="2.86"/><ellipse class="cls-8" cx="1672.43" cy="491.4" rx="3.33" ry="2.86"/><ellipse class="cls-8" cx="1476.45" cy="499.9" rx="3.33" ry="2.86"/><ellipse class="cls-8" cx="1489.51" cy="499.9" rx="3.33" ry="2.86"/><ellipse class="cls-8" cx="1502.58" cy="499.9" rx="3.33" ry="2.86"/><ellipse class="cls-8" cx="1515.64" cy="499.9" rx="3.33" ry="2.86"/><ellipse class="cls-8" cx="1528.71" cy="499.9" rx="3.33" ry="2.86"/><ellipse class="cls-8" cx="1541.77" cy="499.9" rx="3.33" ry="2.86"/><ellipse class="cls-8" cx="1554.84" cy="499.9" rx="3.33" ry="2.86"/><ellipse class="cls-8" cx="1567.9" cy="499.9" rx="3.33" ry="2.86"/><ellipse class="cls-8" cx="1580.97" cy="499.9" rx="3.33" ry="2.86"/><ellipse class="cls-8" cx="1594.03" cy="499.9" rx="3.33" ry="2.86"/><ellipse class="cls-8" cx="1607.1" cy="499.9" rx="3.33" ry="2.86"/><ellipse class="cls-8" cx="1620.16" cy="499.9" rx="3.33" ry="2.86"/><ellipse class="cls-8" cx="1633.23" cy="499.9" rx="3.33" ry="2.86"/><ellipse class="cls-8" cx="1646.29" cy="499.9" rx="3.33" ry="2.86"/><ellipse class="cls-8" cx="1659.36" cy="499.9" rx="3.33" ry="2.86"/><ellipse class="cls-8" cx="1672.43" cy="499.9" rx="3.33" ry="2.86"/><ellipse class="cls-8" cx="1476.45" cy="508.4" rx="3.33" ry="2.86"/><ellipse class="cls-8" cx="1489.51" cy="508.4" rx="3.33" ry="2.86"/><ellipse class="cls-8" cx="1502.58" cy="508.4" rx="3.33" ry="2.86"/><ellipse class="cls-8" cx="1515.64" cy="508.4" rx="3.33" ry="2.86"/><ellipse class="cls-8" cx="1528.71" cy="508.4" rx="3.33" ry="2.86"/><ellipse class="cls-8" cx="1541.77" cy="508.4" rx="3.33" ry="2.86"/><ellipse class="cls-8" cx="1554.84" cy="508.4" rx="3.33" ry="2.86"/><ellipse class="cls-8" cx="1567.9" cy="508.4" rx="3.33" ry="2.86"/><ellipse class="cls-8" cx="1580.97" cy="508.4" rx="3.33" ry="2.86"/><ellipse class="cls-8" cx="1594.03" cy="508.4" rx="3.33" ry="2.86"/><ellipse class="cls-8" cx="1607.1" cy="508.4" rx="3.33" ry="2.86"/><ellipse class="cls-8" cx="1620.16" cy="508.4" rx="3.33" ry="2.86"/><ellipse class="cls-8" cx="1633.23" cy="508.4" rx="3.33" ry="2.86"/><ellipse class="cls-8" cx="1646.29" cy="508.4" rx="3.33" ry="2.86"/><ellipse class="cls-8" cx="1659.36" cy="508.4" rx="3.33" ry="2.86"/><ellipse class="cls-8" cx="1672.43" cy="508.4" rx="3.33" ry="2.86"/><ellipse class="cls-8" cx="1476.45" cy="516.9" rx="3.33" ry="2.86"/><ellipse class="cls-8" cx="1489.51" cy="516.9" rx="3.33" ry="2.86"/><ellipse class="cls-8" cx="1502.58" cy="516.9" rx="3.33" ry="2.86"/><ellipse class="cls-8" cx="1515.64" cy="516.9" rx="3.33" ry="2.86"/><ellipse class="cls-8" cx="1528.71" cy="516.9" rx="3.33" ry="2.86"/><ellipse class="cls-8" cx="1541.77" cy="516.9" rx="3.33" ry="2.86"/><ellipse class="cls-8" cx="1554.84" cy="516.9" rx="3.33" ry="2.86"/><ellipse class="cls-8" cx="1567.9" cy="516.9" rx="3.33" ry="2.86"/><ellipse class="cls-8" cx="1580.97" cy="516.9" rx="3.33" ry="2.86"/><ellipse class="cls-8" cx="1594.03" cy="516.9" rx="3.33" ry="2.86"/><ellipse class="cls-8" cx="1607.1" cy="516.9" rx="3.33" ry="2.86"/><ellipse class="cls-8" cx="1620.16" cy="516.9" rx="3.33" ry="2.86"/><ellipse class="cls-8" cx="1633.23" cy="516.9" rx="3.33" ry="2.86"/><ellipse class="cls-8" cx="1646.29" cy="516.9" rx="3.33" ry="2.86"/><ellipse class="cls-8" cx="1659.36" cy="516.9" rx="3.33" ry="2.86"/><ellipse class="cls-8" cx="1672.43" cy="516.9" rx="3.33" ry="2.86"/><ellipse class="cls-8" cx="1476.45" cy="525.4" rx="3.33" ry="2.86"/><ellipse class="cls-8" cx="1489.51" cy="525.4" rx="3.33" ry="2.86"/><ellipse class="cls-8" cx="1502.58" cy="525.4" rx="3.33" ry="2.86"/><ellipse class="cls-8" cx="1515.64" cy="525.4" rx="3.33" ry="2.86"/><ellipse class="cls-8" cx="1528.71" cy="525.4" rx="3.33" ry="2.86"/><ellipse class="cls-8" cx="1541.77" cy="525.4" rx="3.33" ry="2.86"/><ellipse class="cls-8" cx="1554.84" cy="525.4" rx="3.33" ry="2.86"/><ellipse class="cls-8" cx="1567.9" cy="525.4" rx="3.33" ry="2.86"/><ellipse class="cls-8" cx="1580.97" cy="525.4" rx="3.33" ry="2.86"/><ellipse class="cls-8" cx="1594.03" cy="525.4" rx="3.33" ry="2.86"/><ellipse class="cls-8" cx="1607.1" cy="525.4" rx="3.33" ry="2.86"/><ellipse class="cls-8" cx="1620.16" cy="525.4" rx="3.33" ry="2.86"/><ellipse class="cls-8" cx="1633.23" cy="525.4" rx="3.33" ry="2.86"/><ellipse class="cls-8" cx="1646.29" cy="525.4" rx="3.33" ry="2.86"/><ellipse class="cls-8" cx="1659.36" cy="525.4" rx="3.33" ry="2.86"/><ellipse class="cls-8" cx="1672.43" cy="525.4" rx="3.33" ry="2.86"/><ellipse class="cls-8" cx="1476.45" cy="533.9" rx="3.33" ry="2.86"/><ellipse class="cls-8" cx="1489.51" cy="533.9" rx="3.33" ry="2.86"/><ellipse class="cls-8" cx="1502.58" cy="533.9" rx="3.33" ry="2.86"/><ellipse class="cls-8" cx="1515.64" cy="533.9" rx="3.33" ry="2.86"/><ellipse class="cls-8" cx="1528.71" cy="533.9" rx="3.33" ry="2.86"/><ellipse class="cls-8" cx="1541.77" cy="533.9" rx="3.33" ry="2.86"/><ellipse class="cls-8" cx="1554.84" cy="533.9" rx="3.33" ry="2.86"/><ellipse class="cls-8" cx="1567.9" cy="533.9" rx="3.33" ry="2.86"/><ellipse class="cls-8" cx="1580.97" cy="533.9" rx="3.33" ry="2.86"/><ellipse class="cls-8" cx="1594.03" cy="533.9" rx="3.33" ry="2.86"/><ellipse class="cls-8" cx="1607.1" cy="533.9" rx="3.33" ry="2.86"/><ellipse class="cls-8" cx="1620.16" cy="533.9" rx="3.33" ry="2.86"/><ellipse class="cls-8" cx="1633.23" cy="533.9" rx="3.33" ry="2.86"/><ellipse class="cls-8" cx="1646.29" cy="533.9" rx="3.33" ry="2.86"/><ellipse class="cls-8" cx="1659.36" cy="533.9" rx="3.33" ry="2.86"/><ellipse class="cls-8" cx="1672.43" cy="533.9" rx="3.33" ry="2.86"/><ellipse class="cls-8" cx="1476.45" cy="542.4" rx="3.33" ry="2.86"/><ellipse class="cls-8" cx="1489.51" cy="542.4" rx="3.33" ry="2.86"/><ellipse class="cls-8" cx="1502.58" cy="542.4" rx="3.33" ry="2.86"/><ellipse class="cls-8" cx="1515.64" cy="542.4" rx="3.33" ry="2.86"/><ellipse class="cls-8" cx="1528.71" cy="542.4" rx="3.33" ry="2.86"/><ellipse class="cls-8" cx="1541.77" cy="542.4" rx="3.33" ry="2.86"/><ellipse class="cls-8" cx="1554.84" cy="542.4" rx="3.33" ry="2.86"/><ellipse class="cls-8" cx="1567.9" cy="542.4" rx="3.33" ry="2.86"/><ellipse class="cls-8" cx="1580.97" cy="542.4" rx="3.33" ry="2.86"/><ellipse class="cls-8" cx="1594.03" cy="542.4" rx="3.33" ry="2.86"/><ellipse class="cls-8" cx="1607.1" cy="542.4" rx="3.33" ry="2.86"/><ellipse class="cls-8" cx="1620.16" cy="542.4" rx="3.33" ry="2.86"/><ellipse class="cls-8" cx="1633.23" cy="542.4" rx="3.33" ry="2.86"/><ellipse class="cls-8" cx="1646.29" cy="542.4" rx="3.33" ry="2.86"/><ellipse class="cls-8" cx="1659.36" cy="542.4" rx="3.33" ry="2.86"/><ellipse class="cls-8" cx="1672.43" cy="542.4" rx="3.33" ry="2.86"/><ellipse class="cls-8" cx="1476.45" cy="550.9" rx="3.33" ry="2.86"/><ellipse class="cls-8" cx="1489.51" cy="550.9" rx="3.33" ry="2.86"/><ellipse class="cls-8" cx="1502.58" cy="550.9" rx="3.33" ry="2.86"/><ellipse class="cls-8" cx="1515.64" cy="550.9" rx="3.33" ry="2.86"/><ellipse class="cls-8" cx="1528.71" cy="550.9" rx="3.33" ry="2.86"/><ellipse class="cls-8" cx="1541.77" cy="550.9" rx="3.33" ry="2.86"/><ellipse class="cls-8" cx="1554.84" cy="550.9" rx="3.33" ry="2.86"/><ellipse class="cls-8" cx="1567.9" cy="550.9" rx="3.33" ry="2.86"/><ellipse class="cls-8" cx="1580.97" cy="550.9" rx="3.33" ry="2.86"/><ellipse class="cls-8" cx="1594.03" cy="550.9" rx="3.33" ry="2.86"/><ellipse class="cls-8" cx="1607.1" cy="550.9" rx="3.33" ry="2.86"/><ellipse class="cls-8" cx="1620.16" cy="550.9" rx="3.33" ry="2.86"/><ellipse class="cls-8" cx="1633.23" cy="550.9" rx="3.33" ry="2.86"/><ellipse class="cls-8" cx="1646.29" cy="550.9" rx="3.33" ry="2.86"/><ellipse class="cls-8" cx="1659.36" cy="550.9" rx="3.33" ry="2.86"/><ellipse class="cls-8" cx="1672.43" cy="550.9" rx="3.33" ry="2.86"/><ellipse class="cls-8" cx="1476.45" cy="559.4" rx="3.33" ry="2.86"/><ellipse class="cls-8" cx="1489.51" cy="559.4" rx="3.33" ry="2.86"/><ellipse class="cls-8" cx="1502.58" cy="559.4" rx="3.33" ry="2.86"/><ellipse class="cls-8" cx="1515.64" cy="559.4" rx="3.33" ry="2.86"/><ellipse class="cls-8" cx="1528.71" cy="559.4" rx="3.33" ry="2.86"/><ellipse class="cls-8" cx="1541.77" cy="559.4" rx="3.33" ry="2.86"/><ellipse class="cls-8" cx="1554.84" cy="559.4" rx="3.33" ry="2.86"/><ellipse class="cls-8" cx="1567.9" cy="559.4" rx="3.33" ry="2.86"/><ellipse class="cls-8" cx="1580.97" cy="559.4" rx="3.33" ry="2.86"/><ellipse class="cls-8" cx="1594.03" cy="559.4" rx="3.33" ry="2.86"/><ellipse class="cls-8" cx="1607.1" cy="559.4" rx="3.33" ry="2.86"/><ellipse class="cls-8" cx="1620.16" cy="559.4" rx="3.33" ry="2.86"/><ellipse class="cls-8" cx="1633.23" cy="559.4" rx="3.33" ry="2.86"/><ellipse class="cls-8" cx="1646.29" cy="559.4" rx="3.33" ry="2.86"/><ellipse class="cls-8" cx="1659.36" cy="559.4" rx="3.33" ry="2.86"/><ellipse class="cls-8" cx="1672.43" cy="559.4" rx="3.33" ry="2.86"/><ellipse class="cls-8" cx="1476.45" cy="567.9" rx="3.33" ry="2.86"/><ellipse class="cls-8" cx="1489.51" cy="567.9" rx="3.33" ry="2.86"/><ellipse class="cls-8" cx="1502.58" cy="567.9" rx="3.33" ry="2.86"/><ellipse class="cls-8" cx="1515.64" cy="567.9" rx="3.33" ry="2.86"/><ellipse class="cls-8" cx="1528.71" cy="567.9" rx="3.33" ry="2.86"/><ellipse class="cls-8" cx="1541.77" cy="567.9" rx="3.33" ry="2.86"/><ellipse class="cls-8" cx="1554.84" cy="567.9" rx="3.33" ry="2.86"/><ellipse class="cls-8" cx="1567.9" cy="567.9" rx="3.33" ry="2.86"/><ellipse class="cls-8" cx="1580.97" cy="567.9" rx="3.33" ry="2.86"/><ellipse class="cls-8" cx="1594.03" cy="567.9" rx="3.33" ry="2.86"/><ellipse class="cls-8" cx="1607.1" cy="567.9" rx="3.33" ry="2.86"/><ellipse class="cls-8" cx="1620.16" cy="567.9" rx="3.33" ry="2.86"/><ellipse class="cls-8" cx="1633.23" cy="567.9" rx="3.33" ry="2.86"/><ellipse class="cls-8" cx="1646.29" cy="567.9" rx="3.33" ry="2.86"/><ellipse class="cls-8" cx="1659.36" cy="567.9" rx="3.33" ry="2.86"/><ellipse class="cls-8" cx="1672.43" cy="567.9" rx="3.33" ry="2.86"/><ellipse class="cls-8" cx="1476.45" cy="576.4" rx="3.33" ry="2.86"/><ellipse class="cls-8" cx="1489.51" cy="576.4" rx="3.33" ry="2.86"/><ellipse class="cls-8" cx="1502.58" cy="576.4" rx="3.33" ry="2.86"/><ellipse class="cls-8" cx="1515.64" cy="576.4" rx="3.33" ry="2.86"/><ellipse class="cls-8" cx="1528.71" cy="576.4" rx="3.33" ry="2.86"/><ellipse class="cls-8" cx="1541.77" cy="576.4" rx="3.33" ry="2.86"/><ellipse class="cls-8" cx="1554.84" cy="576.4" rx="3.33" ry="2.86"/><ellipse class="cls-8" cx="1567.9" cy="576.4" rx="3.33" ry="2.86"/><ellipse class="cls-8" cx="1580.97" cy="576.4" rx="3.33" ry="2.86"/><ellipse class="cls-8" cx="1594.03" cy="576.4" rx="3.33" ry="2.86"/><ellipse class="cls-8" cx="1607.1" cy="576.4" rx="3.33" ry="2.86"/><ellipse class="cls-8" cx="1620.16" cy="576.4" rx="3.33" ry="2.86"/><ellipse class="cls-8" cx="1633.23" cy="576.4" rx="3.33" ry="2.86"/><ellipse class="cls-8" cx="1646.29" cy="576.4" rx="3.33" ry="2.86"/><ellipse class="cls-8" cx="1659.36" cy="576.4" rx="3.33" ry="2.86"/><ellipse class="cls-8" cx="1672.43" cy="576.4" rx="3.33" ry="2.86"/><ellipse class="cls-8" cx="1476.45" cy="584.9" rx="3.33" ry="2.86"/><ellipse class="cls-8" cx="1489.51" cy="584.9" rx="3.33" ry="2.86"/><ellipse class="cls-8" cx="1502.58" cy="584.9" rx="3.33" ry="2.86"/><ellipse class="cls-8" cx="1515.64" cy="584.9" rx="3.33" ry="2.86"/><ellipse class="cls-8" cx="1528.71" cy="584.9" rx="3.33" ry="2.86"/><ellipse class="cls-8" cx="1541.77" cy="584.9" rx="3.33" ry="2.86"/><ellipse class="cls-8" cx="1554.84" cy="584.9" rx="3.33" ry="2.86"/><ellipse class="cls-8" cx="1567.9" cy="584.9" rx="3.33" ry="2.86"/><ellipse class="cls-8" cx="1580.97" cy="584.9" rx="3.33" ry="2.86"/><ellipse class="cls-8" cx="1594.03" cy="584.9" rx="3.33" ry="2.86"/><ellipse class="cls-8" cx="1607.1" cy="584.9" rx="3.33" ry="2.86"/><ellipse class="cls-8" cx="1620.16" cy="584.9" rx="3.33" ry="2.86"/><ellipse class="cls-8" cx="1633.23" cy="584.9" rx="3.33" ry="2.86"/><ellipse class="cls-8" cx="1646.29" cy="584.9" rx="3.33" ry="2.86"/><ellipse class="cls-8" cx="1659.36" cy="584.9" rx="3.33" ry="2.86"/><ellipse class="cls-8" cx="1672.43" cy="584.9" rx="3.33" ry="2.86"/><ellipse class="cls-8" cx="1476.45" cy="593.4" rx="3.33" ry="2.86"/><ellipse class="cls-8" cx="1489.51" cy="593.4" rx="3.33" ry="2.86"/><ellipse class="cls-8" cx="1502.58" cy="593.4" rx="3.33" ry="2.86"/><ellipse class="cls-8" cx="1515.64" cy="593.4" rx="3.33" ry="2.86"/><ellipse class="cls-8" cx="1528.71" cy="593.4" rx="3.33" ry="2.86"/><ellipse class="cls-8" cx="1541.77" cy="593.4" rx="3.33" ry="2.86"/><ellipse class="cls-8" cx="1554.84" cy="593.4" rx="3.33" ry="2.86"/><ellipse class="cls-8" cx="1567.9" cy="593.4" rx="3.33" ry="2.86"/><ellipse class="cls-8" cx="1580.97" cy="593.4" rx="3.33" ry="2.86"/><ellipse class="cls-8" cx="1594.03" cy="593.4" rx="3.33" ry="2.86"/><ellipse class="cls-8" cx="1607.1" cy="593.4" rx="3.33" ry="2.86"/><ellipse class="cls-8" cx="1620.16" cy="593.4" rx="3.33" ry="2.86"/><ellipse class="cls-8" cx="1633.23" cy="593.4" rx="3.33" ry="2.86"/><ellipse class="cls-8" cx="1646.29" cy="593.4" rx="3.33" ry="2.86"/><ellipse class="cls-8" cx="1659.36" cy="593.4" rx="3.33" ry="2.86"/><ellipse class="cls-8" cx="1672.43" cy="593.4" rx="3.33" ry="2.86"/><ellipse class="cls-8" cx="1476.45" cy="601.89" rx="3.33" ry="2.86"/><ellipse class="cls-8" cx="1489.51" cy="601.89" rx="3.33" ry="2.86"/><ellipse class="cls-8" cx="1502.58" cy="601.89" rx="3.33" ry="2.86"/><ellipse class="cls-8" cx="1515.64" cy="601.89" rx="3.33" ry="2.86"/><ellipse class="cls-8" cx="1528.71" cy="601.89" rx="3.33" ry="2.86"/><ellipse class="cls-8" cx="1541.77" cy="601.89" rx="3.33" ry="2.86"/><ellipse class="cls-8" cx="1554.84" cy="601.89" rx="3.33" ry="2.86"/><ellipse class="cls-8" cx="1567.9" cy="601.89" rx="3.33" ry="2.86"/><ellipse class="cls-8" cx="1580.97" cy="601.89" rx="3.33" ry="2.86"/><ellipse class="cls-8" cx="1594.03" cy="601.89" rx="3.33" ry="2.86"/><ellipse class="cls-8" cx="1607.1" cy="601.89" rx="3.33" ry="2.86"/><ellipse class="cls-8" cx="1620.16" cy="601.89" rx="3.33" ry="2.86"/><ellipse class="cls-8" cx="1633.23" cy="601.89" rx="3.33" ry="2.86"/><ellipse class="cls-8" cx="1646.29" cy="601.89" rx="3.33" ry="2.86"/><ellipse class="cls-8" cx="1659.36" cy="601.89" rx="3.33" ry="2.86"/><ellipse class="cls-8" cx="1672.43" cy="601.89" rx="3.33" ry="2.86"/><ellipse class="cls-8" cx="1476.45" cy="610.39" rx="3.33" ry="2.86"/><ellipse class="cls-8" cx="1489.51" cy="610.39" rx="3.33" ry="2.86"/><ellipse class="cls-8" cx="1502.58" cy="610.39" rx="3.33" ry="2.86"/><ellipse class="cls-8" cx="1515.64" cy="610.39" rx="3.33" ry="2.86"/><ellipse class="cls-8" cx="1528.71" cy="610.39" rx="3.33" ry="2.86"/><ellipse class="cls-8" cx="1541.77" cy="610.39" rx="3.33" ry="2.86"/><ellipse class="cls-8" cx="1554.84" cy="610.39" rx="3.33" ry="2.86"/><ellipse class="cls-8" cx="1567.9" cy="610.39" rx="3.33" ry="2.86"/><ellipse class="cls-8" cx="1580.97" cy="610.39" rx="3.33" ry="2.86"/><ellipse class="cls-8" cx="1594.03" cy="610.39" rx="3.33" ry="2.86"/><ellipse class="cls-8" cx="1607.1" cy="610.39" rx="3.33" ry="2.86"/><ellipse class="cls-8" cx="1620.16" cy="610.39" rx="3.33" ry="2.86"/><ellipse class="cls-8" cx="1633.23" cy="610.39" rx="3.33" ry="2.86"/><ellipse class="cls-8" cx="1646.29" cy="610.39" rx="3.33" ry="2.86"/><ellipse class="cls-8" cx="1659.36" cy="610.39" rx="3.33" ry="2.86"/><ellipse class="cls-8" cx="1672.43" cy="610.39" rx="3.33" ry="2.86"/><ellipse class="cls-8" cx="1476.45" cy="618.89" rx="3.33" ry="2.86"/><ellipse class="cls-8" cx="1489.51" cy="618.89" rx="3.33" ry="2.86"/><ellipse class="cls-8" cx="1502.58" cy="618.89" rx="3.33" ry="2.86"/><ellipse class="cls-8" cx="1515.64" cy="618.89" rx="3.33" ry="2.86"/><ellipse class="cls-8" cx="1528.71" cy="618.89" rx="3.33" ry="2.86"/><ellipse class="cls-8" cx="1541.77" cy="618.89" rx="3.33" ry="2.86"/><ellipse class="cls-8" cx="1554.84" cy="618.89" rx="3.33" ry="2.86"/><ellipse class="cls-8" cx="1567.9" cy="618.89" rx="3.33" ry="2.86"/><ellipse class="cls-8" cx="1580.97" cy="618.89" rx="3.33" ry="2.86"/><ellipse class="cls-8" cx="1594.03" cy="618.89" rx="3.33" ry="2.86"/><ellipse class="cls-8" cx="1607.1" cy="618.89" rx="3.33" ry="2.86"/><ellipse class="cls-8" cx="1620.16" cy="618.89" rx="3.33" ry="2.86"/><ellipse class="cls-8" cx="1633.23" cy="618.89" rx="3.33" ry="2.86"/><ellipse class="cls-8" cx="1646.29" cy="618.89" rx="3.33" ry="2.86"/><ellipse class="cls-8" cx="1659.36" cy="618.89" rx="3.33" ry="2.86"/><ellipse class="cls-8" cx="1672.43" cy="618.89" rx="3.33" ry="2.86"/><ellipse class="cls-8" cx="1476.45" cy="627.39" rx="3.33" ry="2.86"/><ellipse class="cls-8" cx="1489.51" cy="627.39" rx="3.33" ry="2.86"/><ellipse class="cls-8" cx="1502.58" cy="627.39" rx="3.33" ry="2.86"/><ellipse class="cls-8" cx="1515.64" cy="627.39" rx="3.33" ry="2.86"/><ellipse class="cls-8" cx="1528.71" cy="627.39" rx="3.33" ry="2.86"/><ellipse class="cls-8" cx="1541.77" cy="627.39" rx="3.33" ry="2.86"/><ellipse class="cls-8" cx="1554.84" cy="627.39" rx="3.33" ry="2.86"/><ellipse class="cls-8" cx="1567.9" cy="627.39" rx="3.33" ry="2.86"/><ellipse class="cls-8" cx="1580.97" cy="627.39" rx="3.33" ry="2.86"/><ellipse class="cls-8" cx="1594.03" cy="627.39" rx="3.33" ry="2.86"/><ellipse class="cls-8" cx="1607.1" cy="627.39" rx="3.33" ry="2.86"/><ellipse class="cls-8" cx="1620.16" cy="627.39" rx="3.33" ry="2.86"/><ellipse class="cls-8" cx="1633.23" cy="627.39" rx="3.33" ry="2.86"/><ellipse class="cls-8" cx="1646.29" cy="627.39" rx="3.33" ry="2.86"/><ellipse class="cls-8" cx="1659.36" cy="627.39" rx="3.33" ry="2.86"/><ellipse class="cls-8" cx="1672.43" cy="627.39" rx="3.33" ry="2.86"/><ellipse class="cls-8" cx="1476.45" cy="635.89" rx="3.33" ry="2.86"/><ellipse class="cls-8" cx="1489.51" cy="635.89" rx="3.33" ry="2.86"/><ellipse class="cls-8" cx="1502.58" cy="635.89" rx="3.33" ry="2.86"/><ellipse class="cls-8" cx="1515.64" cy="635.89" rx="3.33" ry="2.86"/><ellipse class="cls-8" cx="1528.71" cy="635.89" rx="3.33" ry="2.86"/><ellipse class="cls-8" cx="1541.77" cy="635.89" rx="3.33" ry="2.86"/><ellipse class="cls-8" cx="1554.84" cy="635.89" rx="3.33" ry="2.86"/><ellipse class="cls-8" cx="1567.9" cy="635.89" rx="3.33" ry="2.86"/><ellipse class="cls-8" cx="1580.97" cy="635.89" rx="3.33" ry="2.86"/><ellipse class="cls-8" cx="1594.03" cy="635.89" rx="3.33" ry="2.86"/><ellipse class="cls-8" cx="1607.1" cy="635.89" rx="3.33" ry="2.86"/><ellipse class="cls-8" cx="1620.16" cy="635.89" rx="3.33" ry="2.86"/><ellipse class="cls-8" cx="1633.23" cy="635.89" rx="3.33" ry="2.86"/><ellipse class="cls-8" cx="1646.29" cy="635.89" rx="3.33" ry="2.86"/><ellipse class="cls-8" cx="1659.36" cy="635.89" rx="3.33" ry="2.86"/><ellipse class="cls-8" cx="1672.43" cy="635.89" rx="3.33" ry="2.86"/><ellipse class="cls-8" cx="1476.45" cy="644.39" rx="3.33" ry="2.86"/><ellipse class="cls-8" cx="1489.51" cy="644.39" rx="3.33" ry="2.86"/><ellipse class="cls-8" cx="1502.58" cy="644.39" rx="3.33" ry="2.86"/><ellipse class="cls-8" cx="1515.64" cy="644.39" rx="3.33" ry="2.86"/><ellipse class="cls-8" cx="1528.71" cy="644.39" rx="3.33" ry="2.86"/><ellipse class="cls-8" cx="1541.77" cy="644.39" rx="3.33" ry="2.86"/><ellipse class="cls-8" cx="1554.84" cy="644.39" rx="3.33" ry="2.86"/><ellipse class="cls-8" cx="1567.9" cy="644.39" rx="3.33" ry="2.86"/><ellipse class="cls-8" cx="1580.97" cy="644.39" rx="3.33" ry="2.86"/><ellipse class="cls-8" cx="1594.03" cy="644.39" rx="3.33" ry="2.86"/><ellipse class="cls-8" cx="1607.1" cy="644.39" rx="3.33" ry="2.86"/><ellipse class="cls-8" cx="1620.16" cy="644.39" rx="3.33" ry="2.86"/><ellipse class="cls-8" cx="1633.23" cy="644.39" rx="3.33" ry="2.86"/><ellipse class="cls-8" cx="1646.29" cy="644.39" rx="3.33" ry="2.86"/><ellipse class="cls-8" cx="1659.36" cy="644.39" rx="3.33" ry="2.86"/><ellipse class="cls-8" cx="1672.43" cy="644.39" rx="3.33" ry="2.86"/><ellipse class="cls-8" cx="1476.45" cy="652.89" rx="3.33" ry="2.86"/><ellipse class="cls-8" cx="1489.51" cy="652.89" rx="3.33" ry="2.86"/><ellipse class="cls-8" cx="1502.58" cy="652.89" rx="3.33" ry="2.86"/><ellipse class="cls-8" cx="1515.64" cy="652.89" rx="3.33" ry="2.86"/><ellipse class="cls-8" cx="1528.71" cy="652.89" rx="3.33" ry="2.86"/><ellipse class="cls-8" cx="1541.77" cy="652.89" rx="3.33" ry="2.86"/><ellipse class="cls-8" cx="1554.84" cy="652.89" rx="3.33" ry="2.86"/><ellipse class="cls-8" cx="1567.9" cy="652.89" rx="3.33" ry="2.86"/><ellipse class="cls-8" cx="1580.97" cy="652.89" rx="3.33" ry="2.86"/><ellipse class="cls-8" cx="1594.03" cy="652.89" rx="3.33" ry="2.86"/><ellipse class="cls-8" cx="1607.1" cy="652.89" rx="3.33" ry="2.86"/><ellipse class="cls-8" cx="1620.16" cy="652.89" rx="3.33" ry="2.86"/><ellipse class="cls-8" cx="1633.23" cy="652.89" rx="3.33" ry="2.86"/><ellipse class="cls-8" cx="1646.29" cy="652.89" rx="3.33" ry="2.86"/><ellipse class="cls-8" cx="1659.36" cy="652.89" rx="3.33" ry="2.86"/><ellipse class="cls-8" cx="1672.43" cy="652.89" rx="3.33" ry="2.86"/><ellipse class="cls-8" cx="1476.45" cy="661.39" rx="3.33" ry="2.86"/><ellipse class="cls-8" cx="1489.51" cy="661.39" rx="3.33" ry="2.86"/><ellipse class="cls-8" cx="1502.58" cy="661.39" rx="3.33" ry="2.86"/><ellipse class="cls-8" cx="1515.64" cy="661.39" rx="3.33" ry="2.86"/><ellipse class="cls-8" cx="1528.71" cy="661.39" rx="3.33" ry="2.86"/><ellipse class="cls-8" cx="1541.77" cy="661.39" rx="3.33" ry="2.86"/><ellipse class="cls-8" cx="1554.84" cy="661.39" rx="3.33" ry="2.86"/><ellipse class="cls-8" cx="1567.9" cy="661.39" rx="3.33" ry="2.86"/><ellipse class="cls-8" cx="1580.97" cy="661.39" rx="3.33" ry="2.86"/><ellipse class="cls-8" cx="1594.03" cy="661.39" rx="3.33" ry="2.86"/><ellipse class="cls-8" cx="1607.1" cy="661.39" rx="3.33" ry="2.86"/><ellipse class="cls-8" cx="1620.16" cy="661.39" rx="3.33" ry="2.86"/><ellipse class="cls-8" cx="1633.23" cy="661.39" rx="3.33" ry="2.86"/><ellipse class="cls-8" cx="1646.29" cy="661.39" rx="3.33" ry="2.86"/><ellipse class="cls-8" cx="1659.36" cy="661.39" rx="3.33" ry="2.86"/><ellipse class="cls-8" cx="1672.43" cy="661.39" rx="3.33" ry="2.86"/><ellipse class="cls-8" cx="1476.45" cy="669.89" rx="3.33" ry="2.86"/><ellipse class="cls-8" cx="1489.51" cy="669.89" rx="3.33" ry="2.86"/><ellipse class="cls-8" cx="1502.58" cy="669.89" rx="3.33" ry="2.86"/><ellipse class="cls-8" cx="1515.64" cy="669.89" rx="3.33" ry="2.86"/><ellipse class="cls-8" cx="1528.71" cy="669.89" rx="3.33" ry="2.86"/><ellipse class="cls-8" cx="1541.77" cy="669.89" rx="3.33" ry="2.86"/><ellipse class="cls-8" cx="1554.84" cy="669.89" rx="3.33" ry="2.86"/><ellipse class="cls-8" cx="1567.9" cy="669.89" rx="3.33" ry="2.86"/><ellipse class="cls-8" cx="1580.97" cy="669.89" rx="3.33" ry="2.86"/><ellipse class="cls-8" cx="1594.03" cy="669.89" rx="3.33" ry="2.86"/><ellipse class="cls-8" cx="1607.1" cy="669.89" rx="3.33" ry="2.86"/><ellipse class="cls-8" cx="1620.16" cy="669.89" rx="3.33" ry="2.86"/><ellipse class="cls-8" cx="1633.23" cy="669.89" rx="3.33" ry="2.86"/><ellipse class="cls-8" cx="1646.29" cy="669.89" rx="3.33" ry="2.86"/><ellipse class="cls-8" cx="1659.36" cy="669.89" rx="3.33" ry="2.86"/><ellipse class="cls-8" cx="1672.43" cy="669.89" rx="3.33" ry="2.86"/><ellipse class="cls-8" cx="1476.45" cy="678.39" rx="3.33" ry="2.86"/><ellipse class="cls-8" cx="1489.51" cy="678.39" rx="3.33" ry="2.86"/><ellipse class="cls-8" cx="1502.58" cy="678.39" rx="3.33" ry="2.86"/><ellipse class="cls-8" cx="1515.64" cy="678.39" rx="3.33" ry="2.86"/><ellipse class="cls-8" cx="1528.71" cy="678.39" rx="3.33" ry="2.86"/><ellipse class="cls-8" cx="1541.77" cy="678.39" rx="3.33" ry="2.86"/><ellipse class="cls-8" cx="1554.84" cy="678.39" rx="3.33" ry="2.86"/><ellipse class="cls-8" cx="1567.9" cy="678.39" rx="3.33" ry="2.86"/><ellipse class="cls-8" cx="1580.97" cy="678.39" rx="3.33" ry="2.86"/><ellipse class="cls-8" cx="1594.03" cy="678.39" rx="3.33" ry="2.86"/><ellipse class="cls-8" cx="1607.1" cy="678.39" rx="3.33" ry="2.86"/><ellipse class="cls-8" cx="1620.16" cy="678.39" rx="3.33" ry="2.86"/><ellipse class="cls-8" cx="1633.23" cy="678.39" rx="3.33" ry="2.86"/><ellipse class="cls-8" cx="1646.29" cy="678.39" rx="3.33" ry="2.86"/><ellipse class="cls-8" cx="1659.36" cy="678.39" rx="3.33" ry="2.86"/><ellipse class="cls-8" cx="1672.43" cy="678.39" rx="3.33" ry="2.86"/><ellipse class="cls-8" cx="1476.45" cy="686.89" rx="3.33" ry="2.86"/><ellipse class="cls-8" cx="1489.51" cy="686.89" rx="3.33" ry="2.86"/><ellipse class="cls-8" cx="1502.58" cy="686.89" rx="3.33" ry="2.86"/><ellipse class="cls-8" cx="1515.64" cy="686.89" rx="3.33" ry="2.86"/><ellipse class="cls-8" cx="1528.71" cy="686.89" rx="3.33" ry="2.86"/><ellipse class="cls-8" cx="1541.77" cy="686.89" rx="3.33" ry="2.86"/><ellipse class="cls-8" cx="1554.84" cy="686.89" rx="3.33" ry="2.86"/><ellipse class="cls-8" cx="1567.9" cy="686.89" rx="3.33" ry="2.86"/><ellipse class="cls-8" cx="1580.97" cy="686.89" rx="3.33" ry="2.86"/><ellipse class="cls-8" cx="1594.03" cy="686.89" rx="3.33" ry="2.86"/><ellipse class="cls-8" cx="1607.1" cy="686.89" rx="3.33" ry="2.86"/><ellipse class="cls-8" cx="1620.16" cy="686.89" rx="3.33" ry="2.86"/><ellipse class="cls-8" cx="1633.23" cy="686.89" rx="3.33" ry="2.86"/><ellipse class="cls-8" cx="1646.29" cy="686.89" rx="3.33" ry="2.86"/><ellipse class="cls-8" cx="1659.36" cy="686.89" rx="3.33" ry="2.86"/><ellipse class="cls-8" cx="1672.43" cy="686.89" rx="3.33" ry="2.86"/><ellipse class="cls-8" cx="1476.45" cy="695.39" rx="3.33" ry="2.86"/><ellipse class="cls-8" cx="1489.51" cy="695.39" rx="3.33" ry="2.86"/><ellipse class="cls-8" cx="1502.58" cy="695.39" rx="3.33" ry="2.86"/><ellipse class="cls-8" cx="1515.64" cy="695.39" rx="3.33" ry="2.86"/><ellipse class="cls-8" cx="1528.71" cy="695.39" rx="3.33" ry="2.86"/><ellipse class="cls-8" cx="1541.77" cy="695.39" rx="3.33" ry="2.86"/><ellipse class="cls-8" cx="1554.84" cy="695.39" rx="3.33" ry="2.86"/><ellipse class="cls-8" cx="1567.9" cy="695.39" rx="3.33" ry="2.86"/><ellipse class="cls-8" cx="1580.97" cy="695.39" rx="3.33" ry="2.86"/><ellipse class="cls-8" cx="1594.03" cy="695.39" rx="3.33" ry="2.86"/><ellipse class="cls-8" cx="1607.1" cy="695.39" rx="3.33" ry="2.86"/><ellipse class="cls-8" cx="1620.16" cy="695.39" rx="3.33" ry="2.86"/><ellipse class="cls-8" cx="1633.23" cy="695.39" rx="3.33" ry="2.86"/><ellipse class="cls-8" cx="1646.29" cy="695.39" rx="3.33" ry="2.86"/><ellipse class="cls-8" cx="1659.36" cy="695.39" rx="3.33" ry="2.86"/><ellipse class="cls-8" cx="1672.43" cy="695.39" rx="3.33" ry="2.86"/><ellipse class="cls-8" cx="1476.45" cy="703.89" rx="3.33" ry="2.86"/><ellipse class="cls-8" cx="1489.51" cy="703.89" rx="3.33" ry="2.86"/><ellipse class="cls-8" cx="1502.58" cy="703.89" rx="3.33" ry="2.86"/><ellipse class="cls-8" cx="1515.64" cy="703.89" rx="3.33" ry="2.86"/><ellipse class="cls-8" cx="1528.71" cy="703.89" rx="3.33" ry="2.86"/><ellipse class="cls-8" cx="1541.77" cy="703.89" rx="3.33" ry="2.86"/><ellipse class="cls-8" cx="1554.84" cy="703.89" rx="3.33" ry="2.86"/><ellipse class="cls-8" cx="1567.9" cy="703.89" rx="3.33" ry="2.86"/><ellipse class="cls-8" cx="1580.97" cy="703.89" rx="3.33" ry="2.86"/><ellipse class="cls-8" cx="1594.03" cy="703.89" rx="3.33" ry="2.86"/><ellipse class="cls-8" cx="1607.1" cy="703.89" rx="3.33" ry="2.86"/><ellipse class="cls-8" cx="1620.16" cy="703.89" rx="3.33" ry="2.86"/><ellipse class="cls-8" cx="1633.23" cy="703.89" rx="3.33" ry="2.86"/><ellipse class="cls-8" cx="1646.29" cy="703.89" rx="3.33" ry="2.86"/><ellipse class="cls-8" cx="1659.36" cy="703.89" rx="3.33" ry="2.86"/><ellipse class="cls-8" cx="1672.43" cy="703.89" rx="3.33" ry="2.86"/><path class="cls-5" d="M1807.22,39.36a2.84,2.84,0,0,0,1.06,2.27,3.91,3.91,0,0,0,2.6.82,5.33,5.33,0,0,0,3.25-1c.47-.3.66-.38.88-.38a.73.73,0,0,1,.72.71c0,1-2.71,2.11-5,2.11-3.32,0-5.53-2-5.53-5.14a5.18,5.18,0,0,1,5.45-5.23,5,5,0,0,1,5.31,4.9c0,.69-.29.94-1.13.94ZM1814,38.1a3.09,3.09,0,0,0-3.39-3.13,3,3,0,0,0-3.35,3.13Z"/><path class="cls-5" d="M1826,35.33c0,.39-.37.67-.89.67a1.78,1.78,0,0,1-1-.36,3.66,3.66,0,0,0-2.21-.67c-1.25,0-2.14.51-2.14,1.24s.74,1.1,2.66,1.66c2.75.82,3.88,1.67,3.88,3,0,1.77-1.87,3-4.5,3-2.33,0-4.57-1-4.57-2a.78.78,0,0,1,.83-.73,2.28,2.28,0,0,1,1.06.42,5,5,0,0,0,2.75.82c1.36,0,2.39-.61,2.39-1.38s-.79-1.22-2.83-1.87c-2.65-.86-3.68-1.65-3.68-2.83,0-1.63,1.76-2.85,4.12-2.85C1823.94,33.52,1826,34.42,1826,35.33Z"/><path class="cls-5" d="M1836.53,34.81a.81.81,0,0,1-.86.71,2.08,2.08,0,0,1-.84-.23,4,4,0,0,0-1.57-.32,3.45,3.45,0,0,0-3.54,3.74,3.45,3.45,0,0,0,3.54,3.74,3.6,3.6,0,0,0,1.67-.39,1.73,1.73,0,0,1,.74-.2.7.7,0,0,1,.78.67c0,.77-1.37,1.36-3.17,1.36-3.34,0-5.58-2-5.58-5.14s2.21-5.23,5.58-5.23C1835.15,33.52,1836.53,34.07,1836.53,34.81Z"/><path class="cls-5" d="M1773.32,691.76a1,1,0,0,1-2,0v-7.91h-.84c-.64,0-1-.26-1-.71s.37-.73,1-.73h.84V680c0-1.32,1-2.19,2.68-2.19h.61c.67,0,1.16.32,1.16.75s-.4.69-1.11.69h-.49c-.59,0-.84.2-.84.67v2.46h1.26c.66,0,1,.26,1,.73s-.37.71-1,.71h-1.26Z"/><path class="cls-5" d="M1778.68,683.63a4.5,4.5,0,0,1,3.37-1.34c2.58,0,4.28,1.52,4.28,3.84v5.63a1,1,0,0,1-2,0v-5.53a2.86,2.86,0,0,0-5.68,0v5.53a1,1,0,0,1-2,0v-8.58a1,1,0,0,1,2,0v.41Z"/><path class="cls-5" d="M1807.25,105.6c0-2.14,2.12-3.53,5.35-3.53,2.9,0,5.41,1.51,5.41,3.26a1,1,0,0,1-1,1c-.56,0-.86-.23-1.27-.94a3.18,3.18,0,0,0-3.2-1.66c-1.77,0-3,.73-3,1.78s1,1.64,3.7,2.55a11,11,0,0,1,4.55,2.35,3.23,3.23,0,0,1,.94,2.21c0,1.41-1,2.74-2.82,3.62a2.75,2.75,0,0,1,1.68,2.47c0,1.91-2.31,3.35-5.4,3.35s-5.85-1.55-5.85-3.13c0-.61.41-1,1.13-1,.52,0,.85.21,1.32.89a3.44,3.44,0,0,0,3.34,1.62c1.91,0,3.2-.69,3.2-1.69s-1.07-1.66-3.86-2.55a11.31,11.31,0,0,1-4.66-2.33,3.2,3.2,0,0,1-1-2.25c0-1.58.91-2.6,3.14-3.58C1807.63,107.18,1807.25,106.63,1807.25,105.6Zm3.64,3.38c-2.07.75-2.84,1.43-2.84,2.48s.83,1.71,3.22,2.69l2.93,1.19c1.74-1.1,2.23-1.71,2.23-2.74s-.6-1.73-2.31-2.37Z"/><path class="cls-5" d="M1811.67,156.2a14.5,14.5,0,0,1-3-1.07,3.17,3.17,0,0,1-1.88-2.85,3.34,3.34,0,0,1,1.25-2.53,5.81,5.81,0,0,1,3.66-1.46v-1c0-.27.23-.46.56-.46a.48.48,0,0,1,.52.46v1c2.35.18,4,.91,4,1.78a.91.91,0,0,1-1,.82,2.13,2.13,0,0,1-1.08-.34,4.92,4.92,0,0,0-1.9-.64v4.67a15.5,15.5,0,0,1,3.15,1.17,3.45,3.45,0,0,1,2,3.21,4.24,4.24,0,0,1-1.41,3.12,6.12,6.12,0,0,1-3.75,1.58v1.09a.47.47,0,0,1-.52.43c-.33,0-.56-.18-.56-.43v-1c-2.86-.09-5.07-.94-5.07-1.94a.87.87,0,0,1,.91-.87,2.88,2.88,0,0,1,1.19.41,6.13,6.13,0,0,0,3,.76Zm0-6.29c-1.57.21-2.48,1-2.48,2.14s.66,1.6,2.48,2.19Zm1.08,12.11c1.77-.37,2.73-1.44,2.73-3,0-1.23-.69-1.86-2.73-2.55Z"/><polyline class="cls-9" points="1807.66 305.42 1824.65 290.86 1807.66 276.3 1824.65 290.86 1768.74 290.86"/><line class="cls-9" x1="1827.72" y1="273.08" x2="1827.72" y2="308.96"/><ellipse class="cls-5" cx="1769.95" cy="359.53" rx="5.62" ry="4.81"/><polygon class="cls-10" points="1782.22 405.74 1769.32 405.74 1792.75 385.66 1816.52 406.02 1803.09 406.02 1803.09 421.12 1782.22 421.12 1782.22 405.74"/><polygon class="cls-10" points="1777.59 540.18 1764.69 540.18 1788.12 520.1 1811.89 540.46 1798.46 540.46 1798.46 555.56 1777.59 555.56 1777.59 540.18"/><rect class="cls-10" x="1782.22" y="424.74" width="20.86" height="5.77"/><path class="cls-11" d="M1926.93-7.07l-52.74.48-52.74.39L1716-5.66l1.4-1.41c.37,62.09.36,124.18.47,186.27l.11,93.13-.14,93.13-.14,93.13-.41,93.13c-.16,31-.23,62.09-.51,93.13L1716,738l-.78-93.13c-.28-31-.36-62.09-.52-93.13l-.4-93.13-.14-93.13-.15-93.13.11-93.13c.12-62.09.11-124.18.47-186.27h0A1.41,1.41,0,0,1,1716-8.47l105.47.53,52.74.4Z"/><line class="cls-12" x1="1433.89" y1="1080" x2="1433.89" y2="-22"/><rect class="cls-5" x="1165.63" y="369.43" width="52.95" height="62.03" transform="translate(791.66 1592.55) rotate(-90)"/><rect class="cls-5" x="1230.98" y="383.74" width="17.7" height="33.42" transform="translate(839.39 1640.28) rotate(-90)"/><path class="cls-5" d="M1256.59,403c46.53-.13,71,48.58,81,87.56a254.55,254.55,0,0,1,6.15,35c1.62,14.34,3.2,28.68,4.06,43.09,1.68,28,.64,56.83-9.62,83.32-5.38,13.88-13.74,25.93-22.07,38.15q-13.87,20.34-28.06,40.46t-28.28,40.33c-8.18,11.74-15.39,23.6-20.66,36.94-10.16,25.78-13.75,54-13.67,81.57.07,27,8.23,54.41,19.94,78.61,12.46,25.75,30.62,48.87,50.46,69.32,22.93,23.63,46.44,46.73,69.94,69.79q8.65,8.51,17.35,17c2.72,2.65,6.9-1.52,4.17-4.18q-35.77-34.84-71-70.27c-21.7-21.83-42.5-43.94-58.26-70.58-14.12-23.86-23.92-51.58-26.26-79.3-1.15-13.72-.32-27.78,1.23-41.43a197.69,197.69,0,0,1,9.09-41.57,153.37,153.37,0,0,1,19.54-38.25q14.05-20.24,28.27-40.35t28.11-40.42c8.63-12.59,17.66-25,23.74-39.08,11.06-25.62,13.4-53.77,12.36-81.39-.55-14.56-2-29.08-3.57-43.56-1.36-12.37-2.74-24.69-5.41-36.86-8.59-39.18-30-88.76-73.67-98.22a70.07,70.07,0,0,0-14.93-1.53c-3.8,0-3.81,5.92,0,5.91Z"/><polygon class="cls-13" points="1139.48 168.89 1074 223 1074 173 217 180 228 642 546 644 526 659.88 152 658 130.58 632.82 124 195 148 160 1125.06 151.98 1139.48 168.89"/><path class="cls-14" d="M1116.27,143.19l-977.51,7.92L115,186.18,121.79,624l21.49,24.89,973,5.66,34-35.08V178.26ZM1065.2,639.43l-845.53-5.95L207.79,171.34l857.41-7.43Z"/><g class="cls-15"><path class="cls-5" d="M457.54,322.78c-.42,3.36-1.82,4.76-4.9,4.76-2.8,0-4.48-1.68-4.48-4.62,0-1.12,0-1.4.7-5.32l2.52-19.18H435.84l-3.36,24.36c-.56,3.36-2,4.76-5,4.76-2.8,0-4.48-1.68-4.48-4.62a22.92,22.92,0,0,1,.7-5.32l2.66-19.18H418.2c-3.22,0-5.32-1.68-5.32-4.34s2-4.34,5.32-4.34h9.24l2.8-19.32h-8.12c-3.22,0-5.32-1.68-5.32-4.34s2.1-4.34,5.32-4.34h9.24l3.36-24.5c.56-3.36,2-4.76,4.9-4.76s4.62,1.68,4.62,4.48a41,41,0,0,1-.7,5.6l-2.66,19.18h15.68l3.36-24.5c.56-3.36,2-4.76,4.9-4.76s4.62,1.68,4.62,4.48a43.7,43.7,0,0,1-.7,5.6l-2.66,19.18h8c3.36,0,5.46,1.68,5.46,4.34s-2,4.34-5.46,4.34H465l-2.8,19.32h8c3.36,0,5.46,1.68,5.46,4.34s-2.1,4.34-5.46,4.34H461Zm-2.24-52.36H439.76L437,289.74h15.68Z"/><path class="cls-5" d="M535.52,243.4a5,5,0,0,1-4.9,5.18c-1.68,0-2.94-.56-5.46-2.1-4.62-3.08-7.7-4.06-12.6-4.06-9,0-15.12,5.46-15.12,13s4.76,11.48,18.62,16.1c11.06,3.64,17.92,7.56,21.28,12.46a24.94,24.94,0,0,1,4.34,14.28c0,17.08-13.16,29.26-31.64,29.26-13.86,0-25.9-5.32-25.9-11.62,0-3.22,2.1-5.6,4.62-5.6,1.4,0,2.8.56,5.46,2.24,5.74,3.5,10.5,5,15.82,5,11.2,0,19.32-7.84,19.32-18.76,0-8.12-4.9-12.46-19.46-17.22-10.78-3.5-17.5-7.28-20.72-11.76a22.43,22.43,0,0,1-4.06-13c0-13.44,12.32-24.36,27.44-24.36C524.74,232.48,535.52,237.66,535.52,243.4Z"/><path class="cls-5" d="M563.94,265.38c5.32-6.3,11.34-9.24,19.18-9.24,14.7,0,24.36,10.5,24.36,26.46v38.78c0,3.78-2.24,6.16-5.74,6.16s-5.74-2.38-5.74-6.16V283.3c0-10.22-6.58-17.22-16.24-17.22s-16.1,7-16.1,17.22v38.08c0,3.78-2.24,6.16-5.74,6.16s-5.74-2.38-5.74-6.16V231.64c0-3.78,2.24-6.16,5.74-6.16s5.74,2.38,5.74,6.16V265.1Z"/><path class="cls-5" d="M669.77,261.88c0-3.36,2.25-5.74,5.33-5.74a5.38,5.38,0,0,1,5.46,5.74V321.8a5.38,5.38,0,0,1-5.46,5.74c-3.08,0-5.33-2.38-5.33-5.74V317h-.27c-5.46,7.42-11.21,10.5-19.32,10.5-17.5,0-30.38-15.12-30.38-35.7s12.88-35.7,30.51-35.7c7.57,0,12.75,2.52,19.19,9.38h.27ZM631.28,291.7c0,15.82,7.55,25.9,19.18,25.9s19.18-10.22,19.18-25.76-7.56-25.76-19.18-25.76S631.28,276.3,631.28,291.7Z"/><path class="cls-5" d="M707.43,268.18c3.92-7.28,10.08-12,15.82-12,3.64,0,6.3,2.38,6.3,5.88s-2.24,5.32-7.14,6.3c-9.66,1.82-15.4,9.1-15.26,19.88v33.18c0,3.78-2.24,6.16-5.74,6.16s-5.74-2.38-5.74-6.16V262.3c0-3.78,2.24-6.16,5.74-6.16s5.74,2.38,5.74,6.16v5.88Z"/><path class="cls-5" d="M742.58,296.32c.42,7.42,2.1,11.76,6,15.68s8.68,5.6,14.84,5.6c7.14,0,12.18-1.82,18.48-6.86,2.66-2.1,3.78-2.66,5-2.66,2.1,0,4.06,2.24,4.06,4.9,0,6.72-15.4,14.56-28.42,14.56-18.9,0-31.5-14.14-31.5-35.42,0-20.86,13.16-36,31.08-36,17.08,0,30.24,14.7,30.24,33.74,0,4.76-1.69,6.44-6.44,6.44Zm38.36-8.68c-.56-13.58-7.7-21.56-19.32-21.56s-18.06,7.28-19,21.56Z"/><path class="cls-5" d="M823.92,295.48c0,3.78-2.24,6.16-5.74,6.16s-5.74-2.38-5.74-6.16V280.64c-.14-6.3.7-7,9.1-8.68,8-1.82,12-6.58,12-14.14,0-8.82-6-14.56-15.4-14.56-7.7,0-12,3.22-14.84,10.78-1.26,3.22-2.52,4.34-5,4.34a5.51,5.51,0,0,1-5.74-5.74c0-10.78,12.18-20.16,25.9-20.16,15.68,0,27.44,10.5,27.44,24.78a25.24,25.24,0,0,1-5.32,15.68c-4.06,4.9-8.54,7.42-16.66,9.52ZM825,320.82a6.72,6.72,0,1,1-13.44,0,6.72,6.72,0,0,1,6.72-6.72A6.81,6.81,0,0,1,825,320.82Z"/></g></svg>