<svg id="Layer_1" data-name="Layer 1" xmlns="http://www.w3.org/2000/svg" width="1920" height="1083.51" viewBox="0 0 1920 1083.51"><defs><style>.cls-1{fill:#28263e;}.cls-16,.cls-17,.cls-2{fill:#006e92;}.cls-3{fill:#eaeaea;}.cls-4{fill:#fff;}.cls-10,.cls-5,.cls-7{fill:none;}.cls-5{stroke:#006f93;stroke-width:2px;}.cls-10,.cls-5{stroke-miterlimit:10;}.cls-6{fill:#f9b283;}.cls-8{fill:#bf8967;}.cls-9{fill:#eaa77d;}.cls-10{stroke:#cd987b;stroke-width:0.75px;}.cls-11{fill:#929497;}.cls-12{fill:#808184;}.cls-13{fill:#a6a8ab;}.cls-14{fill:#e6e7e8;}.cls-15{fill:#533847;}.cls-16{opacity:0.31;}.cls-17{opacity:0.69;}.cls-18{fill:#231f20;}</style></defs><title>taber_skaerm</title><rect class="cls-1" y="4" width="1920" height="1083.51"/><rect class="cls-1" width="1920" height="1083.51"/><polygon class="cls-2" points="38.81 0.75 37.09 116.94 42.55 124.49 250.79 126.05 256.52 118.76 256.52 1.63 255.65 0.75 38.81 0.75"/><polygon class="cls-3" points="55.13 0.75 52.7 119.02 238.3 121.11 238.3 0.75 55.13 0.75"/><polygon class="cls-2" points="1422.06 0.75 1421.42 43.6 1425.34 49 1574.36 50.12 1578.46 44.9 1578.46 0.75 1422.06 0.75"/><polygon class="cls-2" points="1378.8 835.84 1378.8 848.13 1449.78 848.13 1449.78 838.07 1423.23 835.84 1422.95 806.78 1406.46 806.78 1407.58 836.4 1378.8 835.84"/><polygon class="cls-2" points="1315.38 806.78 1311.88 687.47 1513.2 691.52 1513.76 806.78 1315.38 806.78"/><polygon class="cls-3" points="1319.43 694.73 1323.34 799.65 1504.68 799.65 1506.64 698.25 1319.43 694.73"/><polygon class="cls-1" points="1406.46 806.78 1422.67 817.12 1422.95 806.78 1406.46 806.78"/><polygon class="cls-2" points="561.55 48.22 564.9 43.93 711.88 48.22 717.28 53.62 717.28 137.44 713.18 142.66 564.16 141.54 560.25 136.14 561.55 48.22"/><polygon class="cls-3" points="571.42 137.63 573.29 46.91 704.24 50.64 704.24 139.12 571.42 137.63"/><rect class="cls-4" x="565.58" y="88.08" width="2.24" height="9.85"/><circle class="cls-4" cx="710.88" cy="95.07" r="4.4"/><polygon class="cls-2" points="1707.63 472.09 1709.87 554.99 1848.64 554.99 1848.64 474.33 1707.63 472.09"/><polygon class="cls-2" points="1664.6 585.72 1664.6 594.48 1877.33 592.24 1877.33 584.05 1848.64 554.99 1709.87 554.99 1664.6 585.72"/><polygon class="cls-1" points="1781.96 561.69 1862.99 568.77 1848.64 554.99 1709.87 554.99 1781.96 561.69"/><polygon class="cls-3" points="1712.66 477.12 1714.71 549.77 1843.24 549.77 1844.36 479.36 1712.66 477.12"/><polygon class="cls-2" points="1064.74 187.2 1064.74 199.49 1135.71 199.49 1135.71 189.43 1109.16 187.2 1108.88 158.14 1092.4 158.14 1093.52 187.75 1064.74 187.2"/><polygon class="cls-2" points="1001.31 158.14 997.82 38.83 1199.14 42.88 1199.7 158.14 1001.31 158.14"/><polygon class="cls-3" points="1005.36 46.09 1009.27 151.01 1190.62 151.01 1192.57 49.61 1005.36 46.09"/><polygon class="cls-1" points="1092.4 158.14 1108.61 168.47 1108.88 158.14 1092.4 158.14"/><rect class="cls-4" x="44.54" y="49.78" width="3.12" height="13.76"/><circle class="cls-4" cx="247.57" cy="59.55" r="6.15"/><polygon class="cls-2" points="294.52 348.88 297.88 344.6 444.85 348.88 450.25 354.29 450.25 438.11 446.15 443.33 297.13 442.21 293.22 436.81 294.52 348.88"/><polygon class="cls-3" points="304.39 438.3 306.26 347.58 437.21 351.31 437.21 439.79 304.39 438.3"/><rect class="cls-4" x="298.55" y="388.75" width="2.24" height="9.85"/><circle class="cls-4" cx="443.85" cy="395.74" r="4.4"/><polygon class="cls-2" points="1021.8 1056.43 872.71 1056.43 862.08 1046.71 862.08 720.9 872.1 712.7 1018.15 710.27 1029.69 719.99 1033.34 1046.1 1021.8 1056.43"/><polygon class="cls-3" points="869.29 745.57 1023.7 741.93 1026.43 1028.42 867.7 1028.42 869.29 745.57"/><rect class="cls-4" x="941.94" y="719.15" width="4.33" height="23.91" transform="translate(1675.21 -212.99) rotate(90)"/><circle class="cls-4" cx="964.81" cy="731.11" r="2.16"/><circle class="cls-4" cx="945.64" cy="1043.73" r="9.39"/><path class="cls-4" d="M1568,.75a4.4,4.4,0,1,0,8,0Z"/><polygon class="cls-3" points="1433.51 0.75 1432.6 45.09 1565.42 46.58 1565.42 0.75 1433.51 0.75"/><rect class="cls-4" x="1427.4" y="0.75" width="2.24" height="2.3"/><line class="cls-5" x1="1039.6" y1="522.67" x2="1039.6" y2="617.38"/><line class="cls-5" x1="862.08" y1="817.12" x2="264.12" y2="817.12"/><line class="cls-5" x1="264.12" y1="686.03" x2="264.12" y2="918.57"/><line class="cls-5" x1="1519.6" y1="413.58" x2="1519.6" y2="617.83"/><line class="cls-5" x1="1416.66" y1="617.83" x2="1416.66" y2="689.56"/><line class="cls-5" x1="1519.6" y1="617.38" x2="1039.6" y2="617.38"/><line class="cls-5" x1="1709.19" y1="529.96" x2="1519.6" y2="529.96"/><line class="cls-5" x1="1519.6" y1="49.71" x2="1519.6" y2="281.87"/><line class="cls-5" x1="1518.95" y1="104.46" x2="1199.7" y2="104.46"/><line class="cls-5" x1="689.95" y1="576.17" x2="689.95" y2="817.12"/><line class="cls-5" x1="1311.88" y1="747.19" x2="1030" y2="747.19"/><line class="cls-5" x1="856.74" y1="258.7" x2="235.35" y2="258.7"/><line class="cls-5" x1="235.35" y1="126.05" x2="235.35" y2="582.65"/><line class="cls-5" x1="293.87" y1="393.96" x2="235.35" y2="393.96"/><line class="cls-5" x1="637.83" y1="142.66" x2="637.83" y2="258.7"/><line class="cls-5" x1="856.3" y1="0.75" x2="856.3" y2="258.7"/><polygon class="cls-2" points="156.72 554.84 161.4 548.85 366.78 554.84 374.33 562.39 374.33 679.52 368.6 686.81 160.36 685.25 154.9 677.7 156.72 554.84"/><polygon class="cls-3" points="170.51 679.78 173.12 553.02 356.11 558.22 356.11 681.87 170.51 679.78"/><rect class="cls-4" x="162.35" y="610.54" width="3.12" height="13.76"/><circle class="cls-4" cx="365.38" cy="620.32" r="6.15"/><polygon class="cls-2" points="618.65 485.61 620.88 568.5 759.66 568.5 759.66 487.84 618.65 485.61"/><polygon class="cls-2" points="575.62 599.24 575.62 607.99 788.35 605.76 788.35 597.56 759.66 568.5 620.88 568.5 575.62 599.24"/><polygon class="cls-1" points="692.97 575.21 774 582.29 759.66 568.5 620.88 568.5 692.97 575.21"/><polygon class="cls-3" points="623.68 490.64 625.73 563.29 754.26 563.29 755.38 492.87 623.68 490.64"/><polygon class="cls-2" points="1424.82 281.61 1429.5 275.62 1634.88 281.61 1642.43 289.15 1642.43 406.29 1636.71 413.58 1428.46 412.02 1423 404.47 1424.82 281.61"/><polygon class="cls-3" points="1438.62 406.55 1441.22 279.78 1624.21 284.99 1624.21 408.63 1438.62 406.55"/><rect class="cls-4" x="1430.45" y="337.31" width="3.12" height="13.76"/><circle class="cls-4" cx="1633.48" cy="347.08" r="6.15"/><polygon class="cls-2" points="1140.65 470.69 1140.65 562.15 1134.68 568.67 934.81 568.67 929.78 562.52 928.29 472.92 934.25 465.84 1134.31 463.61 1140.65 470.69"/><polygon class="cls-3" points="949.94 564.25 947.71 469.52 1123.46 467.85 1123.46 565.22 949.94 564.25"/><rect class="cls-4" x="939.74" y="511.02" width="2.65" height="14.67"/><circle class="cls-4" cx="941.07" cy="505.64" r="1.33"/><circle class="cls-4" cx="1132.86" cy="517.41" r="5.76"/><path class="cls-6" d="M1759.13,536.36a7.89,7.89,0,0,0,.4,2.41,1.52,1.52,0,0,0,.83-.22s1.08-.74,1.16-1.28c0,0,.31,0,.16-1.18l.9-.72,0-.46a11.75,11.75,0,0,0-1.53-2.36c.54-1.13,1.51-8.08,2.21-11.42a20.25,20.25,0,0,1,.55-4.76s.66-6.8.94-7.73l0,11.13s-.14,4.37-.33,5.27-.44,7.68-.44,7.68l-.64,14.52-.15,2.68h5.56c1.1-7.47,2.4-16.28,2.45-16.79.08-.9.83-1.64,1.18.42.25,1.43.47,8.17.94,16.37h5.79V524.09s-.18-16.5,1-18.91l0,.09,1.61-6a6.15,6.15,0,0,0-3.32-3.51s-2.78-1.1-3.79-1c0,0-.42-2.66-.73-3.71,0,0,1.3-.57,1.54-4.48l.48-3.42-.9-3.64-7.83,1.18v4.85s2.26,5.95,3.73,6.06l.22,0a13.41,13.41,0,0,0-.35,2.77,15.19,15.19,0,0,0-4.35,1.4c-1.64,1-3.42,2.06-3.79,7.31,0,0-1,6.62-1,7.92a19,19,0,0,0-.33,7,6.78,6.78,0,0,0-.88,2.83s-1.21,9.32-1.1,11.25A7.29,7.29,0,0,0,1759.13,536.36Z"/><path class="cls-7" d="M1767.87,509.71s-.62-.08-.66-.63.74-.54.74-.54.5-.1.53.58A.51.51,0,0,1,1767.87,509.71Z"/><path class="cls-7" d="M1777.14,509.38s-.73-.18-.74-.63a.57.57,0,0,1,.74-.65c.49.08.7.34.64.63S1777.76,509.35,1777.14,509.38Z"/><path class="cls-8" d="M1772.86,533.13a7.82,7.82,0,0,0,.24-2.75,1.51,1.51,0,0,0-1.41-.41c-.92.16-1.35.15-1.45.67a8.57,8.57,0,0,0,0,1.65s0,1.08.77.92a1.65,1.65,0,0,1,1.19.08A.61.61,0,0,0,1772.86,533.13Z"/><path class="cls-9" d="M1771.89,536.06s.46.08.44-1.47l.2-2.1a2.27,2.27,0,0,0-.2-1.52c-.39-.51-1.2,0-1.2,0s-.5,0-.28,1.33C1771.29,533.54,1770.64,536.07,1771.89,536.06Z"/><path class="cls-10" d="M1771.29,522.27s.49.64.91,0"/><path class="cls-6" d="M1790.16,513.6l-2.15.06s0,14.61.74,16,1.91-.15,1.91-.15C1791,527.42,1791.25,514.09,1790.16,513.6Z"/><path class="cls-6" d="M1788.41,514.78l2-.77-1.14-2.74-7.59-12.67a6.27,6.27,0,0,0-3-2.3c-1.62-.35,3.06,8,3.06,8Z"/><rect class="cls-11" x="1781.31" y="531.85" width="11.07" height="6.65" transform="translate(39.81 -118.34) rotate(3.84)"/><circle class="cls-12" cx="1782.03" cy="532.18" r="0.33"/><circle class="cls-13" cx="1782.04" cy="532.18" r="0.25"/><circle class="cls-14" cx="1782.04" cy="532.18" r="0.23"/><path class="cls-15" d="M1774.78,478.05l-.15-.18h-6.79a.62.62,0,0,0-.23.26c-3.36,2.93-.09,8.15-.09,8.15-.42-.53.37-2.72.37-2.72.31-2.19,1-2,1-2-.18.66,0,.76,0,.76s1.35-1.1,1.45-.92-.43.81-.43.81a4.31,4.31,0,0,0,1.12-.3s1.22-.66,1.23-.33-1,.81-1,.81-.09,0,.27.09,1.07-.31,1.07-.31l.13.53.79-.91.31-.06-.13.36.61.63,0-.53.34.08.17.43.87-.13,0,2a5.21,5.21,0,0,0,.49-2.49A8.11,8.11,0,0,0,1774.78,478.05Z"/><path class="cls-6" d="M1788.85,529.11l1.84-.53a2.51,2.51,0,0,1,.6,1c.12.56.77,3.17.77,3.17a3.06,3.06,0,0,1,0,1.72c-.32.54-1.07,0-1.07,0l-1.33-.83-.18-.9-1.4-.84Z"/><path class="cls-6" d="M1397.35,780.26s.1,2.77.57,3.46a2.14,2.14,0,0,0,1.19-.32s1.54-1.06,1.66-1.83c0,0,.44,0,.22-1.68l1.29-1,.06-.66a16.4,16.4,0,0,0-2.19-3.37c.78-1.62,2.16-11.56,3.16-16.33,0,0,0-4.71.79-6.81,0,0,.94-9.73,1.35-11l0,15.91s-.19,6.24-.47,7.53-.63,11-.63,11l-.91,20.78-.21,3.82h8c1.58-10.68,3.42-23.27,3.5-24,.12-1.29,1.19-2.35,1.69.6.35,2,.67,11.69,1.34,23.4H1426l0-36.93s-.25-23.6,1.38-27.05a1.11,1.11,0,0,1,0,.13l2.31-8.6a8.82,8.82,0,0,0-4.74-5s-4-1.57-5.43-1.38c0,0-.6-3.8-1-5.31,0,0,1.86-.81,2.2-6.4l.69-4.89-1.29-5.21-11.2,1.69v6.94s3.23,8.5,5.34,8.66l.31.06a19.19,19.19,0,0,0-.5,4,21.94,21.94,0,0,0-6.22,2c-2.35,1.38-4.89,3-5.42,10.45,0,0-1.38,9.48-1.48,11.33,0,0-1.35,5.46-.47,10a9.71,9.71,0,0,0-1.25,4.05s-1.73,13.34-1.57,16.1A10.4,10.4,0,0,0,1397.35,780.26Z"/><path class="cls-7" d="M1409.85,742.15s-.89-.12-.94-.89,1.06-.78,1.06-.78.7-.14.75.84A.73.73,0,0,1,1409.85,742.15Z"/><path class="cls-7" d="M1423.1,741.68s-1-.26-1.06-.89a.83.83,0,0,1,1.06-.94c.71.11,1,.49.92.9S1424,741.63,1423.1,741.68Z"/><path class="cls-8" d="M1417,775.65a11.42,11.42,0,0,0,.35-3.94,2.21,2.21,0,0,0-2-.59c-1.32.24-1.93.22-2.07,1a12.42,12.42,0,0,0,0,2.35s-.06,1.55,1.1,1.32a2.42,2.42,0,0,1,1.7.12A.88.88,0,0,0,1417,775.65Z"/><path class="cls-9" d="M1415.59,779.83s.67.12.64-2.09l.28-3a3.3,3.3,0,0,0-.28-2.17c-.57-.73-1.72,0-1.72,0s-.71.06-.4,1.91C1414.75,776.23,1413.8,779.85,1415.59,779.83Z"/><path class="cls-10" d="M1414.75,760.11s.69.92,1.29,0"/><path class="cls-6" d="M1441.72,747.72l-3.07.08s0,20.89,1.06,22.91,2.74-.21,2.74-.21C1442.87,767.49,1443.28,748.42,1441.72,747.72Z"/><path class="cls-6" d="M1439.22,749.41l2.87-1.1-1.64-3.92-10.86-18.13s-2-2.79-4.3-3.28,4.37,11.45,4.37,11.45Z"/><rect class="cls-11" x="1429.07" y="773.81" width="15.83" height="9.51" transform="translate(55.31 -94.39) rotate(3.84)"/><circle class="cls-12" cx="1430.1" cy="774.28" r="0.48"/><circle class="cls-13" cx="1430.11" cy="774.29" r="0.36"/><circle class="cls-14" cx="1430.11" cy="774.29" r="0.32"/><path class="cls-15" d="M1419.73,696.87l-.22-.24h-9.71a1,1,0,0,0-.33.36c-4.8,4.19-.12,11.66-.12,11.66-.6-.76.52-3.9.52-3.9.45-3.13,1.44-2.82,1.44-2.82-.26.94.07,1.08.07,1.08s1.93-1.57,2.07-1.32-.61,1.16-.61,1.16a5.87,5.87,0,0,0,1.6-.43s1.74-.94,1.76-.47-1.38,1.16-1.38,1.16-.15,0,.37.14a3.14,3.14,0,0,0,1.53-.45l.19.75,1.13-1.29.45-.09-.19.51.87.9.07-.76.49.12.24.61,1.25-.18,0,2.91c.78-1,.71-3.55.71-3.55A11.57,11.57,0,0,0,1419.73,696.87Z"/><path class="cls-6" d="M1439.85,769.89l2.64-.75a3.55,3.55,0,0,1,.84,1.47c.19.79,1.11,4.52,1.11,4.52a4.35,4.35,0,0,1,0,2.46c-.45.77-1.53,0-1.53,0l-1.9-1.19-.26-1.29-2-1.2Z"/><path class="cls-6" d="M882,974.8s.26,7.64,1.56,9.55a5.91,5.91,0,0,0,3.29-.87s4.26-3,4.6-5.07c0,0,1.22.13.61-4.65l3.56-2.86.17-1.82s-3.36-6.73-6-9.33c2.15-4.47,6-32,8.74-45.16,0,0,.09-13,2.17-18.83,0,0,2.6-26.9,3.73-30.54l.09,44s-.52,17.27-1.3,20.82-1.74,30.37-1.74,30.37l-2.51,57.44-.59,10.58h22c4.36-29.54,9.47-64.36,9.67-66.39.34-3.54,3.29-6.49,4.68,1.67,1,5.67,1.85,32.32,3.7,64.72h22.91L961.2,926.3s-.69-65.25,3.82-74.79c0,0,.05.12.13.35l6.4-23.78a24.44,24.44,0,0,0-13.12-13.88s-11-4.34-15-3.82c0,0-1.65-10.5-2.87-14.66,0,0,5.12-2.26,6.08-17.7l1.91-13.54L945,750.08l-31,4.69v19.17s8.94,23.51,14.75,23.95l.87.17A53.32,53.32,0,0,0,928.23,809s-10.67,1.74-17.18,5.56-13.53,8.15-15,28.89c0,0-3.82,26.2-4.08,31.32,0,0-3.73,15.1-1.3,27.59a26.88,26.88,0,0,0-3.47,11.2s-4.77,36.87-4.34,44.51A28.64,28.64,0,0,0,882,974.8Z"/><path class="cls-7" d="M916.54,869.43s-2.47-.33-2.6-2.48,2.93-2.14,2.93-2.14,2-.39,2.08,2.31A2,2,0,0,1,916.54,869.43Z"/><path class="cls-7" d="M953.18,868.13s-2.87-.72-2.93-2.48a2.31,2.31,0,0,1,2.93-2.6c2,.33,2.8,1.38,2.54,2.51S955.65,868,953.18,868.13Z"/><path class="cls-8" d="M936.26,962a31.53,31.53,0,0,0,1-10.87,6.09,6.09,0,0,0-5.6-1.63c-3.64.65-5.33.59-5.72,2.67a34.22,34.22,0,0,0,0,6.51s-.15,4.27,3.05,3.63,4.71.34,4.71.34A2.36,2.36,0,0,0,936.26,962Z"/><path class="cls-9" d="M932.42,973.61s1.83.33,1.76-5.79l.78-8.33s.78-4-.78-6-4.75,0-4.75,0-2,.18-1.1,5.27C930.08,963.66,927.47,973.67,932.42,973.61Z"/><path class="cls-10" d="M930.08,919.08s1.91,2.54,3.59,0"/><path class="cls-6" d="M1004.67,884.82l-8.51.22s.11,57.77,3,63.36,7.56-.6,7.56-.6C1007.83,939.48,1009,886.77,1004.67,884.82Z"/><path class="cls-6" d="M997.74,889.49l7.94-3-4.54-10.84-30-50.11s-5.48-7.72-11.91-9.09,12.1,31.68,12.1,31.68Z"/><rect class="cls-11" x="969.68" y="956.97" width="43.77" height="26.3" transform="translate(67.12 -64.16) rotate(3.84)"/><circle class="cls-12" cx="972.53" cy="958.27" r="1.32"/><circle class="cls-13" cx="972.56" cy="958.29" r="1"/><circle class="cls-14" cx="972.56" cy="958.29" r="0.89"/><path class="cls-15" d="M943.87,744.22c-.19-.23-.4-.45-.61-.67H916.4a2.49,2.49,0,0,0-.9,1c-13.28,11.58-.35,32.25-.35,32.25-1.66-2.12,1.46-10.78,1.46-10.78,1.23-8.65,4-7.81,4-7.81-.72,2.61.19,3,.19,3s5.34-4.36,5.73-3.65-1.69,3.19-1.69,3.19c1.1.13,4.42-1.17,4.42-1.17s4.82-2.6,4.88-1.3-3.84,3.19-3.84,3.19-.39.06,1,.39,4.23-1.24,4.23-1.24l.52,2.09,3.13-3.58,1.23-.26-.52,1.43,2.41,2.47.2-2.08,1.36.32.65,1.7,3.45-.51.07,8c2.14-2.73,2-9.82,2-9.82A32.17,32.17,0,0,0,943.87,744.22Z"/><path class="cls-6" d="M999.5,946.13l7.28-2.09a9.82,9.82,0,0,1,2.35,4.06c.49,2.19,3,12.51,3,12.51s1.15,4.67-.1,6.8-4.24.05-4.24.05l-5.26-3.28-.71-3.57-5.53-3.32Z"/><path class="cls-6" d="M672.9,549.52a7.89,7.89,0,0,0,.4,2.41,1.52,1.52,0,0,0,.83-.22s1.08-.74,1.17-1.28c0,0,.3,0,.15-1.18l.9-.72,0-.46a11.75,11.75,0,0,0-1.53-2.36c.55-1.13,1.51-8.08,2.21-11.42a20.83,20.83,0,0,1,.55-4.76s.66-6.8,1-7.73l0,11.13s-.13,4.37-.33,5.27-.44,7.68-.44,7.68l-.64,14.52-.14,2.68h5.55c1.11-7.47,2.4-16.28,2.45-16.79.09-.9.83-1.64,1.18.42.25,1.43.47,8.17.94,16.37H693V537.25s-.18-16.5,1-18.91a.41.41,0,0,1,0,.09l1.61-6a6.16,6.16,0,0,0-3.31-3.51s-2.79-1.09-3.8-1c0,0-.42-2.66-.72-3.71,0,0,1.29-.57,1.53-4.48l.48-3.42-.89-3.64L681,493.87v4.85s2.26,5.95,3.73,6.06l.22,0a13.41,13.41,0,0,0-.35,2.77,15.07,15.07,0,0,0-4.34,1.4c-1.65,1-3.43,2.06-3.8,7.31,0,0-1,6.62-1,7.92a19,19,0,0,0-.33,7,6.78,6.78,0,0,0-.88,2.83s-1.21,9.32-1.1,11.25A7.29,7.29,0,0,0,672.9,549.52Z"/><path class="cls-7" d="M681.64,522.87s-.62-.08-.65-.63.74-.54.74-.54.49-.1.52.58A.51.51,0,0,1,681.64,522.87Z"/><path class="cls-7" d="M690.91,522.54s-.73-.18-.74-.63a.57.57,0,0,1,.74-.65c.49.08.71.34.64.63S691.53,522.51,690.91,522.54Z"/><path class="cls-8" d="M686.63,546.29a8,8,0,0,0,.25-2.75,1.54,1.54,0,0,0-1.42-.41c-.92.16-1.35.15-1.45.67a8.57,8.57,0,0,0,0,1.65s0,1.08.77.92a1.65,1.65,0,0,1,1.19.08A.61.61,0,0,0,686.63,546.29Z"/><path class="cls-9" d="M685.66,549.22s.46.08.44-1.47l.2-2.1a2.27,2.27,0,0,0-.2-1.52c-.39-.51-1.2,0-1.2,0s-.49,0-.28,1.33C685.07,546.7,684.41,549.23,685.66,549.22Z"/><path class="cls-10" d="M685.07,535.43s.48.64.9,0"/><path class="cls-6" d="M703.93,526.76l-2.15.06s0,14.61.75,16,1.91-.15,1.91-.15C704.73,540.58,705,527.25,703.93,526.76Z"/><path class="cls-6" d="M702.18,527.94l2-.77L703,524.43l-7.59-12.67a6.28,6.28,0,0,0-3-2.3c-1.63-.35,3.06,8,3.06,8Z"/><rect class="cls-11" x="695.08" y="545.01" width="11.07" height="6.65" transform="translate(38.25 -45.64) rotate(3.84)"/><circle class="cls-12" cx="695.8" cy="545.34" r="0.33"/><circle class="cls-13" cx="695.81" cy="545.34" r="0.25"/><circle class="cls-14" cx="695.81" cy="545.34" r="0.23"/><path class="cls-15" d="M688.56,491.21l-.16-.18h-6.79a.62.62,0,0,0-.23.26c-3.36,2.93-.09,8.15-.09,8.15-.42-.53.37-2.72.37-2.72.31-2.19,1-2,1-2-.18.66.05.76.05.76s1.35-1.1,1.45-.92-.43.81-.43.81a4.31,4.31,0,0,0,1.12-.3s1.22-.66,1.24-.33-1,.81-1,.81-.1,0,.26.1a2.24,2.24,0,0,0,1.07-.32l.13.53.79-.91.31-.06-.13.36.61.63.05-.53.35.08.16.43.87-.13,0,2a5.21,5.21,0,0,0,.49-2.49A8.15,8.15,0,0,0,688.56,491.21Z"/><path class="cls-6" d="M702.62,542.27l1.84-.53a2.51,2.51,0,0,1,.6,1c.12.56.77,3.17.77,3.17a3.06,3.06,0,0,1,0,1.72c-.31.54-1.07,0-1.07,0l-1.33-.83-.18-.9-1.4-.84Z"/><path class="cls-6" d="M1017.37,546.91a10.59,10.59,0,0,0,.53,3.23,2,2,0,0,0,1.11-.29s1.44-1,1.56-1.72c0,0,.41,0,.2-1.57l1.21-1,.06-.62a15.7,15.7,0,0,0-2-3.15c.72-1.51,2-10.82,3-15.28a27.53,27.53,0,0,1,.73-6.37s.88-9.1,1.26-10.33l0,14.88s-.17,5.84-.44,7-.59,10.28-.59,10.28l-.85,19.43-.2,3.58h7.44c1.48-10,3.21-21.77,3.27-22.46.12-1.2,1.12-2.19,1.59.56.32,1.92.62,10.94,1.25,21.9h7.75l0-34.55s-.23-22.07,1.29-25.3l0,.12,2.16-8.05a8.3,8.3,0,0,0-4.44-4.7s-3.73-1.46-5.08-1.29c0,0-.56-3.55-1-5,0,0,1.74-.76,2.06-6l.64-4.58-1.2-4.87-10.48,1.59V479s3,8,5,8.11l.29.05a17.73,17.73,0,0,0-.46,3.7,20.63,20.63,0,0,0-5.82,1.88c-2.2,1.29-4.58,2.76-5.08,9.78,0,0-1.29,8.86-1.38,10.59a25.63,25.63,0,0,0-.44,9.34,9.13,9.13,0,0,0-1.17,3.79s-1.61,12.47-1.47,15.06A9.73,9.73,0,0,0,1017.37,546.91Z"/><path class="cls-7" d="M1029.06,511.26s-.84-.11-.88-.84,1-.72,1-.72.66-.14.7.78A.68.68,0,0,1,1029.06,511.26Z"/><path class="cls-7" d="M1041.45,510.82s-1-.24-1-.84a.78.78,0,0,1,1-.88c.67.11,1,.47.86.85S1042.29,510.78,1041.45,510.82Z"/><path class="cls-8" d="M1035.73,542.59a10.53,10.53,0,0,0,.33-3.68,2.08,2.08,0,0,0-1.9-.55c-1.23.22-1.8.2-1.93.91a11.73,11.73,0,0,0,0,2.2s0,1.44,1,1.23a2.25,2.25,0,0,1,1.59.11A.81.81,0,0,0,1035.73,542.59Z"/><path class="cls-9" d="M1034.43,546.51s.62.11.6-2l.26-2.82a3.08,3.08,0,0,0-.26-2c-.53-.69-1.61,0-1.61,0s-.66,0-.37,1.78C1033.64,543.14,1032.76,546.53,1034.43,546.51Z"/><path class="cls-10" d="M1033.64,528.06s.65.86,1.21,0"/><path class="cls-6" d="M1058.88,516.47l-2.88.07s0,19.55,1,21.44,2.55-.2,2.55-.2C1059.94,535,1060.33,517.13,1058.88,516.47Z"/><path class="cls-6" d="M1056.53,518.05l2.69-1-1.54-3.67-10.15-17s-1.86-2.61-4-3.07,4.09,10.72,4.09,10.72Z"/><rect class="cls-11" x="1047.04" y="540.88" width="14.81" height="8.9" transform="translate(38.84 -69.32) rotate(3.84)"/><circle class="cls-12" cx="1048" cy="541.32" r="0.45"/><circle class="cls-13" cx="1048.01" cy="541.32" r="0.34"/><circle class="cls-14" cx="1048.01" cy="541.32" r="0.3"/><path class="cls-15" d="M1038.31,468.9l-.21-.23H1029a.88.88,0,0,0-.3.34c-4.49,3.92-.12,10.91-.12,10.91-.56-.72.49-3.65.49-3.65.42-2.92,1.34-2.64,1.34-2.64-.24.88.07,1,.07,1s1.81-1.48,1.94-1.24-.57,1.08-.57,1.08a5.44,5.44,0,0,0,1.49-.39s1.63-.89,1.65-.45-1.3,1.08-1.3,1.08-.13,0,.36.14a3,3,0,0,0,1.43-.42l.17.7,1.06-1.21.42-.09-.18.49.82.83.06-.7.47.11.22.57,1.16-.17,0,2.73c.72-.93.66-3.33.66-3.33A10.84,10.84,0,0,0,1038.31,468.9Z"/><path class="cls-6" d="M1057.13,537.21l2.46-.71a3.35,3.35,0,0,1,.79,1.38c.17.74,1,4.23,1,4.23a4.08,4.08,0,0,1,0,2.3c-.42.72-1.43,0-1.43,0l-1.78-1.11-.24-1.21-1.87-1.12Z"/><path class="cls-6" d="M246.44,657.44s.11,3.34.68,4.18a2.61,2.61,0,0,0,1.45-.38s1.86-1.29,2-2.22c0,0,.53.05.27-2l1.56-1.25.07-.8a20.16,20.16,0,0,0-2.65-4.09c.94-2,2.61-14,3.83-19.78,0,0,0-5.7,1-8.25,0,0,1.14-11.78,1.64-13.38l0,19.27s-.23,7.57-.57,9.13-.76,13.3-.76,13.3l-1.1,25.16-.26,4.63h9.63c1.91-12.94,4.15-28.19,4.24-29.08.15-1.55,1.44-2.84,2.05.73.42,2.49.81,14.16,1.62,28.35h10l0-44.73s-.3-28.58,1.67-32.76l.06.15,2.8-10.42a10.68,10.68,0,0,0-5.75-6.08s-4.82-1.9-6.57-1.67c0,0-.72-4.6-1.26-6.42,0,0,2.25-1,2.67-7.76l.83-5.93L274,559l-13.57,2.06v8.4s3.92,10.3,6.47,10.49l.38.07a23.46,23.46,0,0,0-.61,4.79,26.47,26.47,0,0,0-7.53,2.44c-2.85,1.67-5.93,3.57-6.57,12.65,0,0-1.68,11.48-1.79,13.72,0,0-1.63,6.62-.57,12.09a11.7,11.7,0,0,0-1.52,4.9s-2.09,16.16-1.9,19.5A12.55,12.55,0,0,0,246.44,657.44Z"/><path class="cls-7" d="M261.58,611.28s-1.09-.15-1.14-1.09,1.28-.94,1.28-.94.85-.17.91,1A.89.89,0,0,1,261.58,611.28Z"/><path class="cls-7" d="M277.63,610.71s-1.26-.32-1.29-1.09a1,1,0,0,1,1.29-1.14c.85.14,1.22.61,1.11,1.1S278.71,610.65,277.63,610.71Z"/><path class="cls-8" d="M270.21,651.84a13.66,13.66,0,0,0,.43-4.76,2.65,2.65,0,0,0-2.45-.71c-1.6.28-2.34.25-2.51,1.17a15,15,0,0,0,0,2.85s-.07,1.87,1.34,1.59a2.92,2.92,0,0,1,2.06.15A1,1,0,0,0,270.21,651.84Z"/><path class="cls-9" d="M268.53,656.92s.81.14.77-2.54l.34-3.65a3.89,3.89,0,0,0-.34-2.62c-.68-.89-2.08,0-2.08,0s-.86.07-.48,2.31C267.51,652.55,266.36,656.94,268.53,656.92Z"/><path class="cls-10" d="M267.51,633s.83,1.11,1.57,0"/><path class="cls-6" d="M300.18,618l-3.72.1s0,25.3,1.29,27.75,3.31-.26,3.31-.26C301.57,642,302.06,618.87,300.18,618Z"/><path class="cls-6" d="M297.15,620.07l3.47-1.34-2-4.75-13.15-22s-2.4-3.38-5.22-4,5.3,13.88,5.3,13.88Z"/><rect class="cls-11" x="284.86" y="649.63" width="19.18" height="11.52" transform="translate(44.5 -18.23) rotate(3.84)"/><circle class="cls-12" cx="286.1" cy="650.19" r="0.58"/><circle class="cls-13" cx="286.11" cy="650.2" r="0.44"/><circle class="cls-14" cx="286.11" cy="650.2" r="0.39"/><path class="cls-15" d="M273.55,556.43l-.27-.3H261.52a1.2,1.2,0,0,0-.4.44c-5.82,5.08-.16,14.13-.16,14.13-.72-.93.64-4.72.64-4.72.55-3.79,1.74-3.42,1.74-3.42-.31,1.14.09,1.31.09,1.31s2.34-1.91,2.51-1.6-.74,1.4-.74,1.4a7.18,7.18,0,0,0,1.93-.51s2.11-1.14,2.14-.57-1.68,1.39-1.68,1.39-.17,0,.46.17,1.85-.54,1.85-.54l.23.91L271.5,563l.54-.12-.23.63,1.05,1.08.09-.91.6.14.28.74,1.51-.22,0,3.53c.94-1.2.86-4.3.86-4.3A14.09,14.09,0,0,0,273.55,556.43Z"/><path class="cls-6" d="M297.92,644.88l3.19-.92a4.27,4.27,0,0,1,1,1.78c.22,1,1.34,5.48,1.34,5.48s.51,2,0,3-1.86,0-1.86,0l-2.3-1.44-.32-1.56-2.42-1.45Z"/><path class="cls-6" d="M351.28,421.76a9.75,9.75,0,0,0,.49,3,1.85,1.85,0,0,0,1-.27s1.34-.92,1.44-1.59c0,0,.39,0,.19-1.46l1.12-.9.06-.57a14.82,14.82,0,0,0-1.9-2.93c.67-1.4,1.87-10,2.74-14.17a25.58,25.58,0,0,1,.68-5.91s.82-8.44,1.17-9.58l0,13.8s-.17,5.42-.41,6.54-.54,9.53-.54,9.53l-.79,18-.19,3.32h6.9c1.37-9.27,3-20.2,3-20.83.11-1.11,1-2,1.47.52.31,1.78.58,10.15,1.16,20.31h7.19v-32s-.22-20.48,1.19-23.47a.39.39,0,0,1,0,.11l2-7.47a7.65,7.65,0,0,0-4.12-4.35s-3.45-1.36-4.71-1.2c0,0-.51-3.29-.89-4.6,0,0,1.6-.71,1.9-5.56l.6-4.24L371,351.24l-9.72,1.47v6s2.81,7.38,4.63,7.52l.27.05a17.19,17.19,0,0,0-.43,3.43,19.09,19.09,0,0,0-5.39,1.75c-2,1.2-4.25,2.56-4.71,9.06,0,0-1.2,8.23-1.28,9.83A23.76,23.76,0,0,0,354,399a8.38,8.38,0,0,0-1.09,3.51s-1.5,11.58-1.36,14A9,9,0,0,0,351.28,421.76Z"/><path class="cls-7" d="M362.12,388.69s-.78-.1-.82-.78.92-.67.92-.67.61-.12.66.72A.64.64,0,0,1,362.12,388.69Z"/><path class="cls-7" d="M373.62,388.28s-.9-.22-.92-.78a.72.72,0,0,1,.92-.81c.61.1.88.43.79.79S374.39,388.24,373.62,388.28Z"/><path class="cls-8" d="M368.31,417.75a9.75,9.75,0,0,0,.3-3.41,1.88,1.88,0,0,0-1.75-.51c-1.15.2-1.68.18-1.8.83a11,11,0,0,0,0,2s-.05,1.34,1,1.14a2.11,2.11,0,0,1,1.47.1A.75.75,0,0,0,368.31,417.75Z"/><path class="cls-9" d="M367.1,421.38s.58.11.55-1.81l.25-2.62a2.85,2.85,0,0,0-.25-1.88c-.49-.63-1.49,0-1.49,0s-.61.06-.34,1.66C366.37,418.26,365.55,421.4,367.1,421.38Z"/><path class="cls-10" d="M366.37,404.27s.6.8,1.12,0"/><path class="cls-6" d="M389.77,393.52l-2.66.07s0,18.13.92,19.88,2.37-.19,2.37-.19C390.77,410.67,391.12,394.13,389.77,393.52Z"/><path class="cls-6" d="M387.6,395l2.49-1-1.42-3.4-9.42-15.73s-1.72-2.42-3.74-2.85,3.8,9.94,3.8,9.94Z"/><rect class="cls-11" x="378.8" y="416.16" width="13.74" height="8.25" transform="translate(28.98 -24.86) rotate(3.84)"/><circle class="cls-12" cx="379.69" cy="416.57" r="0.41"/><circle class="cls-13" cx="379.7" cy="416.58" r="0.32"/><circle class="cls-14" cx="379.7" cy="416.58" r="0.28"/><path class="cls-15" d="M370.7,349.4l-.2-.21h-8.42a.8.8,0,0,0-.29.31c-4.16,3.64-.11,10.12-.11,10.12-.52-.66.46-3.38.46-3.38.39-2.72,1.25-2.45,1.25-2.45-.23.82.06.94.06.94s1.67-1.37,1.79-1.15-.53,1-.53,1a5.23,5.23,0,0,0,1.39-.37s1.51-.82,1.53-.41-1.2,1-1.2,1-.12,0,.33.12a2.78,2.78,0,0,0,1.32-.39l.17.66,1-1.12.38-.09-.16.45.76.78.06-.65.43.1.2.53L372,355l0,2.53c.68-.86.62-3.09.62-3.09A10.1,10.1,0,0,0,370.7,349.4Z"/><path class="cls-6" d="M388.15,412.76l2.29-.66a3.07,3.07,0,0,1,.73,1.28c.16.69,1,3.92,1,3.92a3.87,3.87,0,0,1,0,2.14c-.39.67-1.33,0-1.33,0l-1.65-1-.22-1.12-1.74-1Z"/><path class="cls-6" d="M622.19,121.17a9.72,9.72,0,0,0,.48,3,1.85,1.85,0,0,0,1-.26s1.32-.92,1.43-1.57c0,0,.37,0,.18-1.44l1.1-.88.06-.57a14.25,14.25,0,0,0-1.88-2.88c.67-1.38,1.85-9.88,2.71-14a24.62,24.62,0,0,1,.67-5.82s.8-8.31,1.15-9.44l0,13.6s-.16,5.34-.4,6.44-.54,9.38-.54,9.38l-.78,17.76-.18,3.27H634c1.34-9.14,2.92-19.9,3-20.52.11-1.1,1-2,1.45.51.3,1.75.57,10,1.14,20h7.09l0-31.57s-.22-20.17,1.18-23.12a.82.82,0,0,0,0,.11l2-7.35a7.51,7.51,0,0,0-4-4.29s-3.41-1.34-4.64-1.18c0,0-.51-3.24-.89-4.53,0,0,1.59-.7,1.88-5.47l.59-4.18-1.1-4.46-9.57,1.45v5.93s2.76,7.27,4.56,7.4l.27.05a16,16,0,0,0-.43,3.38,18.82,18.82,0,0,0-5.31,1.72c-2,1.18-4.19,2.52-4.64,8.93,0,0-1.18,8.1-1.26,9.68a23.31,23.31,0,0,0-.41,8.53,8.33,8.33,0,0,0-1.07,3.46s-1.47,11.4-1.34,13.76A8.88,8.88,0,0,0,622.19,121.17Z"/><path class="cls-7" d="M632.87,88.6s-.76-.1-.8-.76.9-.67.9-.67.61-.12.65.72A.63.63,0,0,1,632.87,88.6Z"/><path class="cls-7" d="M644.2,88.2s-.89-.22-.91-.76a.72.72,0,0,1,.91-.81c.6.1.86.43.78.78S645,88.16,644.2,88.2Z"/><path class="cls-8" d="M639,117.23a9.77,9.77,0,0,0,.3-3.36,1.88,1.88,0,0,0-1.73-.51c-1.13.2-1.65.18-1.77.83a10.61,10.61,0,0,0,0,2s0,1.32.94,1.12a2,2,0,0,1,1.46.11A.74.74,0,0,0,639,117.23Z"/><path class="cls-9" d="M637.78,120.81s.57.1.54-1.79l.24-2.58a2.73,2.73,0,0,0-.24-1.85c-.48-.62-1.46,0-1.46,0s-.61,0-.34,1.63C637.06,117.73,636.25,120.82,637.78,120.81Z"/><path class="cls-10" d="M637.06,104s.59.78,1.11,0"/><path class="cls-6" d="M660.11,93.36l-2.63.07s0,17.85.92,19.58,2.33-.18,2.33-.18C661.09,110.25,661.44,94,660.11,93.36Z"/><path class="cls-6" d="M658,94.81l2.45-1L659,90.51,649.75,75s-1.7-2.38-3.69-2.81S649.8,82,649.8,82Z"/><rect class="cls-11" x="649.3" y="115.66" width="13.53" height="8.13" transform="matrix(1, 0.07, -0.07, 1, 9.48, -43.62)"/><circle class="cls-12" cx="650.18" cy="116.06" r="0.41"/><circle class="cls-13" cx="650.19" cy="116.07" r="0.31"/><circle class="cls-14" cx="650.19" cy="116.07" r="0.28"/><path class="cls-15" d="M641.32,49.9l-.19-.21h-8.3a.78.78,0,0,0-.28.31c-4.1,3.58-.11,10-.11,10-.51-.65.45-3.33.45-3.33.38-2.67,1.23-2.41,1.23-2.41-.22.8.06.92.06.92S635.83,53.8,636,54s-.52,1-.52,1a5.12,5.12,0,0,0,1.36-.36s1.49-.8,1.51-.4-1.18,1-1.18,1-.12,0,.32.12a2.75,2.75,0,0,0,1.31-.38l.16.65,1-1.11.38-.08-.16.44.75.77.06-.65.42.1.2.53,1.07-.16,0,2.49c.66-.85.6-3,.6-3A10,10,0,0,0,641.32,49.9Z"/><path class="cls-6" d="M658.51,112.31l2.25-.65a3,3,0,0,1,.73,1.26c.15.68.94,3.87.94,3.87a3.73,3.73,0,0,1,0,2.1c-.39.66-1.31,0-1.31,0l-1.62-1-.22-1.1-1.71-1Z"/><path class="cls-6" d="M115.5,97.17s.1,3.19.65,4a2.44,2.44,0,0,0,1.37-.36s1.77-1.23,1.92-2.12c0,0,.5.06.25-1.93l1.48-1.2.08-.76a19.37,19.37,0,0,0-2.53-3.88c.9-1.87,2.49-13.34,3.65-18.83,0,0,0-5.43.9-7.85,0,0,1.09-11.22,1.56-12.74l0,18.34s-.21,7.2-.54,8.69-.72,12.66-.72,12.66l-1,23.94-.25,4.41h9.17c1.82-12.31,3.95-26.83,4-27.67.14-1.48,1.37-2.71,1.95.69.41,2.37.77,13.48,1.54,27h9.56l0-42.57s-.29-27.2,1.6-31.18a.75.75,0,0,0,0,.14L152.84,36a10.2,10.2,0,0,0-5.47-5.79s-4.6-1.81-6.26-1.59c0,0-.69-4.38-1.2-6.11,0,0,2.14-.94,2.54-7.38l.79-5.65-1.48-6L128.84,5.43v8s3.73,9.8,6.15,10l.37.07a21.69,21.69,0,0,0-.58,4.56,25.2,25.2,0,0,0-7.17,2.32c-2.71,1.59-5.64,3.4-6.25,12,0,0-1.6,10.93-1.7,13.06,0,0-1.56,6.3-.55,11.51a11,11,0,0,0-1.44,4.66s-2,15.38-1.81,18.56A11.93,11.93,0,0,0,115.5,97.17Z"/><path class="cls-7" d="M129.9,53.24s-1-.14-1.08-1,1.22-.9,1.22-.9.81-.16.87,1A.85.85,0,0,1,129.9,53.24Z"/><path class="cls-7" d="M145.18,52.69s-1.2-.29-1.22-1a1,1,0,0,1,1.22-1.08c.81.13,1.16.57,1.06,1S146.21,52.64,145.18,52.69Z"/><path class="cls-8" d="M138.12,91.85a13,13,0,0,0,.41-4.54,2.53,2.53,0,0,0-2.34-.67c-1.51.27-2.22.24-2.38,1.11a14.45,14.45,0,0,0,0,2.71s-.06,1.78,1.27,1.51a2.79,2.79,0,0,1,2,.15A1,1,0,0,0,138.12,91.85Z"/><path class="cls-9" d="M136.52,96.67s.77.14.73-2.41l.33-3.47a3.72,3.72,0,0,0-.33-2.5c-.65-.84-2,0-2,0s-.81.07-.45,2.2C135.55,92.52,134.46,96.7,136.52,96.67Z"/><path class="cls-10" d="M135.55,73.94s.79,1.06,1.49,0"/><path class="cls-6" d="M166.64,59.65l-3.54.1s.05,24.08,1.23,26.41,3.15-.25,3.15-.25C168,82.44,168.44,60.47,166.64,59.65Z"/><path class="cls-6" d="M163.76,61.6l3.31-1.27-1.9-4.52L152.66,34.92s-2.28-3.22-5-3.79,5,13.21,5,13.21Z"/><rect class="cls-11" x="152.06" y="89.74" width="18.25" height="10.97" transform="matrix(1, 0.07, -0.07, 1, 6.73, -10.57)"/><circle class="cls-12" cx="153.25" cy="90.28" r="0.55"/><circle class="cls-13" cx="153.26" cy="90.29" r="0.42"/><circle class="cls-14" cx="153.26" cy="90.29" r="0.37"/><path class="cls-15" d="M141.3,1c-.08-.1-.17-.19-.26-.29h-11.2a1.1,1.1,0,0,0-.37.42c-5.54,4.83-.15,13.45-.15,13.45-.69-.89.61-4.5.61-4.5.51-3.6,1.65-3.25,1.65-3.25-.29,1.08.09,1.25.09,1.25s2.22-1.82,2.38-1.52-.7,1.33-.7,1.33a7.07,7.07,0,0,0,1.84-.49s2-1.09,2-.54-1.6,1.33-1.6,1.33-.17,0,.43.16a3.69,3.69,0,0,0,1.76-.52l.22.87,1.3-1.49.52-.11-.22.6,1,1,.08-.87.57.14.27.7L143,8.53l0,3.36c.9-1.14.82-4.1.82-4.1A13.42,13.42,0,0,0,141.3,1Z"/><path class="cls-6" d="M164.49,85.22l3-.88a4.06,4.06,0,0,1,1,1.7c.21.91,1.28,5.21,1.28,5.21s.48,2-.05,2.84-1.76,0-1.76,0l-2.2-1.37-.29-1.49-2.31-1.38Z"/><path class="cls-6" d="M1082.23,131.75s.1,2.8.58,3.5a2.16,2.16,0,0,0,1.21-.31s1.55-1.09,1.68-1.87c0,0,.45.05.23-1.7l1.3-1.05.06-.67a16.69,16.69,0,0,0-2.22-3.42c.79-1.64,2.19-11.73,3.21-16.57,0,0,0-4.77.8-6.91,0,0,1-9.86,1.37-11.2l0,16.14s-.19,6.33-.48,7.64-.64,11.14-.64,11.14l-.92,21.07-.22,3.88h8.07c1.6-10.84,3.47-23.61,3.55-24.35.12-1.3,1.2-2.38,1.71.61.36,2.08.68,11.86,1.36,23.74h8.41l0-37.46s-.25-23.94,1.4-27.44a1.11,1.11,0,0,1,0,.13l2.35-8.73a9,9,0,0,0-4.81-5.09s-4-1.59-5.51-1.4c0,0-.61-3.85-1-5.38,0,0,1.88-.82,2.23-6.49l.7-5-1.31-5.28L1094,51v7s3.28,8.63,5.41,8.79l.32.06a19.34,19.34,0,0,0-.51,4,22.27,22.27,0,0,0-6.3,2c-2.39,1.4-5,3-5.51,10.6,0,0-1.4,9.61-1.5,11.49,0,0-1.37,5.54-.47,10.12a9.86,9.86,0,0,0-1.28,4.11s-1.75,13.53-1.59,16.33A10.5,10.5,0,0,0,1082.23,131.75Z"/><path class="cls-7" d="M1094.91,93.09s-.91-.12-1-.9,1.08-.79,1.08-.79.71-.14.76.85A.73.73,0,0,1,1094.91,93.09Z"/><path class="cls-7" d="M1108.35,92.62s-1-.27-1.07-.91a.84.84,0,0,1,1.07-1c.72.12,1,.51.93.92S1109.26,92.57,1108.35,92.62Z"/><path class="cls-8" d="M1102.14,127.07a11.54,11.54,0,0,0,.36-4,2.24,2.24,0,0,0-2.06-.6c-1.33.24-2,.22-2.09,1a12,12,0,0,0,0,2.39s-.06,1.56,1.12,1.33a2.48,2.48,0,0,1,1.72.12A.87.87,0,0,0,1102.14,127.07Z"/><path class="cls-9" d="M1100.73,131.31s.68.12.65-2.12l.29-3.06a3.32,3.32,0,0,0-.29-2.19c-.57-.74-1.74,0-1.74,0s-.72.06-.41,1.93C1099.87,127.66,1098.92,131.34,1100.73,131.31Z"/><path class="cls-10" d="M1099.87,111.31s.71.93,1.32,0"/><path class="cls-6" d="M1127.24,98.74l-3.12.08s0,21.19,1.08,23.24,2.77-.21,2.77-.21C1128.4,118.79,1128.82,99.46,1127.24,98.74Z"/><path class="cls-6" d="M1124.7,100.46l2.91-1.12-1.66-4-11-18.39s-2-2.83-4.37-3.33S1115,85.26,1115,85.26Z"/><rect class="cls-11" x="1114.4" y="125.21" width="16.06" height="9.65" transform="translate(11.21 -74.8) rotate(3.84)"/><circle class="cls-12" cx="1115.45" cy="125.69" r="0.48"/><circle class="cls-13" cx="1115.46" cy="125.69" r="0.37"/><circle class="cls-14" cx="1115.46" cy="125.69" r="0.33"/><path class="cls-15" d="M1104.94,47.16l-.23-.25h-9.85a.92.92,0,0,0-.33.37c-4.87,4.25-.13,11.83-.13,11.83-.61-.77.53-4,.53-4,.46-3.18,1.46-2.87,1.46-2.87-.26,1,.07,1.1.07,1.1s2-1.6,2.1-1.33-.62,1.17-.62,1.17a6.34,6.34,0,0,0,1.62-.43s1.77-1,1.8-.48-1.41,1.17-1.41,1.17-.15,0,.38.14a3.23,3.23,0,0,0,1.55-.45l.19.76,1.15-1.31.45-.1-.19.53.88.91.07-.77.51.12.23.62,1.27-.18,0,3c.79-1,.72-3.6.72-3.6A11.77,11.77,0,0,0,1104.94,47.16Z"/><path class="cls-6" d="M1125.34,121.23l2.67-.77a3.63,3.63,0,0,1,.86,1.49c.19.81,1.13,4.59,1.13,4.59a4.49,4.49,0,0,1,0,2.5c-.46.78-1.56,0-1.56,0l-1.93-1.21-.26-1.31-2-1.21Z"/><path class="cls-6" d="M1503.25,384.44s.11,3.36.69,4.21a2.57,2.57,0,0,0,1.45-.39s1.88-1.3,2-2.24c0,0,.54.06.27-2l1.57-1.27.08-.8a20.77,20.77,0,0,0-2.67-4.12c.94-2,2.63-14.11,3.85-19.93,0,0,0-5.74,1-8.31,0,0,1.15-11.86,1.65-13.47l0,19.41s-.23,7.62-.58,9.19-.76,13.4-.76,13.4l-1.11,25.35-.26,4.66h9.7c1.92-13,4.18-28.4,4.26-29.29.16-1.56,1.46-2.86,2.07.73.43,2.51.82,14.27,1.63,28.56h10.11l0-45.06s-.31-28.79,1.68-33l.06.15,2.82-10.49a10.78,10.78,0,0,0-5.79-6.13s-4.86-1.91-6.62-1.68c0,0-.73-4.63-1.27-6.47,0,0,2.26-1,2.68-7.81l.85-6-1.57-6.36-13.67,2.07v8.46s3.94,10.37,6.51,10.57l.38.07a23.72,23.72,0,0,0-.61,4.83,26.59,26.59,0,0,0-7.58,2.45c-2.88,1.68-6,3.6-6.63,12.75,0,0-1.68,11.56-1.8,13.82,0,0-1.64,6.66-.57,12.17a11.8,11.8,0,0,0-1.53,4.94s-2.11,16.28-1.92,19.65A12.7,12.7,0,0,0,1503.25,384.44Z"/><path class="cls-7" d="M1518.5,337.93s-1.09-.14-1.15-1.09,1.29-.94,1.29-.94.86-.18.92,1A.88.88,0,0,1,1518.5,337.93Z"/><path class="cls-7" d="M1534.66,337.36s-1.26-.32-1.29-1.09a1,1,0,0,1,1.29-1.15c.87.14,1.24.61,1.12,1.11S1535.76,337.3,1534.66,337.36Z"/><path class="cls-8" d="M1527.2,378.8a13.9,13.9,0,0,0,.43-4.8,2.71,2.71,0,0,0-2.47-.72c-1.61.29-2.35.26-2.53,1.18a15.25,15.25,0,0,0,0,2.87s-.06,1.89,1.35,1.61a3,3,0,0,1,2.08.14A1,1,0,0,0,1527.2,378.8Z"/><path class="cls-9" d="M1525.5,383.91s.81.14.78-2.56l.34-3.67a4,4,0,0,0-.34-2.64c-.69-.89-2.1,0-2.1,0s-.86.07-.48,2.32C1524.47,379.52,1523.32,383.93,1525.5,383.91Z"/><path class="cls-10" d="M1524.47,359.84s.84,1.12,1.59,0"/><path class="cls-6" d="M1557.39,344.73l-3.76.1s0,25.48,1.31,27.95,3.33-.26,3.33-.26C1558.78,368.85,1559.28,345.59,1557.39,344.73Z"/><path class="cls-6" d="M1554.33,346.79l3.5-1.35-2-4.78-13.24-22.11s-2.42-3.41-5.26-4,5.34,14,5.34,14Z"/><rect class="cls-11" x="1541.95" y="376.57" width="19.32" height="11.61" transform="translate(29.06 -102.94) rotate(3.84)"/><circle class="cls-12" cx="1543.21" cy="377.14" r="0.58"/><circle class="cls-13" cx="1543.22" cy="377.15" r="0.44"/><circle class="cls-14" cx="1543.22" cy="377.15" r="0.39"/><path class="cls-15" d="M1530.56,282.68l-.27-.29h-11.85a1,1,0,0,0-.4.44c-5.86,5.11-.16,14.23-.16,14.23-.73-.93.65-4.76.65-4.76.54-3.81,1.75-3.44,1.75-3.44-.32,1.15.08,1.32.08,1.32s2.36-1.92,2.53-1.61-.75,1.41-.75,1.41a7.29,7.29,0,0,0,2-.52s2.12-1.15,2.15-.57-1.69,1.4-1.69,1.4-.18,0,.46.18a3.88,3.88,0,0,0,1.86-.55l.23.92,1.38-1.58.55-.11-.23.63,1.06,1.09.09-.92.6.14.29.75,1.52-.22,0,3.55c.94-1.2.86-4.33.86-4.33A14.22,14.22,0,0,0,1530.56,282.68Z"/><path class="cls-6" d="M1555.11,371.78l3.21-.92a4.34,4.34,0,0,1,1,1.79c.22,1,1.35,5.52,1.35,5.52s.51,2.06,0,3-1.87,0-1.87,0l-2.32-1.45-.32-1.58-2.44-1.46Z"/><polygon class="cls-6" points="1513.23 0.75 1509.87 0.75 1516.38 10.96 1518.38 10.19 1517.24 7.44 1513.23 0.75"/><path class="cls-6" d="M1490.45.75c-.29,2-.78,5.57-.82,6.48a19,19,0,0,0-.33,7,6.85,6.85,0,0,0-.88,2.83s-1.21,9.33-1.1,11.26a7.26,7.26,0,0,0-.22,4.23,8,8,0,0,0,.4,2.42,1.52,1.52,0,0,0,.83-.22s1.08-.75,1.17-1.29c0,0,.3,0,.15-1.17l.9-.73,0-.46a11.75,11.75,0,0,0-1.53-2.36c.55-1.13,1.51-8.08,2.21-11.42a20.25,20.25,0,0,1,.55-4.76s.66-6.8,1-7.72l0,11.12s-.13,4.37-.33,5.27-.44,7.68-.44,7.68l-.64,14.53-.15,2.67h5.56c1.11-7.47,2.4-16.28,2.45-16.79.09-.89.83-1.64,1.18.42.25,1.44.47,8.18.94,16.37h5.79V20.27s-.18-16.51,1-18.92l0,.09.18-.69Z"/><path class="cls-7" d="M1495.84,5.88s-.62-.08-.66-.62.74-.55.74-.55.5-.09.53.59A.51.51,0,0,1,1495.84,5.88Z"/><path class="cls-7" d="M1505.11,5.55s-.73-.18-.74-.62a.58.58,0,0,1,.74-.66c.49.08.71.35.64.63S1505.73,5.52,1505.11,5.55Z"/><path class="cls-8" d="M1500.83,29.3a8,8,0,0,0,.25-2.75,1.57,1.57,0,0,0-1.42-.41c-.92.17-1.35.15-1.45.68a8.48,8.48,0,0,0,0,1.64s0,1.08.77.92a1.68,1.68,0,0,1,1.19.09A.6.6,0,0,0,1500.83,29.3Z"/><path class="cls-9" d="M1499.86,32.23s.46.08.44-1.46l.2-2.11a2.27,2.27,0,0,0-.2-1.52c-.39-.51-1.2,0-1.2,0s-.49.05-.28,1.34C1499.27,29.71,1498.61,32.24,1499.86,32.23Z"/><path class="cls-10" d="M1499.27,18.44s.48.64.9,0"/><path class="cls-6" d="M1518.13,9.77l-2.15.06s0,14.61.75,16,1.9-.15,1.9-.15C1518.93,23.6,1519.22,10.27,1518.13,9.77Z"/><rect class="cls-11" x="1509.28" y="28.02" width="11.07" height="6.65" transform="translate(5.49 -101.27) rotate(3.84)"/><circle class="cls-12" cx="1510" cy="28.35" r="0.33"/><circle class="cls-13" cx="1510.01" cy="28.36" r="0.25"/><circle class="cls-14" cx="1510.01" cy="28.36" r="0.23"/><path class="cls-6" d="M1516.82,25.28l1.84-.53a2.5,2.5,0,0,1,.6,1c.12.55.77,3.16.77,3.16a3.06,3.06,0,0,1,0,1.72c-.31.54-1.07,0-1.07,0l-1.33-.83-.18-.91-1.4-.84Z"/><rect class="cls-16" x="867.7" y="1009.96" width="158.73" height="18.45"/><rect class="cls-17" x="972.53" y="1009.96" width="53.9" height="18.45"/><path class="cls-18" d="M992.7,1015.41a.43.43,0,0,1-.42.44.84.84,0,0,1-.47-.18,1.74,1.74,0,0,0-1.08-.35,1.17,1.17,0,0,0-1.3,1.12c0,.64.41,1,1.6,1.38a3.43,3.43,0,0,1,1.82,1.07,2.1,2.1,0,0,1,.37,1.22,2.52,2.52,0,0,1-2.71,2.51c-1.18,0-2.22-.46-2.22-1a.44.44,0,0,1,.4-.48.94.94,0,0,1,.47.19,2.49,2.49,0,0,0,1.35.43,1.58,1.58,0,0,0,1.66-1.6c0-.7-.42-1.07-1.67-1.48a3.41,3.41,0,0,1-1.77-1,1.88,1.88,0,0,1-.35-1.11,2.23,2.23,0,0,1,2.35-2.09C991.77,1014.47,992.7,1014.91,992.7,1015.41Z"/><path class="cls-18" d="M994.82,1019.94a1.82,1.82,0,0,0,.52,1.34,1.67,1.67,0,0,0,1.27.48,2.28,2.28,0,0,0,1.58-.58c.23-.18.33-.23.43-.23a.4.4,0,0,1,.35.42c0,.57-1.32,1.25-2.43,1.25a2.73,2.73,0,0,1-2.7-3,2.8,2.8,0,0,1,2.66-3.08,2.71,2.71,0,0,1,2.59,2.89c0,.41-.14.55-.55.55Zm3.29-.74c-.05-1.17-.66-1.85-1.66-1.85s-1.54.62-1.63,1.85Z"/><path class="cls-18" d="M1001.05,1017.29a2,2,0,0,1,1.64-.79,2.05,2.05,0,0,1,2.09,2.26v3.33a.48.48,0,0,1-.49.53.49.49,0,0,1-.5-.53v-3.26a1.38,1.38,0,1,0-2.76,0v3.26a.49.49,0,0,1-.5.53.48.48,0,0,1-.49-.53V1017a.47.47,0,0,1,.49-.53.48.48,0,0,1,.5.53v.24Z"/><path class="cls-18" d="M1010,1014.4a.49.49,0,1,1,1,0v7.69a.49.49,0,1,1-1,0v-.3h0a1.61,1.61,0,0,1-1.56.83c-1.5,0-2.58-1.28-2.58-3.06s1.08-3.06,2.53-3.06a1.92,1.92,0,0,1,1.61.81h0Zm-3.18,5.16c0,1.34.65,2.2,1.65,2.2s1.63-.87,1.63-2.19-.65-2.22-1.65-2.22S1006.83,1018.23,1006.83,1019.56Z"/></svg>