<svg id="Layer_1" data-name="Layer 1" xmlns="http://www.w3.org/2000/svg" width="67.73cm" height="38.1cm" viewBox="0 0 1920 1080"><defs><style>.cls-1{fill:#2f3f51;}.cls-2,.cls-5{fill:#ee8978;}.cls-3{fill:#e86c55;}.cls-4,.cls-9{fill:none;}.cls-4,.cls-5{stroke:#e6e7e8;}.cls-4,.cls-5,.cls-9{stroke-miterlimit:10;}.cls-6{fill:#f1f2f2;}.cls-7{fill:#ed8878;}.cls-8{fill:#f0efef;}.cls-9{stroke:#fff;}.cls-10{fill:#fff;}</style></defs><title>vinder_skaerm</title><rect class="cls-1" y="0.91" width="1920" height="1083.51"/><rect class="cls-2" x="957.21" y="282.99" width="143.45" height="551.03"/><rect class="cls-2" x="1126.32" y="289.11" width="143.55" height="550.82"/><path class="cls-3" d="M1166,520.7s-3.71,13.52-7.43,20.59c0,0-6.55,16.47-7.35,48.4a44.79,44.79,0,0,0,3,20.43s5.87,19.08,9.1,20.74a31.71,31.71,0,0,0,10.11,4.12s14.56,6,19.88,1.94c0,0,13.54-.46,32.24-17.17,1.2.08,8.9-11.27,9.39-20,0,0,.88-2.1.51-9.63,0,0-.14-12.67-2.11-29.68,0,0-1.74-16-1.6-18.26A48.12,48.12,0,0,0,1227,522l-7.86-23.15s-8.45,12.43-23.08,18.88c0,0-4.73,5.12-21,5C1175,522.72,1171,523.42,1166,520.7Z"/><path class="cls-3" d="M1011.41,447.05s-8.74,3.92-8.52,13c0,0-3.5,9.56-3.5,17.72l.66,16.43L1003,526a69,69,0,0,0,24.25,15.71A21.06,21.06,0,0,0,1034,543c5.23.18,13-1.05,21.62-7.51,0,0,3-1.28,7.75-12,0,0,3.49-2,2.95-23.54,0,0-.11-8.86-7.65-24.13,0,0-3.38-5.12-3.71-9.78a39.67,39.67,0,0,0-8.08,2.79,48.36,48.36,0,0,1-17.36-.58s-6.77.12-11.9-7.69C1017.63,460.53,1011.08,449.89,1011.41,447.05Z"/><rect class="cls-2" x="619.08" y="282.99" width="143.45" height="551.03"/><rect class="cls-2" x="449.89" y="283.42" width="143.55" height="550.82"/><rect class="cls-2" x="788.02" y="283.42" width="143.55" height="550.82"/><rect class="cls-2" x="1296.59" y="283.42" width="143.55" height="550.82"/><path class="cls-3" d="M500.34,710.55s-5.57-9.67-12.56-33.09c0,0-4.91-13.64,1.53-34.26l1.53-9.21s10.26,9.09,21.51,6.76c0,0,6.44-1.63,10.15-.93,0,0,17.58-1.75,16.27-9l5.14,11.31,2.83,7.22s1.1,1,.66,6.06,5.35,15.73,5.35,15.73,3.49,7.46,2.18,12.47l-.87,7a7.35,7.35,0,0,1-3.06,5.94s.33,2.21-7.86,5.94l-2,1.28s-8.63,9.56-15.95,10.61A36.87,36.87,0,0,1,500.34,710.55Z"/><path class="cls-3" d="M682.69,555.72s-3.06,1.78-10.19,1.4c0,0-9.83-2-14.71-7.46l-4.88-4s-13.68-6.37-7-41l6.4-33.18s1.53-3.42-2-12.2c0,0-2.4-8.77,10.12-11.1,0,0,1.17,30.84,9.46,36.59,0,0,.37.62,2.19.54l27.73.08s7,.08,8.74-3.42c0,0,1.31-8.16,7.64-10.41a17.44,17.44,0,0,0,6-1.48s1.75-2.25,1.9,3.66a23.32,23.32,0,0,1-1.53,12.35l-1.68,19.26s.22,4.43-3.35,13.52l-7.86,20.2s-7.64,21.63-26.13,18.08Z"/><path class="cls-4" d="M543.36,697.85s1.86-14.22,0-22.14c0,0-.66-4.08-9.72-16L530,655"/><path class="cls-2" d="M628.67,512.68s-8.29,5.9-11,9.55c0,0-2,3.5-8.66,4.74,0,0-1.25-.54-9.8,4.28,0,0-17.57,9.94-21.43,13,0,0-8.44,6.13-18.71,12.89l-12.37,7.95S545.4,568,531,569.08a53.88,53.88,0,0,0-27,8.47l34.58,51.58s0-10.55,26.82-17.23c0,0,21.36-8.25,25.15-11.36,0,0,23.15-12,31.3-21.9,0,0,7-7.46,11.07-7.77,0,0,18.45-22.94,28.82-38.42,3.81-5.69,6.53-10.38,6.84-12.55,1.17-8.08-7.57-14.45-7.57-14.45s-5.38-4.19-15.87,0l-1.45,1.25,6.55,5.28-8-6.53s-7.42-5.12-9.31-4.19c0,0-5.68-.62-5.25,8.7,0,0,.44,1.86,3.94,4.19,0,0,9.9,8.55,12.81,9.33,0,0,12.08,9.63,15.87,8.85l1.32,0"/><path class="cls-4" d="M628.67,512.68s-8.29,5.9-11,9.55c0,0-2,3.5-8.66,4.74,0,0-1.25-.54-9.8,4.28,0,0-17.57,9.94-21.43,13,0,0-8.44,6.13-18.71,12.89l-12.37,7.95S545.4,568,531,569.08a53.88,53.88,0,0,0-27,8.47l34.58,51.58s0-10.55,26.82-17.23c0,0,21.36-8.25,25.15-11.36,0,0,23.15-12,31.3-21.9,0,0,7-7.46,11.07-7.77,0,0,18.45-22.94,28.82-38.42,3.81-5.69,6.53-10.38,6.84-12.55,1.17-8.08-7.57-14.45-7.57-14.45s-5.38-4.19-15.87,0l-1.45,1.25,6.55,5.28-8-6.53s-7.42-5.12-9.31-4.19c0,0-5.68-.62-5.25,8.7,0,0,.44,1.86,3.94,4.19,0,0,9.9,8.55,12.81,9.33,0,0,12.08,9.63,15.87,8.85l1.32,0"/><polygon class="cls-2" points="499.68 580.19 509.15 575.53 538.66 624.38 538.06 631.95 499.68 580.19"/><path class="cls-2" d="M682.47,556.88s7.14-5.44,8.34-9.09c0,0,1.56-7.22,4.4-9a13.45,13.45,0,0,0,4.8-8.39"/><path class="cls-4" d="M682.47,556.88s7.14-5.44,8.34-9.09c0,0,1.56-7.22,4.4-9a13.45,13.45,0,0,0,4.8-8.39"/><line class="cls-2" x1="701.54" y1="516.95" x2="702.92" y2="503.35"/><line class="cls-4" x1="701.54" y1="516.95" x2="702.92" y2="503.35"/><path class="cls-2" d="M798.06,368.35l-10.84,6.43-12.89,7.38-14,7.85c-2,1-12.67,8-12.67,8-1.89.85-14.48,9.86-14.48,9.86a92.69,92.69,0,0,1-19.37,12.59c-7.2,4.43-19.22,2.87-19.22,2.87L709,481.6s1.75-9.93,8.52-10.17c0,0,8.88-2,21.91-8.55l15-6.14s4.68-3,8-3.52c0,0,1.54,1.23,36.84-25.92a59.46,59.46,0,0,0,15.51-18.1l14.27-21.06s3.56-5,5.38-6.45c0,0,4.74-.62,4.15-10.25,0,0,1-4.66-8.66-12.35,0,0-2.33-2.18-10.19-1.25,0,0-6.41.93-8.66,3.58l7.35,5.9L810,360.48s-4.66-3.88-7.71-4.27-5.46,1.24-5.9,8.39c0,0-.36,3.26,5,6.37,0,0,5.9,6.29,23.08,15.31l4.07,1.71"/><path class="cls-4" d="M798.06,368.35l-10.84,6.43-12.89,7.38-14,7.85c-2,1-12.67,8-12.67,8-1.89.85-14.48,9.86-14.48,9.86a92.69,92.69,0,0,1-19.37,12.59c-7.2,4.43-19.22,2.87-19.22,2.87L709,481.6s1.75-9.93,8.52-10.17c0,0,8.88-2,21.91-8.55l15-6.14s4.68-3,8-3.52c0,0,1.54,1.23,36.84-25.92a59.46,59.46,0,0,0,15.51-18.1l14.27-21.06s3.56-5,5.38-6.45c0,0,4.74-.62,4.15-10.25,0,0,1-4.66-8.66-12.35,0,0-2.33-2.18-10.19-1.25,0,0-6.41.93-8.66,3.58l7.35,5.9L810,360.48s-4.66-3.88-7.71-4.27-5.46,1.24-5.9,8.39c0,0-.36,3.26,5,6.37,0,0,5.9,6.29,23.08,15.31l4.07,1.71"/><polygon class="cls-2" points="695.25 424.5 671.79 424.01 704.69 483.99 708.25 483.06 710.08 475.76 695.25 424.5"/><path class="cls-3" d="M843.46,576.22s-10.45,3-14.16,22.3c0,0-8.48,32.32-5.13,46.3,0,0,2.87,14.69,5.75,19.5s8.15,13,22.78,18.07c0,0,12.52,4.58,22.78-2.3,1-.16,13.91,2.88,19.73-7.53,0,0,4-4.55,7.39-22.69,0,0,1.57-14.84-.55-25.36l-2.11-12.39s.4-4.08-4-8.43l-.91-.78s-2.8,6.37-6,8.24c0,0-.44,2.29-5.68,1.94,0,0-4.91,1-18-4.74L851.9,602s-8.88-4.24-8.19-9.75c0,0-.62-11.5,1.13-16.47Z"/><path class="cls-4" d="M876.88,678.55s3-3.52,3.25-12.21"/><path class="cls-2" d="M984,488.63,973.14,495,960.2,502.2l-14.05,7.71c-2,1-12.74,7.87-12.74,7.87-1.9.84-14.57,9.72-14.57,9.72a92.9,92.9,0,0,1-19.47,12.39c-7.25,4.35-19.24,2.68-19.24,2.68l13.3,63.35s5.87-14,12.64-14.21c6.84-.42,12-3.12,18.2-8.24L938.32,578a55.79,55.79,0,0,1,8.74-2.57c8.76-3.41,8.35-3.39,37.78-27.8a59.21,59.21,0,0,0,15.66-18l14.45-20.9s3.61-4.94,5.45-6.4c0,0,4.73-.57,4.24-10.21,0,0,1-4.65-8.56-12.44,0,0-2.31-2.2-10.17-1.35,0,0-6.42.87-8.7,3.49l7.3,6-8.46-6.92s-4.62-3.94-7.67-4.35-5.47,1.18-6,8.33c0,0-.4,3.26,5,6.42,0,0,5.84,6.35,22.94,15.53l4.06,1.75"/><path class="cls-4" d="M984,488.63,973.14,495,960.2,502.2l-14.05,7.71c-2,1-12.74,7.87-12.74,7.87-1.9.84-14.57,9.72-14.57,9.72a92.9,92.9,0,0,1-19.47,12.39c-7.25,4.35-19.24,2.68-19.24,2.68l13.3,63.35s5.87-14,12.64-14.21c6.84-.42,12-3.12,18.2-8.24L938.32,578a55.79,55.79,0,0,1,8.74-2.57c8.76-3.41,8.35-3.39,37.78-27.8a59.21,59.21,0,0,0,15.66-18l14.45-20.9s3.61-4.94,5.45-6.4c0,0,4.73-.57,4.24-10.21,0,0,1-4.65-8.56-12.44,0,0-2.31-2.2-10.17-1.35,0,0-6.42.87-8.7,3.49l7.3,6-8.46-6.92s-4.62-3.94-7.67-4.35-5.47,1.18-6,8.33c0,0-.4,3.26,5,6.42,0,0,5.84,6.35,22.94,15.53l4.06,1.75"/><polygon class="cls-2" points="894.86 601.26 892.9 606 875.94 543 876.3 541.75 879.36 542.68 880.67 543.15 894.86 601.26"/><path class="cls-4" d="M1046.35,518.1s-1.1,11.07-4.15,18.06c0,0-.22,2.89-8.19,6.81"/><path class="cls-5" d="M1155.75,342.76c-6.66,2.85-25,13.59-25,13.59-4.8,1.4-27.62,18.76-27.62,18.76-2.52.47-8.74,5.13-8.74,5.13-8.19,6.52-28,17.71-28,17.71-2.68,1.4-14.69,2.1-14.69,2.1l12.23,58.85,5.13-7.58a15.46,15.46,0,0,1,8.19-5.47s31.44-12.47,36.25-15.5c0,0,20.31-9.21,35.49-21.21,0,0,9.06-5.95,23.8-25.52,0,0,16.92-19.81,21.07-29.49,0,0,5.35-21.44-14-20.62,0,0-7.32-1.05-10.81,2.91l8.19,6.41L1165.69,334s-5.24-5.38-9.06-.59c0,0-3.06,6.42-1.75,7.7,0,0-1.42,2.91,24.57,18.53,0,0,6.44,3.61,8.52,3.15"/><path class="cls-4" d="M1215.59,587.59s-5.75-7.54-3.27-22.14l2.91-18.72"/><path class="cls-4" d="M1200.89,564.52s-2.55-16.4,6.91-35.51"/><path class="cls-4" d="M1194.84,634.9a16,16,0,0,0,9.35-8.62l2.81-9s.37-2.57,3.28-7.23"/><path class="cls-5" d="M1296.59,373.85l-1.13.33c-3.22.58-10.86,8.5-10.86,8.5l-12.23,6.65a121.73,121.73,0,0,0-15.78,8.85s-9.39,5.71-20.09,12.53-13,9-13,9c-10.21,12.18-31.83,12.47-31.83,12.47l12.57,59.12s4.12-10.17,12.78-12.89l29.27-12.12s18.78-8,20.52-10.1l20.61-14s7.06-5.44,10.77-10.33l19.36-22.06s9-14.07,10.92-16.4c0,0-9-2.72-14.12-6.76L1301,377.6a45,45,0,0,1-4.75-4.12,4.73,4.73,0,0,1-1.22-1.79c-.37-1.71.07-4.35,1.67-7.54s5.61-1.47,5.61-1.47,6,3,7.42,4.82c0,0,6.63,4.5,7.94,5.9l-7.9-6s5-2.14,6.83-1.7,9.46-1.21,12.13,1.35,6.33,5.14,7,7.92A22.24,22.24,0,0,1,1336,382a12.49,12.49,0,0,1-4,7.46l-4,4.68"/><path class="cls-5" d="M1475,507a42.6,42.6,0,0,1-10.34,7.76c-1.67.7-7.13,3.66-7.13,3.66l-12.23,7.3-20.68,13.36s-7.79,4.82-23.14,14.92a69.84,69.84,0,0,1-30,11.19l12.74,58.26s1.75-8.93,13-12.74c0,0,26.79-7.77,34.58-13.44l14.27-7.77s14.27-9.17,21.18-16.55c0,0,10.77-9.47,17.33-17s12.37-12.82,15.94-21c0,0,5.24-8.54,8.3-10.25a16.52,16.52,0,0,0,4.29-17c-3.13-10.73-18.42-8.24-18.42-8.24l-6.47.93,7.35,6-9-7.16L1481,496s-4.37-3-6.12,1.17l-1.53,6.21s-1.31.78,1.68,3.66S1491,519.3,1491,519.3s13.66,8.2,15.07,7.38"/><polygon class="cls-2" points="1369.77 565.53 1375.88 565.91 1384.76 620.45 1382.87 627.29 1365.84 565.14 1369.77 565.53"/><path class="cls-3" d="M1349.6,624.34s22.13,12.27,34.51,2.95c0,0,7.42-4.51,9.61-7.3l-.88,3.49s-4.51,13.6-4.8,18.1c0,0-1.6,3.27-1,22.84a205.82,205.82,0,0,1,.73,23.62s.29,12.74-7.14,23.78-31.48,15.84-31.48,15.84-6,1.44-8.77,1.05c0,0-15.76,5.44-17.73-1.86,0,0-1.42-11.31-2.73-15.85a22.58,22.58,0,0,1,1.9-14.84s2.58-9.67,3.93-11.61,1.16-4.35,5.42-12.47c0,0,0-2.06,5.71-15s6.41-14.45,7.07-18.88S1345.85,625.89,1349.6,624.34Z"/><path class="cls-4" d="M1354,724.21s9.7-4.78,14.79-14.26,3.79-10.41,3.79-10.41"/><polygon class="cls-2" points="1061.2 458.9 1063.53 458.9 1065.16 456.37 1052.72 400.44 1048.82 400.59 1061.2 458.9"/><polygon class="cls-2" points="1204.53 489.62 1202.6 493.94 1189.71 432.21 1191.31 432.61 1192.18 432.55 1204.53 489.62"/><path class="cls-6" d="M93.2,995.3c0,1-.45,1.5-1.23,1.5s-1.23-.54-1.23-1.5V977.93c0-1,.45-1.5,1.23-1.5s1.23.54,1.23,1.5v7.59h10.56v-7.59c0-1,.45-1.5,1.23-1.5s1.23.54,1.23,1.5V995.3c0,1-.45,1.5-1.23,1.5s-1.23-.54-1.23-1.5v-7.65H93.2Z"/><path class="cls-6" d="M117.29,982.46a1.2,1.2,0,0,1,1.26-1,1.11,1.11,0,0,1,1.17,1.14,2.36,2.36,0,0,1-.27,1l-4.29,12.06c-.3.84-.57,1.08-1.29,1.08s-1-.24-1.29-1.08l-4.32-12.06-.09-.24a2.73,2.73,0,0,1-.15-.78,1.1,1.1,0,0,1,1.14-1.14,1.25,1.25,0,0,1,1.29,1l3.39,10.35h.06Z"/><path class="cls-6" d="M124.31,978a1.52,1.52,0,1,1-1.53-1.53A1.49,1.49,0,0,1,124.31,978Zm-.3,17.52a1.23,1.23,0,1,1-2.46,0V982.82a1.23,1.23,0,1,1,2.46,0Z"/><path class="cls-6" d="M137,984.17a1,1,0,0,1-1.08,1,1.92,1.92,0,0,1-1.2-.54,4,4,0,0,0-2.7-1c-1.53,0-2.61.75-2.61,1.83s.9,1.62,3.24,2.46c3.36,1.2,4.74,2.46,4.74,4.41,0,2.61-2.28,4.47-5.49,4.47-2.85,0-5.58-1.41-5.58-2.88a1,1,0,0,1,1-1.08,2.53,2.53,0,0,1,1.29.63,5.37,5.37,0,0,0,3.36,1.2c1.65,0,2.91-.9,2.91-2s-1-1.8-3.45-2.76c-3.24-1.26-4.5-2.43-4.5-4.17,0-2.4,2.16-4.2,5-4.2C134.54,981.5,137,982.82,137,984.17Z"/><path class="cls-6" d="M156.59,976.25a1.23,1.23,0,1,1,2.46,0v19.23a1.23,1.23,0,1,1-2.46,0v-.75h-.06a4,4,0,0,1-3.9,2.07c-3.75,0-6.45-3.18-6.45-7.65s2.7-7.65,6.33-7.65a4.79,4.79,0,0,1,4,2h.06Zm-8,12.9c0,3.36,1.62,5.52,4.11,5.52s4.08-2.19,4.08-5.49-1.62-5.55-4.11-5.55S148.64,985.82,148.64,989.15Z"/><path class="cls-6" d="M162.41,982.82a1.23,1.23,0,1,1,2.46,0v7.92c0,2.61,1.17,3.93,3.45,3.93s3.48-1.32,3.48-3.93v-7.92a1.23,1.23,0,1,1,2.46,0v8c0,3.75-2.22,6-5.94,6s-5.91-2.22-5.91-6Z"/><path class="cls-6" d="M194.3,984.17a1,1,0,0,1-1.08,1,1.92,1.92,0,0,1-1.2-.54,4,4,0,0,0-2.7-1c-1.53,0-2.61.75-2.61,1.83s.9,1.62,3.24,2.46c3.36,1.2,4.74,2.46,4.74,4.41,0,2.61-2.28,4.47-5.49,4.47-2.85,0-5.58-1.41-5.58-2.88a1,1,0,0,1,1-1.08,2.53,2.53,0,0,1,1.29.63,5.37,5.37,0,0,0,3.36,1.2c1.65,0,2.91-.9,2.91-2s-1-1.8-3.45-2.76c-3.24-1.26-4.5-2.43-4.5-4.17,0-2.4,2.16-4.2,5-4.2C191.81,981.5,194.3,982.82,194.3,984.17Z"/><path class="cls-6" d="M198.05,978.44a1.23,1.23,0,1,1,2.46,0v3.24h1c.78,0,1.23.39,1.23,1.08s-.45,1-1.23,1h-1v11.67a1.23,1.23,0,1,1-2.46,0V983.81h-1c-.78,0-1.23-.39-1.23-1s.45-1.08,1.23-1.08h1Z"/><path class="cls-6" d="M214.46,982.73a1.16,1.16,0,1,1,2.31,0v12.84a1.16,1.16,0,1,1-2.31,0v-1h-.06a4.74,4.74,0,0,1-4.14,2.25c-3.75,0-6.51-3.24-6.51-7.65s2.76-7.65,6.54-7.65a5.14,5.14,0,0,1,4.11,2h.06Zm-8.25,6.39c0,3.39,1.62,5.55,4.11,5.55s4.11-2.19,4.11-5.52-1.62-5.52-4.11-5.52S206.21,985.82,206.21,989.12Z"/><path class="cls-6" d="M229.82,976.25a1.23,1.23,0,1,1,2.46,0v19.23a1.23,1.23,0,1,1-2.46,0v-.75h-.06a4,4,0,0,1-3.9,2.07c-3.75,0-6.45-3.18-6.45-7.65s2.7-7.65,6.33-7.65a4.79,4.79,0,0,1,4,2h.06Zm-7.95,12.9c0,3.36,1.62,5.52,4.11,5.52s4.08-2.19,4.08-5.49-1.62-5.55-4.11-5.55S221.87,985.82,221.87,989.15Z"/><path class="cls-6" d="M238.4,978a1.52,1.52,0,1,1-1.53-1.53A1.49,1.49,0,0,1,238.4,978Zm-.3,17.52a1.23,1.23,0,1,1-2.46,0V982.82a1.23,1.23,0,1,1,2.46,0Z"/><path class="cls-6" d="M251.21,982.73a1.22,1.22,0,0,1,1.32-1.23,1.15,1.15,0,0,1,1.17,1.23v12.81c0,4.32-2.64,7.14-6.69,7.14-2.73,0-5.79-1.47-5.79-2.76a1,1,0,0,1,1-1.11,2.81,2.81,0,0,1,1.44.6,6.05,6.05,0,0,0,3.45,1.14c2.55,0,4.08-1.74,4.08-4.59v-1.32h-.06a4.19,4.19,0,0,1-3.87,2.16c-3.72,0-6.48-3.24-6.48-7.65s2.76-7.65,6.42-7.65a5,5,0,0,1,3.93,1.89h.06Zm-8,6.39c0,3.39,1.62,5.55,4.11,5.55s4.11-2.22,4.11-5.52-1.65-5.52-4.11-5.52S243.26,985.82,243.26,989.12Z"/><path class="cls-6" d="M265.64,990.11a4.6,4.6,0,0,0,1.29,3.36,4.27,4.27,0,0,0,3.18,1.2,5.73,5.73,0,0,0,4-1.47c.57-.45.81-.57,1.08-.57a1,1,0,0,1,.87,1c0,1.44-3.3,3.12-6.09,3.12-4.05,0-6.75-3-6.75-7.59s2.82-7.71,6.66-7.71c3.66,0,6.48,3.15,6.48,7.23,0,1-.36,1.38-1.38,1.38Zm8.22-1.86c-.12-2.91-1.65-4.62-4.14-4.62s-3.87,1.56-4.08,4.62Z"/><path class="cls-6" d="M281.21,984.08a4.33,4.33,0,0,1,3.39-2.58,1.25,1.25,0,0,1,1.35,1.26c0,.72-.48,1.14-1.53,1.35a3.92,3.92,0,0,0-3.27,4.26v7.11a1.23,1.23,0,1,1-2.46,0V982.82a1.23,1.23,0,1,1,2.46,0v1.26Z"/><path class="cls-6" d="M297.32,978a1.52,1.52,0,1,1-1.53-1.53A1.49,1.49,0,0,1,297.32,978Zm-.3,17.52a1.23,1.23,0,1,1-2.46,0V982.82a1.23,1.23,0,1,1,2.46,0Z"/><path class="cls-6" d="M308.12,978.44a1.23,1.23,0,1,1,2.46,0v3.24h1c.78,0,1.23.39,1.23,1.08s-.45,1-1.23,1h-1v11.67a1.23,1.23,0,1,1-2.46,0V983.81h-1c-.78,0-1.23-.39-1.23-1s.45-1.08,1.23-1.08h1Z"/><path class="cls-6" d="M323.21,982.46a1.2,1.2,0,0,1,1.26-1,1.11,1.11,0,0,1,1.17,1.14,2.36,2.36,0,0,1-.27,1l-4.29,12.06c-.3.84-.57,1.08-1.29,1.08s-1-.24-1.29-1.08l-4.32-12.06-.09-.24a2.73,2.73,0,0,1-.15-.78,1.1,1.1,0,0,1,1.14-1.14,1.25,1.25,0,0,1,1.29,1l3.39,10.35h.06Z"/><path class="cls-6" d="M330.23,978a1.52,1.52,0,1,1-1.53-1.53A1.49,1.49,0,0,1,330.23,978Zm-.3,17.52a1.23,1.23,0,1,1-2.46,0V982.82a1.23,1.23,0,1,1,2.46,0Z"/><path class="cls-6" d="M341.05,982.46a1.21,1.21,0,0,1,1.27-1,1.11,1.11,0,0,1,1.17,1.14,2.53,2.53,0,0,1-.27,1l-4.29,12.06c-.3.84-.57,1.08-1.29,1.08s-1-.24-1.29-1.08L332,983.66l-.09-.24a2.73,2.73,0,0,1-.15-.78,1.1,1.1,0,0,1,1.14-1.14,1.25,1.25,0,0,1,1.29,1l3.39,10.35h.06Z"/><path class="cls-6" d="M347.77,995.48a1.23,1.23,0,1,1-2.45,0V976.25a1.23,1.23,0,1,1,2.45,0Z"/><path class="cls-6" d="M370.57,989.15c0,4.44-2.76,7.65-6.57,7.65s-6.57-3.21-6.57-7.59,2.73-7.71,6.57-7.71S370.57,984.71,370.57,989.15Zm-10.68,0c0,3.39,1.62,5.55,4.11,5.55s4.11-2.19,4.11-5.52-1.62-5.52-4.11-5.52S359.89,985.82,359.89,989.12Z"/><path class="cls-6" d="M375.7,983.33a4.25,4.25,0,0,1,3.73-1.83,4.5,4.5,0,0,1,4.13,2.55c1.32-1.83,2.58-2.55,4.53-2.55,3.18,0,5.25,2.22,5.25,5.67v8.31a1.23,1.23,0,1,1-2.46,0v-8.37c0-2.16-1.2-3.48-3.21-3.48s-3.18,1.32-3.18,3.48v8.37a1.23,1.23,0,1,1-2.46,0v-8.37c0-2.16-1.2-3.48-3.2-3.48s-3.19,1.32-3.19,3.48v8.37a1.23,1.23,0,1,1-2.45,0V982.82a1.23,1.23,0,1,1,2.45,0v.45Z"/><path class="cls-6" d="M397.51,995c.39-.78.72-1.05,1.29-1.05a1.11,1.11,0,0,1,1.14,1.08,2.15,2.15,0,0,1-.3,1l-1.59,3.09c-.36.75-.72,1-1.29,1a1.09,1.09,0,0,1-1.14-1.08,2.28,2.28,0,0,1,.31-1Z"/><path class="cls-6" d="M413.17,983.48a5.05,5.05,0,0,1,4.11-2c3.15,0,5.22,2.25,5.22,5.67v8.31a1.23,1.23,0,1,1-2.46,0v-8.16a3.47,3.47,0,1,0-6.93,0v8.16a1.23,1.23,0,1,1-2.45,0V976.25a1.23,1.23,0,1,1,2.45,0v7.17Z"/><path class="cls-6" d="M433.37,982.46a1.2,1.2,0,0,1,1.26-1,1.11,1.11,0,0,1,1.17,1.14,2.53,2.53,0,0,1-.27,1l-4.29,12.06c-.3.84-.57,1.08-1.29,1.08s-1-.24-1.29-1.08l-4.32-12.06-.09-.24a2.73,2.73,0,0,1-.15-.78,1.1,1.1,0,0,1,1.14-1.14,1.25,1.25,0,0,1,1.29,1l3.39,10.35H430Z"/><path class="cls-6" d="M447.41,982.73a1.15,1.15,0,1,1,2.3,0v12.84a1.15,1.15,0,1,1-2.3,0v-1h-.06a4.74,4.74,0,0,1-4.15,2.25c-3.74,0-6.5-3.24-6.5-7.65s2.76-7.65,6.54-7.65a5.15,5.15,0,0,1,4.11,2h.06Zm-8.25,6.39c0,3.39,1.62,5.55,4.1,5.55s4.11-2.19,4.11-5.52-1.61-5.52-4.11-5.52S439.16,985.82,439.16,989.12Z"/><path class="cls-6" d="M462.76,976.25a1.23,1.23,0,1,1,2.46,0v19.23a1.23,1.23,0,1,1-2.46,0v-.75h-.06a4,4,0,0,1-3.9,2.07c-3.75,0-6.44-3.18-6.44-7.65s2.69-7.65,6.32-7.65a4.79,4.79,0,0,1,4,2h.06Zm-7.94,12.9c0,3.36,1.61,5.52,4.11,5.52s4.07-2.19,4.07-5.49-1.61-5.55-4.11-5.55S454.82,985.82,454.82,989.15Z"/><path class="cls-6" d="M485.41,976.25a1.23,1.23,0,1,1,2.46,0v19.23a1.23,1.23,0,1,1-2.46,0v-.75h-.06a4,4,0,0,1-3.9,2.07c-3.75,0-6.44-3.18-6.44-7.65s2.69-7.65,6.32-7.65a4.79,4.79,0,0,1,4,2h.06Zm-7.94,12.9c0,3.36,1.61,5.52,4.11,5.52s4.07-2.19,4.07-5.49-1.62-5.55-4.11-5.55S477.47,985.82,477.47,989.15Z"/><path class="cls-6" d="M492.79,990.11a4.65,4.65,0,0,0,1.29,3.36,4.27,4.27,0,0,0,3.18,1.2,5.73,5.73,0,0,0,4-1.47c.57-.45.81-.57,1.08-.57a1,1,0,0,1,.87,1c0,1.44-3.3,3.12-6.09,3.12-4.05,0-6.74-3-6.74-7.59s2.82-7.71,6.65-7.71c3.66,0,6.48,3.15,6.48,7.23,0,1-.36,1.38-1.38,1.38Zm8.22-1.86c-.12-2.91-1.65-4.62-4.14-4.62s-3.87,1.56-4.08,4.62Z"/><path class="cls-6" d="M508.36,984.08a4.33,4.33,0,0,1,3.39-2.58,1.25,1.25,0,0,1,1.35,1.26c0,.72-.48,1.14-1.53,1.35a3.92,3.92,0,0,0-3.27,4.26v7.11a1.23,1.23,0,1,1-2.45,0V982.82a1.23,1.23,0,1,1,2.45,0v1.26Z"/><path class="cls-6" d="M523.27,990.11a4.65,4.65,0,0,0,1.29,3.36,4.27,4.27,0,0,0,3.18,1.2,5.73,5.73,0,0,0,4-1.47c.57-.45.81-.57,1.08-.57a1,1,0,0,1,.87,1c0,1.44-3.3,3.12-6.09,3.12-4,0-6.75-3-6.75-7.59s2.83-7.71,6.66-7.71c3.66,0,6.48,3.15,6.48,7.23,0,1-.36,1.38-1.38,1.38Zm8.22-1.86c-.12-2.91-1.65-4.62-4.14-4.62s-3.87,1.56-4.08,4.62Z"/><path class="cls-6" d="M538.84,984.08a4.33,4.33,0,0,1,3.39-2.58,1.25,1.25,0,0,1,1.35,1.26c0,.72-.48,1.14-1.53,1.35a3.92,3.92,0,0,0-3.27,4.26v7.11a1.23,1.23,0,1,1-2.45,0V982.82a1.23,1.23,0,1,1,2.45,0v1.26Z"/><path class="cls-6" d="M554.65,995.48a1.23,1.23,0,1,1-2.45,0V976.25a1.23,1.23,0,1,1,2.45,0v10.53l5.4-4.5c.69-.6,1-.78,1.41-.78a1,1,0,0,1,1,1.11,1.26,1.26,0,0,1-.6,1l-5.64,4.44,6.54,6.45a1.62,1.62,0,0,1,.57,1.2,1,1,0,0,1-1.08,1c-.51,0-.81-.18-1.38-.78l-6.24-6.51Z"/><path class="cls-6" d="M574.69,982.73a1.16,1.16,0,1,1,2.31,0v12.84a1.16,1.16,0,1,1-2.31,0v-1h-.06a4.74,4.74,0,0,1-4.14,2.25c-3.75,0-6.51-3.24-6.51-7.65s2.76-7.65,6.54-7.65a5.14,5.14,0,0,1,4.11,2h.06Zm-8.25,6.39c0,3.39,1.62,5.55,4.11,5.55s4.11-2.19,4.11-5.52-1.62-5.52-4.11-5.52S566.44,985.82,566.44,989.12Z"/><path class="cls-6" d="M581.14,978.44a1.23,1.23,0,1,1,2.46,0v3.24h1c.78,0,1.23.39,1.23,1.08s-.45,1-1.23,1h-1v11.67a1.23,1.23,0,1,1-2.46,0V983.81h-1c-.78,0-1.23-.39-1.23-1s.45-1.08,1.23-1.08h1Z"/><path class="cls-6" d="M589.18,990.11a4.6,4.6,0,0,0,1.29,3.36,4.27,4.27,0,0,0,3.18,1.2,5.73,5.73,0,0,0,4-1.47c.57-.45.81-.57,1.08-.57a1,1,0,0,1,.87,1c0,1.44-3.3,3.12-6.09,3.12-4.05,0-6.75-3-6.75-7.59s2.82-7.71,6.66-7.71c3.66,0,6.48,3.15,6.48,7.23,0,1-.36,1.38-1.38,1.38Zm8.22-1.86c-.12-2.91-1.65-4.62-4.14-4.62s-3.87,1.56-4.08,4.62Z"/><path class="cls-6" d="M612.1,982.73a1.22,1.22,0,0,1,1.32-1.23,1.15,1.15,0,0,1,1.17,1.23v12.81c0,4.32-2.64,7.14-6.69,7.14-2.73,0-5.79-1.47-5.79-2.76a1,1,0,0,1,1-1.11,2.81,2.81,0,0,1,1.44.6,6.05,6.05,0,0,0,3.45,1.14c2.55,0,4.08-1.74,4.08-4.59v-1.32H612a4.19,4.19,0,0,1-3.87,2.16c-3.72,0-6.48-3.24-6.48-7.65s2.76-7.65,6.42-7.65a5,5,0,0,1,3.93,1.89h.06Zm-8,6.39c0,3.39,1.62,5.55,4.11,5.55s4.11-2.22,4.11-5.52-1.65-5.52-4.11-5.52S604.15,985.82,604.15,989.12Z"/><path class="cls-6" d="M630.49,989.15c0,4.44-2.76,7.65-6.57,7.65s-6.57-3.21-6.57-7.59,2.73-7.71,6.57-7.71S630.49,984.71,630.49,989.15Zm-10.68,0c0,3.39,1.62,5.55,4.11,5.55s4.11-2.19,4.11-5.52-1.62-5.52-4.11-5.52S619.81,985.82,619.81,989.12Z"/><path class="cls-6" d="M635.62,984.08A4.33,4.33,0,0,1,639,981.5a1.25,1.25,0,0,1,1.35,1.26c0,.72-.48,1.14-1.53,1.35a3.92,3.92,0,0,0-3.27,4.26v7.11a1.23,1.23,0,1,1-2.46,0V982.82a1.23,1.23,0,1,1,2.46,0v1.26Z"/><path class="cls-6" d="M644.89,978a1.52,1.52,0,1,1-1.53-1.53A1.49,1.49,0,0,1,644.89,978Zm-.3,17.52a1.23,1.23,0,1,1-2.46,0V982.82a1.23,1.23,0,1,1,2.46,0Z"/><path class="cls-6" d="M657.61,984.17a1,1,0,0,1-1.08,1,1.92,1.92,0,0,1-1.2-.54,4,4,0,0,0-2.7-1c-1.53,0-2.61.75-2.61,1.83s.9,1.62,3.24,2.46c3.36,1.2,4.74,2.46,4.74,4.41,0,2.61-2.28,4.47-5.49,4.47-2.85,0-5.58-1.41-5.58-2.88a1,1,0,0,1,1-1.08,2.53,2.53,0,0,1,1.29.63,5.37,5.37,0,0,0,3.36,1.2c1.65,0,2.91-.9,2.91-2s-1-1.8-3.45-2.76c-3.24-1.26-4.5-2.43-4.5-4.17,0-2.4,2.16-4.2,5-4.2C655.12,981.5,657.61,982.82,657.61,984.17Z"/><path class="cls-6" d="M661.9,990.11a4.6,4.6,0,0,0,1.29,3.36,4.27,4.27,0,0,0,3.18,1.2,5.73,5.73,0,0,0,4-1.47c.57-.45.81-.57,1.08-.57a1,1,0,0,1,.87,1c0,1.44-3.3,3.12-6.09,3.12-4.05,0-6.75-3-6.75-7.59s2.82-7.71,6.66-7.71c3.66,0,6.48,3.15,6.48,7.23,0,1-.36,1.38-1.38,1.38Zm8.22-1.86c-.12-2.91-1.65-4.62-4.14-4.62s-3.87,1.56-4.08,4.62Z"/><path class="cls-6" d="M677.47,984.08a4.33,4.33,0,0,1,3.39-2.58,1.25,1.25,0,0,1,1.35,1.26c0,.72-.48,1.14-1.53,1.35a3.92,3.92,0,0,0-3.27,4.26v7.11a1.23,1.23,0,1,1-2.46,0V982.82a1.23,1.23,0,1,1,2.46,0v1.26Z"/><path class="cls-6" d="M685,990.11a4.6,4.6,0,0,0,1.29,3.36,4.27,4.27,0,0,0,3.18,1.2,5.73,5.73,0,0,0,4-1.47c.57-.45.81-.57,1.08-.57a1,1,0,0,1,.87,1c0,1.44-3.3,3.12-6.09,3.12-4,0-6.75-3-6.75-7.59s2.82-7.71,6.66-7.71c3.66,0,6.48,3.15,6.48,7.23,0,1-.36,1.38-1.38,1.38Zm8.22-1.86c-.12-2.91-1.65-4.62-4.14-4.62s-3.87,1.56-4.08,4.62Z"/><path class="cls-6" d="M698.74,978.44a1.23,1.23,0,1,1,2.46,0v3.24h1c.78,0,1.23.39,1.23,1.08s-.45,1-1.23,1h-1v11.67a1.23,1.23,0,1,1-2.46,0V983.81h-1c-.78,0-1.23-.39-1.23-1s.45-1.08,1.23-1.08h1Z"/><path class="cls-6" d="M722,984.17a1,1,0,0,1-1.08,1,1.92,1.92,0,0,1-1.2-.54,4,4,0,0,0-2.7-1c-1.53,0-2.61.75-2.61,1.83s.9,1.62,3.24,2.46c3.36,1.2,4.74,2.46,4.74,4.41,0,2.61-2.28,4.47-5.49,4.47-2.85,0-5.58-1.41-5.58-2.88a1,1,0,0,1,1-1.08,2.53,2.53,0,0,1,1.29.63,5.37,5.37,0,0,0,3.36,1.2c1.65,0,2.91-.9,2.91-2s-1-1.8-3.45-2.76c-3.24-1.26-4.5-2.43-4.5-4.17,0-2.4,2.16-4.2,5-4.2C719.5,981.5,722,982.82,722,984.17Z"/><path class="cls-6" d="M737.23,989.15c0,4.44-2.76,7.65-6.57,7.65s-6.57-3.21-6.57-7.59,2.73-7.71,6.57-7.71S737.23,984.71,737.23,989.15Zm-10.68,0c0,3.39,1.62,5.55,4.11,5.55s4.11-2.19,4.11-5.52-1.62-5.52-4.11-5.52S726.55,985.82,726.55,989.12Z"/><path class="cls-6" d="M742.36,983.33a4.22,4.22,0,0,1,3.72-1.83,4.5,4.5,0,0,1,4.14,2.55c1.32-1.83,2.58-2.55,4.53-2.55,3.18,0,5.25,2.22,5.25,5.67v8.31a1.23,1.23,0,1,1-2.46,0v-8.37c0-2.16-1.2-3.48-3.21-3.48s-3.18,1.32-3.18,3.48v8.37a1.23,1.23,0,1,1-2.46,0v-8.37c0-2.16-1.2-3.48-3.21-3.48s-3.18,1.32-3.18,3.48v8.37a1.23,1.23,0,1,1-2.46,0V982.82a1.23,1.23,0,1,1,2.46,0v.45Z"/><path class="cls-6" d="M772.81,983.48a5.05,5.05,0,0,1,4.11-2c3.15,0,5.22,2.25,5.22,5.67v8.31a1.23,1.23,0,1,1-2.46,0v-8.16a3.47,3.47,0,1,0-6.93,0v8.16a1.23,1.23,0,1,1-2.46,0V982.82a1.23,1.23,0,1,1,2.46,0v.6Z"/><path class="cls-6" d="M786.19,996.77a1.14,1.14,0,0,1-.9.51.83.83,0,0,1-.84-.78c0-.3.12-.51.51-1l1.26-1.5a8.09,8.09,0,0,1-1.44-4.86c0-4.44,2.76-7.65,6.6-7.65a6,6,0,0,1,4,1.44l1.17-1.41c.33-.39.54-.54.87-.54a.84.84,0,0,1,.87.81,1.29,1.29,0,0,1-.39.87l-1.35,1.59a8.89,8.89,0,0,1,1.38,4.89c0,4.44-2.76,7.65-6.57,7.65a5.83,5.83,0,0,1-4-1.47Zm7.74-12.09a3.37,3.37,0,0,0-2.58-1c-2.49,0-4.11,2.16-4.11,5.52a7.3,7.3,0,0,0,.57,2.91Zm-5.16,8.94a3.42,3.42,0,0,0,2.58,1c2.49,0,4.11-2.16,4.11-5.49a7,7,0,0,0-.57-2.94Z"/><path class="cls-6" d="M810.31,982.73a1.22,1.22,0,0,1,1.32-1.23,1.15,1.15,0,0,1,1.17,1.23v12.81c0,4.32-2.64,7.14-6.69,7.14-2.73,0-5.79-1.47-5.79-2.76a1,1,0,0,1,1-1.11,2.81,2.81,0,0,1,1.44.6,6.05,6.05,0,0,0,3.45,1.14c2.55,0,4.08-1.74,4.08-4.59v-1.32h-.06a4.19,4.19,0,0,1-3.87,2.16c-3.72,0-6.48-3.24-6.48-7.65s2.76-7.65,6.42-7.65a5,5,0,0,1,3.93,1.89h.06Zm-7.95,6.39c0,3.39,1.62,5.55,4.11,5.55s4.11-2.22,4.11-5.52-1.65-5.52-4.11-5.52S802.36,985.82,802.36,989.12Z"/><path class="cls-6" d="M817.9,990.11a4.6,4.6,0,0,0,1.29,3.36,4.27,4.27,0,0,0,3.18,1.2,5.73,5.73,0,0,0,4-1.47c.57-.45.81-.57,1.08-.57a1,1,0,0,1,.87,1c0,1.44-3.3,3.12-6.09,3.12-4.05,0-6.75-3-6.75-7.59s2.82-7.71,6.66-7.71c3.66,0,6.48,3.15,6.48,7.23,0,1-.36,1.38-1.38,1.38Zm8.22-1.86c-.12-2.91-1.65-4.62-4.14-4.62s-3.87,1.56-4.08,4.62Z"/><path class="cls-6" d="M833.47,983.48a5.05,5.05,0,0,1,4.11-2c3.15,0,5.22,2.25,5.22,5.67v8.31a1.23,1.23,0,1,1-2.46,0v-8.16a3.47,3.47,0,1,0-6.93,0v8.16a1.23,1.23,0,1,1-2.46,0V982.82a1.23,1.23,0,1,1,2.46,0v.6Z"/><path class="cls-6" d="M848.65,995.48a1.23,1.23,0,1,1-2.46,0V976.25a1.23,1.23,0,1,1,2.46,0v7.29h.06a4.79,4.79,0,0,1,4-2c3.63,0,6.33,3.27,6.33,7.65s-2.7,7.65-6.45,7.65a4,4,0,0,1-3.9-2.07h-.06Zm-.24-6.36c0,3.39,1.59,5.55,4.11,5.55s4.08-2.19,4.08-5.52-1.62-5.52-4.11-5.52S848.41,985.82,848.41,989.12Z"/><path class="cls-6" d="M864.46,978a1.52,1.52,0,1,1-1.53-1.53A1.49,1.49,0,0,1,864.46,978Zm-.3,17.52a1.23,1.23,0,1,1-2.46,0V982.82a1.23,1.23,0,1,1,2.46,0Z"/><path class="cls-6" d="M869.89,995.48a1.23,1.23,0,1,1-2.46,0V976.25a1.23,1.23,0,1,1,2.46,0Z"/><path class="cls-6" d="M875.62,995.48a1.23,1.23,0,1,1-2.46,0V976.25a1.23,1.23,0,1,1,2.46,0Z"/><path class="cls-6" d="M880.45,990.11a4.6,4.6,0,0,0,1.29,3.36,4.27,4.27,0,0,0,3.18,1.2,5.73,5.73,0,0,0,4-1.47c.57-.45.81-.57,1.08-.57a1,1,0,0,1,.87,1c0,1.44-3.3,3.12-6.09,3.12-4,0-6.75-3-6.75-7.59s2.82-7.71,6.66-7.71c3.66,0,6.48,3.15,6.48,7.23,0,1-.36,1.38-1.38,1.38Zm8.22-1.86c-.12-2.91-1.65-4.62-4.14-4.62s-3.87,1.56-4.08,4.62Z"/><path class="cls-6" d="M903.31,976.25a1.23,1.23,0,1,1,2.46,0v19.23a1.23,1.23,0,1,1-2.46,0v-.75h-.06a4,4,0,0,1-3.9,2.07c-3.75,0-6.45-3.18-6.45-7.65s2.7-7.65,6.33-7.65a4.79,4.79,0,0,1,4,2h.06Zm-7.95,12.9c0,3.36,1.62,5.52,4.11,5.52s4.08-2.19,4.08-5.49-1.62-5.55-4.11-5.55S895.36,985.82,895.36,989.15Z"/><path class="cls-6" d="M910.69,990.11a4.6,4.6,0,0,0,1.29,3.36,4.27,4.27,0,0,0,3.18,1.2,5.73,5.73,0,0,0,4-1.47c.57-.45.81-.57,1.08-.57a1,1,0,0,1,.87,1c0,1.44-3.3,3.12-6.09,3.12-4.05,0-6.75-3-6.75-7.59s2.82-7.71,6.66-7.71c3.66,0,6.48,3.15,6.48,7.23,0,1-.36,1.38-1.38,1.38Zm8.22-1.86c-.12-2.91-1.65-4.62-4.14-4.62s-3.87,1.56-4.08,4.62Z"/><path class="cls-6" d="M924.4,995c.39-.78.72-1.05,1.29-1.05a1.11,1.11,0,0,1,1.14,1.08,2.15,2.15,0,0,1-.3,1l-1.59,3.09c-.36.75-.72,1-1.29,1a1.09,1.09,0,0,1-1.14-1.08,2.25,2.25,0,0,1,.3-1Z"/><path class="cls-6" d="M947.29,984.17a1,1,0,0,1-1.08,1,1.92,1.92,0,0,1-1.2-.54,4,4,0,0,0-2.7-1c-1.53,0-2.61.75-2.61,1.83s.9,1.62,3.24,2.46c3.36,1.2,4.74,2.46,4.74,4.41,0,2.61-2.28,4.47-5.49,4.47-2.85,0-5.58-1.41-5.58-2.88a1,1,0,0,1,1-1.08,2.53,2.53,0,0,1,1.29.63,5.37,5.37,0,0,0,3.36,1.2c1.65,0,2.91-.9,2.91-2s-1-1.8-3.45-2.76c-3.24-1.26-4.5-2.43-4.5-4.17,0-2.4,2.16-4.2,5-4.2C944.8,981.5,947.29,982.82,947.29,984.17Z"/><path class="cls-6" d="M960.1,982.73a1.16,1.16,0,1,1,2.31,0v12.84a1.16,1.16,0,1,1-2.31,0v-1H960a4.74,4.74,0,0,1-4.14,2.25c-3.75,0-6.51-3.24-6.51-7.65s2.76-7.65,6.54-7.65a5.14,5.14,0,0,1,4.11,2h.06Zm-8.25,6.39c0,3.39,1.62,5.55,4.11,5.55s4.11-2.19,4.11-5.52-1.62-5.52-4.11-5.52S951.85,985.82,951.85,989.12Zm7-11.55a2.64,2.64,0,1,1-2.64-2.64A2.62,2.62,0,0,1,958.87,977.57Zm-3.93,0a1.28,1.28,0,0,0,1.29,1.29,1.29,1.29,0,1,0-1.29-1.29Z"/><path class="cls-6" d="M973.48,978.44a1.23,1.23,0,1,1,2.46,0v3.24h1c.78,0,1.23.39,1.23,1.08s-.45,1-1.23,1h-1v11.67a1.23,1.23,0,1,1-2.46,0V983.81h-1c-.78,0-1.23-.39-1.23-1s.45-1.08,1.23-1.08h1Z"/><path class="cls-6" d="M989.89,982.73a1.16,1.16,0,1,1,2.31,0v12.84a1.16,1.16,0,1,1-2.31,0v-1h-.06a4.74,4.74,0,0,1-4.14,2.25c-3.75,0-6.51-3.24-6.51-7.65s2.76-7.65,6.54-7.65a5.14,5.14,0,0,1,4.11,2h.06Zm-8.25,6.39c0,3.39,1.62,5.55,4.11,5.55s4.11-2.19,4.11-5.52-1.62-5.52-4.11-5.52S981.64,985.82,981.64,989.12Z"/><path class="cls-6" d="M1005.31,982.73a1.22,1.22,0,0,1,1.32-1.23,1.15,1.15,0,0,1,1.17,1.23v12.81c0,4.32-2.64,7.14-6.69,7.14-2.73,0-5.79-1.47-5.79-2.76a1,1,0,0,1,1-1.11,2.81,2.81,0,0,1,1.44.6,6.05,6.05,0,0,0,3.45,1.14c2.55,0,4.08-1.74,4.08-4.59v-1.32h-.06a4.19,4.19,0,0,1-3.87,2.16c-3.72,0-6.48-3.24-6.48-7.65s2.76-7.65,6.42-7.65a5,5,0,0,1,3.93,1.89h.06Zm-7.95,6.39c0,3.39,1.62,5.55,4.11,5.55s4.11-2.22,4.11-5.52-1.65-5.52-4.11-5.52S997.36,985.82,997.36,989.12Z"/><path class="cls-6" d="M1019.74,990.11a4.6,4.6,0,0,0,1.29,3.36,4.27,4.27,0,0,0,3.18,1.2,5.73,5.73,0,0,0,4-1.47c.57-.45.81-.57,1.08-.57a1,1,0,0,1,.87,1c0,1.44-3.3,3.12-6.09,3.12-4,0-6.75-3-6.75-7.59s2.82-7.71,6.66-7.71c3.66,0,6.48,3.15,6.48,7.23,0,1-.36,1.38-1.38,1.38Zm8.22-1.86c-.12-2.91-1.65-4.62-4.14-4.62s-3.87,1.56-4.08,4.62Z"/><path class="cls-6" d="M1033.48,978.44a1.23,1.23,0,1,1,2.46,0v3.24h1c.78,0,1.23.39,1.23,1.08s-.45,1-1.23,1h-1v11.67a1.23,1.23,0,1,1-2.46,0V983.81h-1c-.78,0-1.23-.39-1.23-1s.45-1.08,1.23-1.08h1Z"/><path class="cls-6" d="M1049.44,995.48a1.23,1.23,0,1,1-2.46,0V976.25a1.23,1.23,0,1,1,2.46,0v10.53l5.4-4.5c.69-.6,1-.78,1.41-.78a1,1,0,0,1,1,1.11,1.26,1.26,0,0,1-.6,1L1051,988.1l6.54,6.45a1.62,1.62,0,0,1,.57,1.2,1,1,0,0,1-1.08,1c-.51,0-.81-.18-1.38-.78l-6.24-6.51Z"/><path class="cls-6" d="M1062.79,978a1.52,1.52,0,1,1-1.53-1.53A1.49,1.49,0,0,1,1062.79,978Zm-.3,17.52a1.23,1.23,0,1,1-2.46,0V982.82a1.23,1.23,0,1,1,2.46,0Z"/><path class="cls-6" d="M1075.6,982.73a1.22,1.22,0,0,1,1.32-1.23,1.15,1.15,0,0,1,1.17,1.23v12.81c0,4.32-2.64,7.14-6.69,7.14-2.73,0-5.79-1.47-5.79-2.76a1,1,0,0,1,1-1.11,2.81,2.81,0,0,1,1.44.6,6.05,6.05,0,0,0,3.45,1.14c2.55,0,4.08-1.74,4.08-4.59v-1.32h-.06a4.19,4.19,0,0,1-3.87,2.16c-3.72,0-6.48-3.24-6.48-7.65s2.76-7.65,6.42-7.65a5,5,0,0,1,3.93,1.89h.06Zm-7.95,6.39c0,3.39,1.62,5.55,4.11,5.55s4.11-2.22,4.11-5.52-1.65-5.52-4.11-5.52S1067.65,985.82,1067.65,989.12Z"/><path class="cls-6" d="M1091.05,1001.36a1.23,1.23,0,1,1-2.46,0V982.82a1.23,1.23,0,1,1,2.46,0v.75h.06a4,4,0,0,1,3.9-2.07c3.75,0,6.45,3.21,6.45,7.65s-2.7,7.65-6.33,7.65a4.75,4.75,0,0,1-4-2h-.06Zm-.24-12.24c0,3.39,1.59,5.55,4.11,5.55s4.08-2.19,4.08-5.52-1.62-5.52-4.11-5.52S1090.81,985.82,1090.81,989.12Z"/><path class="cls-6" d="M1114.18,982.73a1.16,1.16,0,1,1,2.31,0v12.84a1.16,1.16,0,1,1-2.31,0v-1h-.06a4.74,4.74,0,0,1-4.14,2.25c-3.75,0-6.51-3.24-6.51-7.65s2.76-7.65,6.54-7.65a5.14,5.14,0,0,1,4.11,2h.06Zm-8.25,6.39c0,3.39,1.62,5.55,4.11,5.55s4.11-2.19,4.11-5.52-1.62-5.52-4.11-5.52S1105.93,985.82,1105.93,989.12Zm7-11.55a2.64,2.64,0,1,1-2.64-2.64A2.62,2.62,0,0,1,1113,977.57Zm-3.93,0a1.28,1.28,0,0,0,1.29,1.29,1.29,1.29,0,1,0-1.29-1.29Z"/><path class="cls-7" d="M1139.35,995.51c-.3.9-.72,1.29-1.41,1.29s-1.11-.36-1.44-1.29l-4.08-11.94a3.49,3.49,0,0,1-.21-1,1.1,1.1,0,0,1,1.2-1.11c.66,0,1.08.39,1.35,1.29l3.18,10.17h.06l3.12-9.81c.42-1.38.69-1.65,1.44-1.65s1,.3,1.47,1.65l3.12,9.81h.06l3.18-10.17c.27-.9.69-1.29,1.35-1.29a1.1,1.1,0,0,1,1.2,1.11,4.41,4.41,0,0,1-.18,1l-4.11,11.94c-.33.93-.72,1.29-1.44,1.29s-1.11-.39-1.41-1.29l-3.21-10.11h0Z"/><path class="cls-7" d="M1160.2,995.51c-.3.9-.72,1.29-1.41,1.29s-1.11-.36-1.44-1.29l-4.08-11.94a3.49,3.49,0,0,1-.21-1,1.1,1.1,0,0,1,1.2-1.11c.66,0,1.08.39,1.35,1.29l3.18,10.17h.06l3.12-9.81c.42-1.38.69-1.65,1.44-1.65s1,.3,1.47,1.65L1168,993h.06l3.18-10.17c.27-.9.69-1.29,1.35-1.29a1.1,1.1,0,0,1,1.2,1.11,4.41,4.41,0,0,1-.18,1l-4.11,11.94c-.33.93-.72,1.29-1.44,1.29s-1.11-.39-1.41-1.29l-3.21-10.11h0Z"/><path class="cls-7" d="M1181.05,995.51c-.3.9-.72,1.29-1.41,1.29s-1.11-.36-1.44-1.29l-4.08-11.94a3.49,3.49,0,0,1-.21-1,1.1,1.1,0,0,1,1.2-1.11c.66,0,1.08.39,1.35,1.29l3.18,10.17h.06l3.12-9.81c.42-1.38.69-1.65,1.44-1.65s1,.3,1.47,1.65l3.12,9.81h.06l3.18-10.17c.27-.9.69-1.29,1.35-1.29a1.1,1.1,0,0,1,1.2,1.11,4.41,4.41,0,0,1-.18,1l-4.11,11.94c-.33.93-.72,1.29-1.44,1.29s-1.11-.39-1.41-1.29l-3.21-10.11h0Z"/><path class="cls-7" d="M1198.45,995.36a1.44,1.44,0,1,1-2.88,0,1.42,1.42,0,0,1,1.44-1.44A1.46,1.46,0,0,1,1198.45,995.36Z"/><path class="cls-7" d="M1204.72,1001.36a1.23,1.23,0,1,1-2.46,0V982.82a1.23,1.23,0,1,1,2.46,0v.75h.06a4,4,0,0,1,3.9-2.07c3.75,0,6.45,3.21,6.45,7.65s-2.7,7.65-6.33,7.65a4.75,4.75,0,0,1-4-2h-.06Zm-.24-12.24c0,3.39,1.59,5.55,4.11,5.55s4.08-2.19,4.08-5.52-1.62-5.52-4.11-5.52S1204.48,985.82,1204.48,989.12Z"/><path class="cls-7" d="M1220.29,984.08a4.33,4.33,0,0,1,3.39-2.58,1.25,1.25,0,0,1,1.35,1.26c0,.72-.48,1.14-1.53,1.35a3.92,3.92,0,0,0-3.27,4.26v7.11a1.23,1.23,0,1,1-2.46,0V982.82a1.23,1.23,0,1,1,2.46,0v1.26Z"/><path class="cls-7" d="M1229.56,978a1.52,1.52,0,1,1-1.53-1.53A1.49,1.49,0,0,1,1229.56,978Zm-.3,17.52a1.23,1.23,0,1,1-2.46,0V982.82a1.23,1.23,0,1,1,2.46,0Z"/><path class="cls-7" d="M1240.39,982.46a1.2,1.2,0,0,1,1.26-1,1.11,1.11,0,0,1,1.17,1.14,2.36,2.36,0,0,1-.27,1l-4.29,12.06c-.3.84-.57,1.08-1.29,1.08s-1-.24-1.29-1.08l-4.32-12.06-.09-.24a2.73,2.73,0,0,1-.15-.78,1.1,1.1,0,0,1,1.14-1.14,1.25,1.25,0,0,1,1.29,1l3.39,10.35h.06Z"/><path class="cls-7" d="M1254.43,982.73a1.16,1.16,0,1,1,2.31,0v12.84a1.16,1.16,0,1,1-2.31,0v-1h-.06a4.74,4.74,0,0,1-4.14,2.25c-3.75,0-6.51-3.24-6.51-7.65s2.76-7.65,6.54-7.65a5.14,5.14,0,0,1,4.11,2h.06Zm-8.25,6.39c0,3.39,1.62,5.55,4.11,5.55s4.11-2.19,4.11-5.52-1.62-5.52-4.11-5.52S1246.18,985.82,1246.18,989.12Z"/><path class="cls-7" d="M1260.88,978.44a1.23,1.23,0,1,1,2.46,0v3.24h1c.78,0,1.23.39,1.23,1.08s-.45,1-1.23,1h-1v11.67a1.23,1.23,0,1,1-2.46,0V983.81h-1c-.78,0-1.23-.39-1.23-1s.45-1.08,1.23-1.08h1Z"/><path class="cls-7" d="M1277,984.17a1,1,0,0,1-1.08,1,1.92,1.92,0,0,1-1.2-.54,4,4,0,0,0-2.7-1c-1.53,0-2.61.75-2.61,1.83s.9,1.62,3.24,2.46c3.36,1.2,4.74,2.46,4.74,4.41,0,2.61-2.28,4.47-5.49,4.47-2.85,0-5.58-1.41-5.58-2.88a1,1,0,0,1,1-1.08,2.53,2.53,0,0,1,1.29.63,5.37,5.37,0,0,0,3.36,1.2c1.65,0,2.91-.9,2.91-2s-1-1.8-3.45-2.76c-3.24-1.26-4.5-2.43-4.5-4.17,0-2.4,2.16-4.2,5-4.2C1274.53,981.5,1277,982.82,1277,984.17Z"/><path class="cls-7" d="M1282.27,983.48a5.05,5.05,0,0,1,4.11-2c3.15,0,5.22,2.25,5.22,5.67v8.31a1.23,1.23,0,1,1-2.46,0v-8.16a3.47,3.47,0,1,0-6.93,0v8.16a1.23,1.23,0,1,1-2.46,0V982.82a1.23,1.23,0,1,1,2.46,0v.6Z"/><path class="cls-7" d="M1305,982.73a1.16,1.16,0,1,1,2.31,0v12.84a1.16,1.16,0,1,1-2.31,0v-1h-.06a4.74,4.74,0,0,1-4.14,2.25c-3.75,0-6.51-3.24-6.51-7.65s2.76-7.65,6.54-7.65a5.14,5.14,0,0,1,4.11,2h.06Zm-8.25,6.39c0,3.39,1.62,5.55,4.11,5.55s4.11-2.19,4.11-5.52-1.62-5.52-4.11-5.52S1296.7,985.82,1296.7,989.12Z"/><path class="cls-7" d="M1313,995.48a1.23,1.23,0,1,1-2.46,0V976.25a1.23,1.23,0,1,1,2.46,0v10.53l5.4-4.5c.69-.6,1-.78,1.41-.78a1,1,0,0,1,1,1.11,1.26,1.26,0,0,1-.6,1l-5.64,4.44,6.54,6.45a1.62,1.62,0,0,1,.57,1.2,1,1,0,0,1-1.08,1c-.51,0-.81-.18-1.38-.78l-6.24-6.51Z"/><path class="cls-7" d="M1326.88,995.36a1.44,1.44,0,1,1-2.88,0,1.42,1.42,0,0,1,1.44-1.44A1.46,1.46,0,0,1,1326.88,995.36Z"/><path class="cls-7" d="M1340.38,976.25a1.23,1.23,0,1,1,2.46,0v19.23a1.23,1.23,0,1,1-2.46,0v-.75h-.06a4,4,0,0,1-3.9,2.07c-3.75,0-6.45-3.18-6.45-7.65s2.7-7.65,6.33-7.65a4.79,4.79,0,0,1,4,2h.06Zm-8,12.9c0,3.36,1.62,5.52,4.11,5.52s4.08-2.19,4.08-5.49-1.62-5.55-4.11-5.55S1332.43,985.82,1332.43,989.15Z"/><path class="cls-7" d="M1348.66,995.48a1.23,1.23,0,1,1-2.46,0V976.25a1.23,1.23,0,1,1,2.46,0v10.53l5.4-4.5c.69-.6,1-.78,1.41-.78a1,1,0,0,1,1,1.11,1.26,1.26,0,0,1-.6,1l-5.64,4.44,6.54,6.45a1.62,1.62,0,0,1,.57,1.2,1,1,0,0,1-1.08,1c-.51,0-.81-.18-1.38-.78l-6.24-6.51Z"/><path class="cls-6" d="M1378.75,989.15c0,4.44-2.76,7.65-6.57,7.65s-6.57-3.21-6.57-7.59,2.73-7.71,6.57-7.71S1378.75,984.71,1378.75,989.15Zm-10.68,0c0,3.39,1.62,5.55,4.11,5.55s4.11-2.19,4.11-5.52-1.62-5.52-4.11-5.52S1368.07,985.82,1368.07,989.12Z"/><path class="cls-6" d="M1391.14,982.73a1.22,1.22,0,0,1,1.32-1.23,1.15,1.15,0,0,1,1.17,1.23v12.81c0,4.32-2.64,7.14-6.69,7.14-2.73,0-5.79-1.47-5.79-2.76a1,1,0,0,1,1-1.11,2.81,2.81,0,0,1,1.44.6,6.05,6.05,0,0,0,3.45,1.14c2.55,0,4.08-1.74,4.08-4.59v-1.32h-.06a4.19,4.19,0,0,1-3.87,2.16c-3.72,0-6.48-3.24-6.48-7.65s2.76-7.65,6.42-7.65a5,5,0,0,1,3.93,1.89h.06Zm-8,6.39c0,3.39,1.62,5.55,4.11,5.55s4.11-2.22,4.11-5.52-1.65-5.52-4.11-5.52S1383.19,985.82,1383.19,989.12Z"/><path class="cls-6" d="M1406.47,995.48a1.23,1.23,0,1,1-2.46,0V976.25a1.23,1.23,0,1,1,2.46,0Z"/><path class="cls-6" d="M1422.1,995.57a1.17,1.17,0,0,1-1.17,1.23,1.14,1.14,0,0,1-1.14-1.23v-1h-.06a4.72,4.72,0,0,1-4.11,2.25c-3.75,0-6.51-3.24-6.51-7.65s2.76-7.65,6.54-7.65a5,5,0,0,1,4.08,2h.06v-.78a1.14,1.14,0,0,1,1.14-1.23,1.17,1.17,0,0,1,1.17,1.23v.6h.06a5.61,5.61,0,0,1,4-1.83c3.42,0,6.24,3.24,6.24,7.17,0,1.08-.36,1.44-1.38,1.44h-9.15c.24,2.85,1.92,4.5,4.56,4.5a5.32,5.32,0,0,0,3.63-1.38c.66-.48.75-.54,1.11-.6a1,1,0,0,1,.9,1c0,1.44-3,3.12-5.58,3.12a5.36,5.36,0,0,1-4.32-1.8h-.06Zm-10.53-6.45c0,3.39,1.62,5.55,4.11,5.55s4.11-2.16,4.11-5.52-1.62-5.52-4.11-5.52S1411.57,985.82,1411.57,989.12Zm18.33-.87c-.12-2.88-1.62-4.62-4-4.62s-3.75,1.68-3.87,4.62Z"/><path class="cls-6" d="M1437.43,984.08a4.33,4.33,0,0,1,3.39-2.58,1.25,1.25,0,0,1,1.35,1.26c0,.72-.48,1.14-1.53,1.35a3.92,3.92,0,0,0-3.27,4.26v7.11a1.23,1.23,0,1,1-2.46,0V982.82a1.23,1.23,0,1,1,2.46,0v1.26Z"/><path class="cls-6" d="M1453.3,983.33a4.22,4.22,0,0,1,3.72-1.83,4.5,4.5,0,0,1,4.14,2.55c1.32-1.83,2.58-2.55,4.53-2.55,3.18,0,5.25,2.22,5.25,5.67v8.31a1.23,1.23,0,1,1-2.46,0v-8.37c0-2.16-1.2-3.48-3.21-3.48s-3.18,1.32-3.18,3.48v8.37a1.23,1.23,0,1,1-2.46,0v-8.37c0-2.16-1.2-3.48-3.21-3.48s-3.18,1.32-3.18,3.48v8.37a1.23,1.23,0,1,1-2.46,0V982.82a1.23,1.23,0,1,1,2.46,0v.45Z"/><path class="cls-6" d="M1475.77,990.11a4.6,4.6,0,0,0,1.29,3.36,4.27,4.27,0,0,0,3.18,1.2,5.73,5.73,0,0,0,4-1.47c.57-.45.81-.57,1.08-.57a1,1,0,0,1,.87,1c0,1.44-3.3,3.12-6.09,3.12-4,0-6.75-3-6.75-7.59s2.82-7.71,6.66-7.71c3.66,0,6.48,3.15,6.48,7.23,0,1-.36,1.38-1.38,1.38Zm8.22-1.86c-.12-2.91-1.65-4.62-4.14-4.62s-3.87,1.56-4.08,4.62Z"/><path class="cls-6" d="M1498.69,982.73a1.22,1.22,0,0,1,1.32-1.23,1.15,1.15,0,0,1,1.17,1.23v12.81c0,4.32-2.64,7.14-6.69,7.14-2.73,0-5.79-1.47-5.79-2.76a1,1,0,0,1,1-1.11,2.81,2.81,0,0,1,1.44.6,6.05,6.05,0,0,0,3.45,1.14c2.55,0,4.08-1.74,4.08-4.59v-1.32h-.06a4.19,4.19,0,0,1-3.87,2.16c-3.72,0-6.48-3.24-6.48-7.65s2.76-7.65,6.42-7.65a5,5,0,0,1,3.93,1.89h.06Zm-8,6.39c0,3.39,1.62,5.55,4.11,5.55s4.11-2.22,4.11-5.52-1.65-5.52-4.11-5.52S1490.74,985.82,1490.74,989.12Z"/><path class="cls-6" d="M1506.28,990.11a4.6,4.6,0,0,0,1.29,3.36,4.27,4.27,0,0,0,3.18,1.2,5.73,5.73,0,0,0,4-1.47c.57-.45.81-.57,1.08-.57a1,1,0,0,1,.87,1c0,1.44-3.3,3.12-6.09,3.12-4,0-6.75-3-6.75-7.59s2.82-7.71,6.66-7.71c3.66,0,6.48,3.15,6.48,7.23,0,1-.36,1.38-1.38,1.38Zm8.22-1.86c-.12-2.91-1.65-4.62-4.14-4.62s-3.87,1.56-4.08,4.62Z"/><path class="cls-6" d="M1520,978.44a1.23,1.23,0,1,1,2.46,0v3.24h1c.78,0,1.23.39,1.23,1.08s-.45,1-1.23,1h-1v11.67a1.23,1.23,0,1,1-2.46,0V983.81h-1c-.78,0-1.23-.39-1.23-1s.45-1.08,1.23-1.08h1Z"/><path class="cls-6" d="M1536,983.33a4.22,4.22,0,0,1,3.72-1.83,4.5,4.5,0,0,1,4.14,2.55c1.32-1.83,2.58-2.55,4.53-2.55,3.18,0,5.25,2.22,5.25,5.67v8.31a1.23,1.23,0,1,1-2.46,0v-8.37c0-2.16-1.2-3.48-3.21-3.48s-3.18,1.32-3.18,3.48v8.37a1.23,1.23,0,1,1-2.46,0v-8.37c0-2.16-1.2-3.48-3.21-3.48S1536,985,1536,987.11v8.37a1.23,1.23,0,1,1-2.46,0V982.82a1.23,1.23,0,1,1,2.46,0v.45Z"/><path class="cls-6" d="M1558.51,990.11a4.6,4.6,0,0,0,1.29,3.36,4.27,4.27,0,0,0,3.18,1.2,5.73,5.73,0,0,0,4-1.47c.57-.45.81-.57,1.08-.57a1,1,0,0,1,.87,1c0,1.44-3.3,3.12-6.09,3.12-4,0-6.75-3-6.75-7.59s2.82-7.71,6.66-7.71c3.66,0,6.48,3.15,6.48,7.23,0,1-.36,1.38-1.38,1.38Zm8.22-1.86c-.12-2.91-1.65-4.62-4.14-4.62s-3.87,1.56-4.08,4.62Z"/><path class="cls-6" d="M1574.08,984.08a4.33,4.33,0,0,1,3.39-2.58,1.25,1.25,0,0,1,1.35,1.26c0,.72-.48,1.14-1.53,1.35a3.92,3.92,0,0,0-3.27,4.26v7.11a1.23,1.23,0,1,1-2.46,0V982.82a1.23,1.23,0,1,1,2.46,0v1.26Z"/><path class="cls-6" d="M1581.61,990.11a4.6,4.6,0,0,0,1.29,3.36,4.27,4.27,0,0,0,3.18,1.2,5.73,5.73,0,0,0,4-1.47c.57-.45.81-.57,1.08-.57a1,1,0,0,1,.87,1c0,1.44-3.3,3.12-6.09,3.12-4.05,0-6.75-3-6.75-7.59s2.82-7.71,6.66-7.71c3.66,0,6.48,3.15,6.48,7.23,0,1-.36,1.38-1.38,1.38Zm8.22-1.86c-.12-2.91-1.65-4.62-4.14-4.62s-3.87,1.56-4.08,4.62Z"/><path class="cls-6" d="M1614.19,989.15c0,4.44-2.76,7.65-6.57,7.65s-6.57-3.21-6.57-7.59,2.73-7.71,6.57-7.71S1614.19,984.71,1614.19,989.15Zm-10.68,0c0,3.39,1.62,5.55,4.11,5.55s4.11-2.19,4.11-5.52-1.62-5.52-4.11-5.52S1603.51,985.82,1603.51,989.12Z"/><path class="cls-6" d="M1619.32,983.33a4.22,4.22,0,0,1,3.72-1.83,4.5,4.5,0,0,1,4.14,2.55c1.32-1.83,2.58-2.55,4.53-2.55,3.18,0,5.25,2.22,5.25,5.67v8.31a1.23,1.23,0,1,1-2.46,0v-8.37c0-2.16-1.2-3.48-3.21-3.48s-3.18,1.32-3.18,3.48v8.37a1.23,1.23,0,1,1-2.46,0v-8.37c0-2.16-1.2-3.48-3.21-3.48s-3.18,1.32-3.18,3.48v8.37a1.23,1.23,0,1,1-2.46,0V982.82a1.23,1.23,0,1,1,2.46,0v.45Z"/><path class="cls-6" d="M1657.06,976.25a1.23,1.23,0,1,1,2.46,0v19.23a1.23,1.23,0,1,1-2.46,0v-.75H1657a4,4,0,0,1-3.9,2.07c-3.75,0-6.45-3.18-6.45-7.65s2.7-7.65,6.33-7.65a4.79,4.79,0,0,1,4,2h.06Zm-8,12.9c0,3.36,1.62,5.52,4.11,5.52s4.08-2.19,4.08-5.49-1.62-5.55-4.11-5.55S1649.11,985.82,1649.11,989.15Z"/><path class="cls-6" d="M1664.44,990.11a4.6,4.6,0,0,0,1.29,3.36,4.27,4.27,0,0,0,3.18,1.2,5.73,5.73,0,0,0,4-1.47c.57-.45.81-.57,1.08-.57a1,1,0,0,1,.87,1c0,1.44-3.3,3.12-6.09,3.12-4,0-6.75-3-6.75-7.59s2.82-7.71,6.66-7.71c3.66,0,6.48,3.15,6.48,7.23,0,1-.36,1.38-1.38,1.38Zm8.22-1.86c-.12-2.91-1.65-4.62-4.14-4.62s-3.87,1.56-4.08,4.62Z"/><path class="cls-6" d="M1680.13,995.48a1.23,1.23,0,1,1-2.46,0V976.25a1.23,1.23,0,1,1,2.46,0Z"/><path class="cls-6" d="M1686.16,978a1.5,1.5,0,0,1-1.53,1.5,1.52,1.52,0,0,1,0-3A1.51,1.51,0,0,1,1686.16,978Zm-.31,17.52a1.23,1.23,0,1,1-2.45,0V982.82a1.23,1.23,0,1,1,2.45,0Z"/><path class="cls-6" d="M1691.64,983.48a5.07,5.07,0,0,1,4.11-2c3.15,0,5.22,2.25,5.22,5.67v8.31a1.23,1.23,0,1,1-2.46,0v-8.16a3.47,3.47,0,1,0-6.92,0v8.16a1.23,1.23,0,1,1-2.46,0V982.82a1.23,1.23,0,1,1,2.46,0v.6Z"/><path class="cls-6" d="M1714,982.73a1.22,1.22,0,0,1,1.32-1.23,1.15,1.15,0,0,1,1.17,1.23v12.81c0,4.32-2.64,7.14-6.68,7.14-2.73,0-5.79-1.47-5.79-2.76a1,1,0,0,1,1-1.11,2.75,2.75,0,0,1,1.44.6,6.06,6.06,0,0,0,3.46,1.14c2.54,0,4.07-1.74,4.07-4.59v-1.32H1714a4.19,4.19,0,0,1-3.87,2.16c-3.71,0-6.47-3.24-6.47-7.65s2.76-7.65,6.41-7.65a5,5,0,0,1,3.93,1.89h.06Zm-7.94,6.39c0,3.39,1.62,5.55,4.1,5.55s4.11-2.22,4.11-5.52-1.65-5.52-4.11-5.52S1706.08,985.82,1706.08,989.12Z"/><path class="cls-6" d="M1737,982.73a1.16,1.16,0,1,1,2.31,0v12.84a1.16,1.16,0,1,1-2.31,0v-1h-.06a4.74,4.74,0,0,1-4.14,2.25c-3.74,0-6.51-3.24-6.51-7.65s2.77-7.65,6.54-7.65a5.14,5.14,0,0,1,4.11,2h.06Zm-8.25,6.39c0,3.39,1.62,5.55,4.11,5.55s4.11-2.19,4.11-5.52-1.61-5.52-4.11-5.52S1728.72,985.82,1728.72,989.12Z"/><path class="cls-6" d="M1745.79,995.48a1.23,1.23,0,1,1-2.46,0V983.81h-1c-.79,0-1.24-.39-1.24-1s.45-1.08,1.24-1.08h1v-3.51a3,3,0,0,1,3.27-3.24h.75c.81,0,1.41.48,1.41,1.11s-.48,1-1.35,1h-.6c-.72,0-1,.3-1,1v3.63h1.54c.8,0,1.25.39,1.25,1.08s-.45,1-1.25,1h-1.54Z"/><path class="cls-6" d="M1759.41,995.48a1.23,1.23,0,1,1-2.46,0V976.25a1.23,1.23,0,1,1,2.46,0v7.29h.06a4.79,4.79,0,0,1,4-2c3.63,0,6.33,3.27,6.33,7.65s-2.7,7.65-6.45,7.65a4,4,0,0,1-3.9-2.07h-.06Zm-.24-6.36c0,3.39,1.59,5.55,4.11,5.55s4.08-2.19,4.08-5.52-1.62-5.52-4.11-5.52S1759.17,985.82,1759.17,989.12Z"/><path class="cls-6" d="M1775.22,978a1.51,1.51,0,1,1-1.52-1.53A1.49,1.49,0,0,1,1775.22,978Zm-.3,17.52a1.23,1.23,0,1,1-2.46,0V982.82a1.23,1.23,0,1,1,2.46,0Z"/><path class="cls-6" d="M1780.65,995.48a1.23,1.23,0,1,1-2.45,0V976.25a1.23,1.23,0,1,1,2.45,0Z"/><path class="cls-6" d="M1786.38,995.48a1.23,1.23,0,1,1-2.46,0V976.25a1.23,1.23,0,1,1,2.46,0Z"/><path class="cls-6" d="M1791.21,990.11a4.6,4.6,0,0,0,1.29,3.36,4.27,4.27,0,0,0,3.18,1.2,5.73,5.73,0,0,0,4-1.47c.57-.45.81-.57,1.08-.57a1,1,0,0,1,.87,1c0,1.44-3.3,3.12-6.09,3.12-4,0-6.75-3-6.75-7.59s2.82-7.71,6.66-7.71c3.66,0,6.48,3.15,6.48,7.23,0,1-.36,1.38-1.38,1.38Zm8.22-1.86c-.12-2.91-1.65-4.62-4.14-4.62s-3.87,1.56-4.08,4.62Z"/><path class="cls-6" d="M1814.07,976.25a1.23,1.23,0,1,1,2.46,0v19.23a1.23,1.23,0,1,1-2.46,0v-.75H1814a4,4,0,0,1-3.9,2.07c-3.75,0-6.45-3.18-6.45-7.65s2.7-7.65,6.33-7.65a4.79,4.79,0,0,1,4,2h.06Zm-8,12.9c0,3.36,1.62,5.52,4.11,5.52s4.08-2.19,4.08-5.49-1.62-5.55-4.11-5.55S1806.12,985.82,1806.12,989.15Z"/><path class="cls-6" d="M1821.45,990.11a4.6,4.6,0,0,0,1.29,3.36,4.27,4.27,0,0,0,3.18,1.2,5.73,5.73,0,0,0,4-1.47c.57-.45.81-.57,1.08-.57a1,1,0,0,1,.87,1c0,1.44-3.3,3.12-6.09,3.12-4,0-6.75-3-6.75-7.59s2.82-7.71,6.66-7.71c3.66,0,6.48,3.15,6.48,7.23,0,1-.36,1.38-1.38,1.38Zm8.22-1.86c-.12-2.91-1.65-4.62-4.14-4.62s-3.87,1.56-4.08,4.62Z"/><path class="cls-6" d="M1837,984.08a4.33,4.33,0,0,1,3.39-2.58,1.25,1.25,0,0,1,1.35,1.26c0,.72-.48,1.14-1.53,1.35a3.92,3.92,0,0,0-3.27,4.26v7.11a1.23,1.23,0,1,1-2.46,0V982.82a1.23,1.23,0,1,1,2.46,0v1.26Z"/><path class="cls-6" d="M1844.94,995.36a1.44,1.44,0,1,1-2.88,0,1.42,1.42,0,0,1,1.44-1.44A1.46,1.46,0,0,1,1844.94,995.36Z"/><path class="cls-8" d="M92.66,137.86a2.42,2.42,0,0,1,2.64-2.7H105c10.74,0,17.7,7.8,17.7,20s-6.72,20-17,20H95.3a2.42,2.42,0,0,1-2.64-2.7Zm4.92,33.06h7.08c7.92,0,12.78-6.06,12.78-15.9s-4.92-15.6-13.14-15.6H97.58Z"/><path class="cls-8" d="M131.3,162.16c.18,3.18.9,5,2.58,6.72a8.55,8.55,0,0,0,6.36,2.4,11.45,11.45,0,0,0,7.92-2.94c1.14-.9,1.62-1.14,2.16-1.14a2,2,0,0,1,1.74,2.1c0,2.88-6.6,6.24-12.18,6.24-8.1,0-13.5-6.06-13.5-15.18,0-8.94,5.64-15.42,13.32-15.42,7.32,0,13,6.3,13,14.46,0,2-.72,2.76-2.76,2.76Zm16.44-3.72c-.24-5.82-3.3-9.24-8.28-9.24s-7.74,3.12-8.16,9.24Z"/><path class="cls-8" d="M158.78,138.82a2.47,2.47,0,1,1,4.92,0v6.48h2c1.56,0,2.46.78,2.46,2.16s-.9,2.1-2.46,2.1h-2V172.9a2.47,2.47,0,1,1-4.92,0V149.56h-2c-1.56,0-2.46-.78-2.46-2.1s.9-2.16,2.46-2.16h2Z"/><path class="cls-8" d="M190.7,172.9a2.47,2.47,0,1,1-4.92,0V134.44a2.47,2.47,0,1,1,4.92,0V155.5l10.8-9c1.38-1.2,2-1.56,2.82-1.56a2,2,0,0,1,2,2.22,2.52,2.52,0,0,1-1.2,2.1l-11.28,8.88L207,171a3.24,3.24,0,0,1,1.14,2.4,2,2,0,0,1-2.16,2.1c-1,0-1.62-.36-2.76-1.56L190.7,161Z"/><path class="cls-8" d="M230.78,147.4a2.31,2.31,0,1,1,4.62,0v25.68a2.31,2.31,0,1,1-4.62,0v-2h-.12c-2.34,3.18-4.8,4.5-8.28,4.5-7.5,0-13-6.48-13-15.3s5.52-15.3,13.08-15.3c3.24,0,5.46,1.08,8.22,4h.12Zm-16.5,12.78c0,6.78,3.24,11.1,8.22,11.1s8.22-4.38,8.22-11-3.24-11-8.22-11S214.28,153.58,214.28,160.18Z"/><path class="cls-8" d="M246.92,148.9a10.11,10.11,0,0,1,8.22-4c6.3,0,10.44,4.5,10.44,11.34V172.9a2.47,2.47,0,1,1-4.92,0V156.58c0-4.38-2.82-7.38-7-7.38s-6.9,3-6.9,7.38V172.9a2.47,2.47,0,1,1-4.92,0V147.58a2.47,2.47,0,1,1,4.92,0v1.2Z"/><path class="cls-8" d="M301.76,146.86a2.4,2.4,0,0,1,2.52-1.92,2.22,2.22,0,0,1,2.34,2.28,4.73,4.73,0,0,1-.54,2l-8.58,24.12c-.6,1.68-1.14,2.16-2.58,2.16s-2-.48-2.58-2.16l-8.64-24.12-.18-.48a5.46,5.46,0,0,1-.3-1.56,2.21,2.21,0,0,1,2.28-2.28,2.5,2.5,0,0,1,2.58,1.92l6.78,20.7H295Z"/><path class="cls-8" d="M315.79,137.86a3,3,0,1,1-3.06-3.06A3,3,0,0,1,315.79,137.86Zm-.6,35a2.47,2.47,0,1,1-4.92,0V147.58a2.47,2.47,0,1,1,4.92,0Z"/><path class="cls-8" d="M340.69,172.9a2.47,2.47,0,1,1-4.92,0V134.44a2.47,2.47,0,1,1,4.92,0Z"/><path class="cls-8" d="M352.75,137.86a3,3,0,1,1-3.06-3.06A3,3,0,0,1,352.75,137.86Zm-.6,35a2.47,2.47,0,1,1-4.92,0V147.58a2.47,2.47,0,1,1,4.92,0Z"/><path class="cls-8" d="M378.31,134.44a2.47,2.47,0,1,1,4.92,0V172.9a2.47,2.47,0,1,1-4.92,0v-1.5h-.12c-1.62,2.88-4,4.14-7.8,4.14-7.5,0-12.9-6.36-12.9-15.3s5.4-15.3,12.66-15.3a9.58,9.58,0,0,1,8,4.08h.12Zm-15.9,25.8c0,6.72,3.24,11,8.22,11s8.16-4.38,8.16-11c0-6.78-3.24-11.1-8.22-11.1S362.41,153.58,362.41,160.24Z"/><path class="cls-8" d="M393.07,162.16c.18,3.18.9,5,2.58,6.72a8.55,8.55,0,0,0,6.36,2.4,11.45,11.45,0,0,0,7.92-2.94c1.14-.9,1.62-1.14,2.16-1.14a2,2,0,0,1,1.74,2.1c0,2.88-6.6,6.24-12.18,6.24-8.1,0-13.5-6.06-13.5-15.18,0-8.94,5.64-15.42,13.32-15.42,7.32,0,13,6.3,13,14.46,0,2-.72,2.76-2.76,2.76Zm16.44-3.72c-.24-5.82-3.3-9.24-8.28-9.24s-7.74,3.12-8.16,9.24Z"/><path class="cls-8" d="M426.07,172.66a2.88,2.88,0,1,1-5.76,0,2.84,2.84,0,0,1,2.88-2.88A2.92,2.92,0,0,1,426.07,172.66Zm-5.34-35.22a2.47,2.47,0,1,1,4.92,0V161.8a2.47,2.47,0,1,1-4.92,0Z"/><path class="cls-6" d="M447.64,152.79a1.45,1.45,0,0,1,1.58-1.62h5.83c6.44,0,10.62,4.68,10.62,12s-4,12-10.22,12h-6.23a1.45,1.45,0,0,1-1.58-1.62Zm2.95,19.84h4.25c4.75,0,7.66-3.64,7.66-9.54s-2.95-9.36-7.88-9.36h-4Z"/><path class="cls-6" d="M468.7,158.62a1.48,1.48,0,1,1,2.95,0v9.51c0,3.13,1.4,4.71,4.14,4.71s4.17-1.58,4.17-4.71v-9.51a1.48,1.48,0,1,1,3,0v9.61c0,4.5-2.66,7.17-7.12,7.17s-7.09-2.67-7.09-7.17Z"/><path class="cls-6" d="M498.29,159.42a6.06,6.06,0,0,1,4.93-2.38c3.78,0,6.26,2.7,6.26,6.8v10a1.48,1.48,0,1,1-3,0V164a4.16,4.16,0,1,0-8.31,0v9.79a1.48,1.48,0,1,1-3,0V150.74a1.48,1.48,0,1,1,3,0v8.6Z"/><path class="cls-6" d="M525.5,158.51a1.39,1.39,0,1,1,2.77,0v15.41a1.39,1.39,0,1,1-2.77,0V172.7h-.07a5.7,5.7,0,0,1-5,2.7c-4.5,0-7.81-3.89-7.81-9.18S516,157,520.5,157c1.94,0,3.28.65,4.93,2.41h.07Zm-9.9,7.67c0,4.07,1.95,6.66,4.94,6.66s4.93-2.63,4.93-6.62-2-6.63-4.93-6.63S515.6,162.22,515.6,166.18Z"/><path class="cls-6" d="M535.19,160.13c1-1.87,2.59-3.09,4.07-3.09a1.51,1.51,0,0,1,1.62,1.51c0,.87-.58,1.37-1.84,1.62-2.48.47-4,2.34-3.92,5.11v8.53a1.48,1.48,0,1,1-3,0V158.62a1.48,1.48,0,1,1,3,0v1.51Z"/><path class="cls-6" d="M552.18,153.37a1.48,1.48,0,1,1,3,0v3.89h1.23c.93,0,1.47.46,1.47,1.29s-.54,1.26-1.47,1.26h-1.23v14a1.48,1.48,0,1,1-3,0v-14H551c-.94,0-1.48-.47-1.48-1.26s.54-1.29,1.48-1.29h1.22Z"/><path class="cls-6" d="M574.79,166.22c0,5.33-3.32,9.18-7.89,9.18s-7.88-3.85-7.88-9.11S562.3,157,566.9,157,574.79,160.89,574.79,166.22Zm-12.82,0c0,4.07,1.95,6.66,4.93,6.66s4.93-2.63,4.93-6.62-1.94-6.63-4.93-6.63S562,162.22,562,166.18Z"/><path class="cls-6" d="M578.6,153.37a1.48,1.48,0,1,1,3,0v3.89h1.22c.94,0,1.48.46,1.48,1.29s-.54,1.26-1.48,1.26h-1.22v14a1.48,1.48,0,1,1-3,0v-14h-1.22c-.94,0-1.48-.47-1.48-1.26s.54-1.29,1.48-1.29h1.22Z"/><path class="cls-6" d="M598.29,158.51a1.39,1.39,0,1,1,2.78,0v15.41a1.39,1.39,0,1,1-2.78,0V172.7h-.07a5.7,5.7,0,0,1-5,2.7c-4.5,0-7.82-3.89-7.82-9.18s3.32-9.18,7.85-9.18c2,0,3.28.65,4.93,2.41h.07Zm-9.89,7.67c0,4.07,1.94,6.66,4.93,6.66s4.93-2.63,4.93-6.62-1.94-6.63-4.93-6.63S588.4,162.22,588.4,166.18Z"/><path class="cls-6" d="M607.91,173.81a1.48,1.48,0,1,1-2.95,0V150.74a1.48,1.48,0,1,1,2.95,0Z"/><path class="cls-6" d="M612.8,153.37a1.48,1.48,0,1,1,3,0v3.89H617c.94,0,1.48.46,1.48,1.29s-.54,1.26-1.48,1.26h-1.22v14a1.48,1.48,0,1,1-3,0v-14h-1.22c-.94,0-1.48-.47-1.48-1.26s.54-1.29,1.48-1.29h1.22Z"/><path class="cls-6" d="M640.7,160.24a1.2,1.2,0,0,1-1.29,1.19,2.25,2.25,0,0,1-1.44-.65,4.8,4.8,0,0,0-3.24-1.19c-1.84,0-3.13.9-3.13,2.2s1.08,1.94,3.88,3c4,1.44,5.69,2.95,5.69,5.29,0,3.14-2.74,5.37-6.59,5.37-3.42,0-6.69-1.69-6.69-3.46a1.25,1.25,0,0,1,1.22-1.29,3,3,0,0,1,1.55.75,6.41,6.41,0,0,0,4,1.44c2,0,3.49-1.08,3.49-2.45,0-1.22-1.15-2.16-4.14-3.31-3.88-1.51-5.4-2.91-5.4-5,0-2.88,2.6-5,6.05-5C637.71,157,640.7,158.62,640.7,160.24Z"/><path class="cls-6" d="M645.2,153.37a1.48,1.48,0,1,1,2.95,0v3.89h1.23c.93,0,1.47.46,1.47,1.29s-.54,1.26-1.47,1.26h-1.23v14a1.48,1.48,0,1,1-2.95,0v-14H644c-.94,0-1.48-.47-1.48-1.26s.54-1.29,1.48-1.29h1.22Z"/><path class="cls-6" d="M652.8,160a6.92,6.92,0,0,1-.4-1.65,1.33,1.33,0,0,1,1.37-1.26,1.58,1.58,0,0,1,1.48,1.12l4.1,12.3h.07l4-12.3a1.47,1.47,0,0,1,1.41-1.12,1.32,1.32,0,0,1,1.36,1.26,5.42,5.42,0,0,1-.39,1.65l-7.49,21.42a1.56,1.56,0,0,1-1.44,1.08,1.31,1.31,0,0,1-1.37-1.26,5,5,0,0,1,.44-1.62l1.9-5Z"/><path class="cls-6" d="M671.77,160.13c1-1.87,2.59-3.09,4.07-3.09a1.51,1.51,0,0,1,1.62,1.51c0,.87-.58,1.37-1.84,1.62-2.48.47-4,2.34-3.92,5.11v8.53a1.48,1.48,0,1,1-3,0V158.62a1.48,1.48,0,1,1,3,0v1.51Z"/><path class="cls-6" d="M690.89,180.87a1.48,1.48,0,1,1-3,0V158.62a1.48,1.48,0,1,1,3,0v.9H691a4.78,4.78,0,0,1,4.68-2.48c4.5,0,7.74,3.85,7.74,9.18s-3.24,9.18-7.6,9.18A5.69,5.69,0,0,1,691,173h-.07Zm-.29-14.69c0,4.07,1.9,6.66,4.93,6.66s4.89-2.63,4.89-6.62-1.94-6.63-4.93-6.63S690.6,162.22,690.6,166.18Z"/><path class="cls-6" d="M718.64,158.51a1.39,1.39,0,1,1,2.77,0v15.41a1.39,1.39,0,1,1-2.77,0V172.7h-.07a5.71,5.71,0,0,1-5,2.7c-4.5,0-7.81-3.89-7.81-9.18s3.31-9.18,7.85-9.18c1.94,0,3.27.65,4.93,2.41h.07Zm-9.9,7.67c0,4.07,1.94,6.66,4.93,6.66s4.93-2.63,4.93-6.62-1.94-6.63-4.93-6.63S708.74,162.22,708.74,166.18Zm8.42-13.86a3.17,3.17,0,1,1-3.16-3.16A3.14,3.14,0,0,1,717.16,152.32Zm-4.71,0a1.53,1.53,0,0,0,1.55,1.55,1.55,1.55,0,1,0-1.55-1.55Z"/><path class="cls-6" d="M726.38,173.2c.47-.94.86-1.26,1.55-1.26a1.34,1.34,0,0,1,1.37,1.3,2.6,2.6,0,0,1-.36,1.22L727,178.17c-.43.9-.87,1.26-1.55,1.26a1.31,1.31,0,0,1-1.37-1.3,2.69,2.69,0,0,1,.36-1.22Z"/><path class="cls-6" d="M745.17,159.42A6.07,6.07,0,0,1,750.1,157c3.78,0,6.27,2.7,6.27,6.8v10a1.48,1.48,0,1,1-3,0V164a4.17,4.17,0,1,0-8.32,0v9.79a1.48,1.48,0,1,1-3,0V150.74a1.48,1.48,0,1,1,3,0v8.6Z"/><path class="cls-6" d="M769.4,158.19a1.44,1.44,0,0,1,1.51-1.15,1.34,1.34,0,0,1,1.41,1.37,2.84,2.84,0,0,1-.33,1.22l-5.15,14.47c-.36,1-.68,1.3-1.54,1.3s-1.19-.29-1.55-1.3l-5.18-14.47-.11-.29a3.22,3.22,0,0,1-.18-.93,1.32,1.32,0,0,1,1.37-1.37,1.49,1.49,0,0,1,1.54,1.15l4.07,12.42h.07Z"/><path class="cls-6" d="M786.25,158.51a1.39,1.39,0,1,1,2.77,0v15.41a1.39,1.39,0,1,1-2.77,0V172.7h-.07a5.71,5.71,0,0,1-5,2.7c-4.5,0-7.81-3.89-7.81-9.18s3.31-9.18,7.84-9.18c2,0,3.28.65,4.94,2.41h.07Zm-9.9,7.67c0,4.07,1.94,6.66,4.93,6.66s4.93-2.63,4.93-6.62-1.94-6.63-4.93-6.63S776.35,162.22,776.35,166.18Z"/><path class="cls-6" d="M804.68,150.74a1.48,1.48,0,1,1,3,0v23.07a1.48,1.48,0,1,1-3,0v-.9h-.07a4.77,4.77,0,0,1-4.68,2.49c-4.5,0-7.74-3.82-7.74-9.18s3.24-9.18,7.59-9.18a5.76,5.76,0,0,1,4.83,2.45h.07Zm-9.54,15.48c0,4,1.94,6.62,4.93,6.62s4.9-2.63,4.9-6.59-2-6.66-4.93-6.66S795.14,162.22,795.14,166.22Z"/><path class="cls-6" d="M831.86,150.74a1.48,1.48,0,1,1,2.95,0v23.07a1.48,1.48,0,1,1-2.95,0v-.9h-.07a4.77,4.77,0,0,1-4.68,2.49c-4.5,0-7.74-3.82-7.74-9.18S822.61,157,827,157a5.76,5.76,0,0,1,4.83,2.45h.07Zm-9.54,15.48c0,4,1.94,6.62,4.93,6.62s4.9-2.63,4.9-6.59-1.95-6.66-4.93-6.66S822.32,162.22,822.32,166.22Z"/><path class="cls-6" d="M838.84,158.62a1.48,1.48,0,1,1,3,0v9.51c0,3.13,1.4,4.71,4.14,4.71s4.17-1.58,4.17-4.71v-9.51a1.48,1.48,0,1,1,2.95,0v9.61c0,4.5-2.66,7.17-7.12,7.17s-7.1-2.67-7.1-7.17Z"/><path class="cls-6" d="M868.44,159.23A5.07,5.07,0,0,1,872.9,157c2.16,0,3.63.9,5,3.06,1.58-2.2,3.09-3.06,5.43-3.06,3.82,0,6.3,2.66,6.3,6.8v10a1.48,1.48,0,1,1-3,0v-10c0-2.59-1.44-4.18-3.85-4.18s-3.82,1.59-3.82,4.18v10a1.48,1.48,0,1,1-3,0v-10c0-2.59-1.44-4.18-3.85-4.18s-3.82,1.59-3.82,4.18v10a1.48,1.48,0,1,1-3,0V158.62a1.48,1.48,0,1,1,3,0v.54Z"/><path class="cls-6" d="M905.62,158.51a1.39,1.39,0,1,1,2.77,0v15.41a1.39,1.39,0,1,1-2.77,0V172.7h-.07a5.7,5.7,0,0,1-5,2.7c-4.5,0-7.81-3.89-7.81-9.18s3.31-9.18,7.85-9.18c1.94,0,3.27.65,4.93,2.41h.07Zm-9.9,7.67c0,4.07,1.95,6.66,4.93,6.66s4.94-2.63,4.94-6.62-2-6.63-4.94-6.63S895.72,162.22,895.72,166.18Zm8.43-13.86a3.17,3.17,0,1,1-3.17-3.16A3.15,3.15,0,0,1,904.15,152.32Zm-4.72,0a1.53,1.53,0,0,0,1.55,1.55,1.55,1.55,0,1,0-1.55-1.55Z"/><path class="cls-6" d="M932.48,150.74a1.48,1.48,0,1,1,2.95,0v23.07a1.48,1.48,0,1,1-2.95,0v-.9h-.07a4.79,4.79,0,0,1-4.68,2.49c-4.5,0-7.74-3.82-7.74-9.18s3.24-9.18,7.59-9.18a5.76,5.76,0,0,1,4.83,2.45h.07Zm-9.54,15.48c0,4,1.94,6.62,4.93,6.62s4.9-2.63,4.9-6.59-1.95-6.66-4.94-6.66S922.94,162.22,922.94,166.22Z"/><path class="cls-6" d="M941.33,167.37a5.52,5.52,0,0,0,1.55,4,5.13,5.13,0,0,0,3.82,1.44,6.9,6.9,0,0,0,4.75-1.76c.68-.54,1-.69,1.3-.69a1.2,1.2,0,0,1,1,1.26c0,1.73-4,3.75-7.31,3.75-4.86,0-8.1-3.64-8.1-9.11s3.39-9.25,8-9.25c4.4,0,7.78,3.78,7.78,8.67,0,1.23-.43,1.66-1.66,1.66Zm9.87-2.23c-.15-3.49-2-5.55-5-5.55s-4.64,1.88-4.9,5.55Z"/><path class="cls-6" d="M960.16,173.81a1.48,1.48,0,1,1-2.95,0V150.74a1.48,1.48,0,1,1,2.95,0Z"/><path class="cls-6" d="M966,167.37a5.52,5.52,0,0,0,1.55,4,5.13,5.13,0,0,0,3.81,1.44,6.88,6.88,0,0,0,4.75-1.76c.69-.54,1-.69,1.3-.69a1.2,1.2,0,0,1,1,1.26c0,1.73-4,3.75-7.3,3.75-4.86,0-8.1-3.64-8.1-9.11s3.38-9.25,8-9.25c4.39,0,7.77,3.78,7.77,8.67,0,1.23-.43,1.66-1.65,1.66Zm9.86-2.23c-.14-3.49-2-5.55-5-5.55s-4.64,1.88-4.89,5.55Z"/><path class="cls-6" d="M993.14,180.87a1.48,1.48,0,1,1-2.95,0V158.62a1.48,1.48,0,1,1,2.95,0v.9h.07a4.78,4.78,0,0,1,4.68-2.48c4.5,0,7.74,3.85,7.74,9.18s-3.24,9.18-7.6,9.18a5.69,5.69,0,0,1-4.82-2.45h-.07Zm-.29-14.69c0,4.07,1.91,6.66,4.93,6.66s4.9-2.63,4.9-6.62-1.95-6.63-4.93-6.63S992.85,162.22,992.85,166.18Z"/><path class="cls-6" d="M1020.89,158.51a1.39,1.39,0,1,1,2.77,0v15.41a1.39,1.39,0,1,1-2.77,0V172.7h-.07a5.7,5.7,0,0,1-5,2.7c-4.5,0-7.81-3.89-7.81-9.18s3.31-9.18,7.85-9.18c1.94,0,3.28.65,4.93,2.41h.07Zm-9.9,7.67c0,4.07,2,6.66,4.94,6.66s4.93-2.63,4.93-6.62-2-6.63-4.93-6.63S1011,162.22,1011,166.18Zm8.43-13.86a3.17,3.17,0,1,1-3.17-3.16A3.15,3.15,0,0,1,1019.42,152.32Zm-4.72,0a1.54,1.54,0,0,0,1.55,1.55,1.55,1.55,0,1,0-1.55-1.55Z"/><path class="cls-6" d="M1039,159.42a6.07,6.07,0,0,1,4.93-2.38c3.78,0,6.27,2.7,6.27,6.8v10a1.48,1.48,0,1,1-3,0V164a4.16,4.16,0,1,0-8.31,0v9.79a1.48,1.48,0,1,1-3,0V158.62a1.48,1.48,0,1,1,3,0v.72Z"/><path class="cls-6" d="M1056,167.37a5.52,5.52,0,0,0,1.55,4,5.13,5.13,0,0,0,3.82,1.44,6.9,6.9,0,0,0,4.75-1.76c.68-.54,1-.69,1.29-.69a1.21,1.21,0,0,1,1,1.26c0,1.73-4,3.75-7.31,3.75-4.86,0-8.1-3.64-8.1-9.11s3.39-9.25,8-9.25c4.39,0,7.78,3.78,7.78,8.67,0,1.23-.43,1.66-1.66,1.66Zm9.87-2.23c-.15-3.49-2-5.55-5-5.55s-4.64,1.88-4.9,5.55Z"/><path class="cls-6" d="M1072.48,153.37a1.48,1.48,0,1,1,3,0v3.89h1.23c.93,0,1.47.46,1.47,1.29s-.54,1.26-1.47,1.26h-1.23v14a1.48,1.48,0,1,1-3,0v-14h-1.22c-.94,0-1.48-.47-1.48-1.26s.54-1.29,1.48-1.29h1.22Z"/><path class="cls-6" d="M1082.2,153.37a1.48,1.48,0,1,1,3,0v3.89h1.23c.93,0,1.47.46,1.47,1.29s-.54,1.26-1.47,1.26h-1.23v14a1.48,1.48,0,1,1-3,0v-14H1081c-.94,0-1.48-.47-1.48-1.26s.54-1.29,1.48-1.29h1.22Z"/><path class="cls-6" d="M1091.85,167.37a5.52,5.52,0,0,0,1.55,4,5.13,5.13,0,0,0,3.81,1.44,6.88,6.88,0,0,0,4.75-1.76c.69-.54,1-.69,1.3-.69a1.2,1.2,0,0,1,1,1.26c0,1.73-4,3.75-7.3,3.75-4.86,0-8.1-3.64-8.1-9.11s3.38-9.25,8-9.25c4.39,0,7.77,3.78,7.77,8.67,0,1.23-.43,1.66-1.65,1.66Zm9.86-2.23c-.14-3.49-2-5.55-5-5.55s-4.64,1.88-4.89,5.55Z"/><path class="cls-6" d="M1108.34,153.37a1.48,1.48,0,1,1,3,0v3.89h1.22c.94,0,1.48.46,1.48,1.29s-.54,1.26-1.48,1.26h-1.22v14a1.48,1.48,0,1,1-3,0v-14h-1.23c-.93,0-1.47-.47-1.47-1.26s.54-1.29,1.47-1.29h1.23Z"/><polygon class="cls-2" points="1686.36 132.48 1686.36 51.23 1698.1 41.55 1870.32 37.69 1885.92 48.32 1885.92 129.58 1867.81 139.26 1698.77 141.19 1686.36 132.48"/><polygon class="cls-9" points="1690.27 126.86 1690.27 47.29 1702.09 37.81 1875.57 34.04 1891.29 44.45 1891.29 124.02 1873.05 133.5 1702.77 135.38 1690.27 126.86"/><path class="cls-10" d="M1709.67,104.85a4.76,4.76,0,0,1,3.73-2.74,1.36,1.36,0,0,1,1.49,1.33c0,.77-.53,1.22-1.68,1.44a4.18,4.18,0,0,0-3.6,4.52V117a1.36,1.36,0,1,1-2.71,0V103.51a1.36,1.36,0,1,1,2.71,0v1.34Z"/><path class="cls-10" d="M1718,111.25a4.62,4.62,0,0,0,4.92,4.84,6.41,6.41,0,0,0,4.36-1.56c.63-.48.89-.6,1.19-.6a1.07,1.07,0,0,1,1,1.11c0,1.53-3.63,3.32-6.71,3.32-4.45,0-7.43-3.22-7.43-8.06s3.11-8.19,7.34-8.19c4,0,7.13,3.34,7.13,7.68,0,1.08-.4,1.46-1.52,1.46Zm9-2c-.13-3.1-1.82-4.91-4.56-4.91s-4.26,1.66-4.49,4.91Z"/><path class="cls-10" d="M1735.17,123.2a1.36,1.36,0,1,1-2.71,0V103.51a1.36,1.36,0,1,1,2.71,0v.79h.07a4.43,4.43,0,0,1,4.29-2.19c4.13,0,7.1,3.41,7.1,8.12s-3,8.13-7,8.13a5.28,5.28,0,0,1-4.42-2.17h-.07Zm-.26-13c0,3.6,1.75,5.89,4.52,5.89s4.49-2.32,4.49-5.86-1.78-5.86-4.52-5.86S1734.91,106.69,1734.91,110.2Z"/><path class="cls-10" d="M1752.24,117a1.35,1.35,0,1,1-2.7,0V96.53a1.35,1.35,0,1,1,2.7,0Z"/><path class="cls-10" d="M1766.94,103.41a1.27,1.27,0,1,1,2.54,0v13.64a1.27,1.27,0,1,1-2.54,0V116h-.07a5.28,5.28,0,0,1-4.55,2.39c-4.13,0-7.17-3.45-7.17-8.13s3-8.12,7.2-8.12a5.72,5.72,0,0,1,4.52,2.13h.07Zm-9.08,6.79c0,3.6,1.78,5.89,4.52,5.89s4.53-2.32,4.53-5.86-1.79-5.86-4.53-5.86S1757.86,106.69,1757.86,110.2Z"/><path class="cls-10" d="M1772.09,104.69a5.79,5.79,0,0,1-.36-1.47,1.2,1.2,0,0,1,1.26-1.11,1.43,1.43,0,0,1,1.35,1l3.76,10.9h.07l3.7-10.9a1.34,1.34,0,0,1,1.29-1,1.2,1.2,0,0,1,1.25,1.11,5,5,0,0,1-.36,1.47l-6.87,19a1.43,1.43,0,0,1-1.32,1,1.19,1.19,0,0,1-1.26-1.12,4.35,4.35,0,0,1,.4-1.43l1.75-4.46Z"/></svg>