<svg id="Layer_1" data-name="Layer 1" xmlns="http://www.w3.org/2000/svg" width="1920" height="1083.51" viewBox="0 0 1920 1083.51"><defs><style>.cls-1{fill:#28263e;}.cls-2{fill:#eaa77d;}.cls-3{fill:#cd8f6d;}.cls-4{fill:none;}.cls-4,.cls-6{stroke:#e6e7e8;stroke-miterlimit:10;}.cls-5,.cls-6{fill:#eba87d;}</style></defs><title>vinder_skaerm</title><rect class="cls-1" y="4" width="1920" height="1083.51"/><rect class="cls-1" width="1920" height="1083.51"/><rect class="cls-2" x="957.21" y="282.07" width="143.45" height="551.03"/><rect class="cls-2" x="1126.32" y="288.19" width="143.55" height="550.82"/><path class="cls-3" d="M1166,519.78s-3.71,13.52-7.43,20.59c0,0-6.55,16.47-7.35,48.4a44.79,44.79,0,0,0,3,20.43s5.87,19.08,9.1,20.75a31.71,31.71,0,0,0,10.11,4.12s14.56,6,19.88,1.94c0,0,13.54-.47,32.24-17.17,1.2.07,8.9-11.28,9.39-20.05,0,0,.88-2.09.51-9.63,0,0-.14-12.66-2.11-29.68,0,0-1.74-16-1.6-18.25a48.09,48.09,0,0,0-4.8-20.12L1219.09,498s-8.45,12.43-23.08,18.88c0,0-4.73,5.13-21,5C1175,521.8,1171,522.5,1166,519.78Z"/><path class="cls-3" d="M1011.41,446.13s-8.74,3.93-8.52,13c0,0-3.5,9.55-3.5,17.71l.66,16.43,2.94,31.84a69,69,0,0,0,24.25,15.71,21.25,21.25,0,0,0,6.77,1.21c5.23.19,13-1,21.62-7.5,0,0,3-1.29,7.75-12,0,0,3.49-2,2.95-23.54,0,0-.11-8.85-7.65-24.12,0,0-3.38-5.13-3.71-9.79a40.09,40.09,0,0,0-8.08,2.8,48.62,48.62,0,0,1-17.36-.58s-6.77.11-11.9-7.7C1017.63,459.61,1011.08,449,1011.41,446.13Z"/><rect class="cls-2" x="619.08" y="282.07" width="143.45" height="551.03"/><rect class="cls-2" x="449.89" y="282.5" width="143.55" height="550.82"/><rect class="cls-2" x="788.02" y="282.5" width="143.55" height="550.82"/><rect class="cls-2" x="1296.59" y="282.5" width="143.55" height="550.82"/><path class="cls-3" d="M500.34,709.64s-5.57-9.67-12.56-33.1c0,0-4.91-13.63,1.53-34.26l1.53-9.2s10.26,9.08,21.51,6.75c0,0,6.44-1.63,10.15-.93,0,0,17.58-1.75,16.27-9l5.14,11.3,2.83,7.23s1.1,1,.66,6.06,5.35,15.73,5.35,15.73,3.49,7.46,2.18,12.47l-.87,7a7.34,7.34,0,0,1-3.06,5.94s.33,2.22-7.86,6l-2,1.28s-8.63,9.55-15.95,10.6A36.82,36.82,0,0,1,500.34,709.64Z"/><path class="cls-3" d="M682.69,554.8s-3.06,1.79-10.19,1.4c0,0-9.83-2-14.71-7.46l-4.88-4s-13.68-6.37-7-41l6.4-33.17s1.53-3.42-2-12.2c0,0-2.4-8.78,10.12-11.11,0,0,1.17,30.84,9.46,36.59,0,0,.37.62,2.19.55l27.73.07s7,.08,8.74-3.41c0,0,1.31-8.16,7.64-10.41a17.7,17.7,0,0,0,6-1.48s1.75-2.25,1.9,3.65a23.32,23.32,0,0,1-1.53,12.35l-1.68,19.27s.22,4.43-3.35,13.52l-7.86,20.2s-7.64,21.63-26.13,18.08Z"/><path class="cls-4" d="M543.36,696.94s1.86-14.22,0-22.15c0,0-.66-4.07-9.72-16l-3.6-4.78"/><path class="cls-5" d="M628.67,511.76s-8.29,5.91-11,9.56c0,0-2,3.49-8.66,4.74,0,0-1.25-.55-9.8,4.27,0,0-17.57,9.94-21.43,13,0,0-8.44,6.14-18.71,12.9l-12.37,7.94s-1.31,2.86-15.73,3.95a53.93,53.93,0,0,0-27,8.46l34.58,51.59s0-10.55,26.82-17.23c0,0,21.36-8.25,25.15-11.36,0,0,23.15-12,31.3-21.91,0,0,7-7.46,11.07-7.77,0,0,18.45-22.93,28.82-38.42,3.81-5.69,6.53-10.37,6.84-12.54,1.17-8.08-7.57-14.45-7.57-14.45s-5.38-4.2-15.87,0l-1.45,1.24,6.55,5.28-8-6.52s-7.42-5.13-9.31-4.2c0,0-5.68-.62-5.25,8.7,0,0,.44,1.87,3.94,4.2,0,0,9.9,8.54,12.81,9.32,0,0,12.08,9.64,15.87,8.86l1.32.05"/><path class="cls-4" d="M628.67,511.76s-8.29,5.91-11,9.56c0,0-2,3.49-8.66,4.74,0,0-1.25-.55-9.8,4.27,0,0-17.57,9.94-21.43,13,0,0-8.44,6.14-18.71,12.9l-12.37,7.94s-1.31,2.86-15.73,3.95a53.93,53.93,0,0,0-27,8.46l34.58,51.59s0-10.55,26.82-17.23c0,0,21.36-8.25,25.15-11.36,0,0,23.15-12,31.3-21.91,0,0,7-7.46,11.07-7.77,0,0,18.45-22.93,28.82-38.42,3.81-5.69,6.53-10.37,6.84-12.54,1.17-8.08-7.57-14.45-7.57-14.45s-5.38-4.2-15.87,0l-1.45,1.24,6.55,5.28-8-6.52s-7.42-5.13-9.31-4.2c0,0-5.68-.62-5.25,8.7,0,0,.44,1.87,3.94,4.2,0,0,9.9,8.54,12.81,9.32,0,0,12.08,9.64,15.87,8.86l1.32.05"/><polygon class="cls-5" points="499.68 579.27 509.15 574.61 538.66 623.46 538.06 631.04 499.68 579.27"/><path class="cls-5" d="M682.47,556s7.14-5.44,8.34-9.09c0,0,1.56-7.23,4.4-9a13.45,13.45,0,0,0,4.8-8.39"/><path class="cls-4" d="M682.47,556s7.14-5.44,8.34-9.09c0,0,1.56-7.23,4.4-9a13.45,13.45,0,0,0,4.8-8.39"/><line class="cls-5" x1="701.54" y1="516.04" x2="702.92" y2="502.44"/><line class="cls-4" x1="701.54" y1="516.04" x2="702.92" y2="502.44"/><path class="cls-5" d="M798.06,367.43l-10.84,6.43-12.89,7.38-14,7.85c-2,1-12.67,8-12.67,8-1.89.86-14.48,9.87-14.48,9.87a93.17,93.17,0,0,1-19.37,12.59c-7.2,4.42-19.22,2.87-19.22,2.87L709,480.69s1.75-9.93,8.52-10.17c0,0,8.88-2,21.91-8.56l15-6.13s4.68-3,8-3.52c0,0,1.54,1.22,36.84-25.93a59.31,59.31,0,0,0,15.51-18.1l14.27-21s3.56-5,5.38-6.45c0,0,4.74-.62,4.15-10.26,0,0,1-4.66-8.66-12.35,0,0-2.33-2.17-10.19-1.24,0,0-6.41.93-8.66,3.57l7.35,5.91L810,359.57s-4.66-3.89-7.71-4.27-5.46,1.24-5.9,8.39c0,0-.36,3.26,5,6.37,0,0,5.9,6.29,23.08,15.3l4.07,1.71"/><path class="cls-4" d="M798.06,367.43l-10.84,6.43-12.89,7.38-14,7.85c-2,1-12.67,8-12.67,8-1.89.86-14.48,9.87-14.48,9.87a93.17,93.17,0,0,1-19.37,12.59c-7.2,4.42-19.22,2.87-19.22,2.87L709,480.69s1.75-9.93,8.52-10.17c0,0,8.88-2,21.91-8.56l15-6.13s4.68-3,8-3.52c0,0,1.54,1.22,36.84-25.93a59.31,59.31,0,0,0,15.51-18.1l14.27-21s3.56-5,5.38-6.45c0,0,4.74-.62,4.15-10.26,0,0,1-4.66-8.66-12.35,0,0-2.33-2.17-10.19-1.24,0,0-6.41.93-8.66,3.57l7.35,5.91L810,359.57s-4.66-3.89-7.71-4.27-5.46,1.24-5.9,8.39c0,0-.36,3.26,5,6.37,0,0,5.9,6.29,23.08,15.3l4.07,1.71"/><polygon class="cls-5" points="695.25 423.58 671.79 423.1 704.69 483.08 708.25 482.14 710.08 474.84 695.25 423.58"/><path class="cls-3" d="M843.46,575.31s-10.45,3-14.16,22.3c0,0-8.48,32.31-5.13,46.3,0,0,2.87,14.68,5.75,19.5s8.15,13,22.78,18.06c0,0,12.52,4.59,22.78-2.29,1-.16,13.91,2.87,19.73-7.54,0,0,4-4.54,7.39-22.68,0,0,1.57-14.84-.55-25.37l-2.11-12.39s.4-4.08-4-8.43L895,602s-2.8,6.37-6,8.23c0,0-.44,2.29-5.68,1.94,0,0-4.91,1-18-4.74L851.9,601.1s-8.88-4.23-8.19-9.75c0,0-.62-11.5,1.13-16.47Z"/><path class="cls-6" d="M876.88,677.64s3-3.53,3.25-12.21"/><path class="cls-5" d="M984,487.71,973.14,494l-12.94,7.25L946.15,509c-2,1-12.74,7.87-12.74,7.87-1.9.84-14.57,9.72-14.57,9.72A92.9,92.9,0,0,1,899.37,539c-7.25,4.36-19.24,2.68-19.24,2.68L893.43,605s5.87-14,12.64-14.22c6.84-.41,12-3.11,18.2-8.23L938.32,577a56.18,56.18,0,0,1,8.74-2.56c8.76-3.41,8.35-3.39,37.78-27.81a59.09,59.09,0,0,0,15.66-17.94L1015,507.82s3.61-4.94,5.45-6.39c0,0,4.73-.58,4.24-10.22,0,0,1-4.65-8.56-12.43,0,0-2.31-2.2-10.17-1.35,0,0-6.42.87-8.7,3.49l7.3,6L996.05,480s-4.62-3.93-7.67-4.35-5.47,1.19-6,8.33c0,0-.4,3.26,5,6.42,0,0,5.84,6.35,22.94,15.54l4.06,1.75"/><path class="cls-4" d="M984,487.71,973.14,494l-12.94,7.25L946.15,509c-2,1-12.74,7.87-12.74,7.87-1.9.84-14.57,9.72-14.57,9.72A92.9,92.9,0,0,1,899.37,539c-7.25,4.36-19.24,2.68-19.24,2.68L893.43,605s5.87-14,12.64-14.22c6.84-.41,12-3.11,18.2-8.23L938.32,577a56.18,56.18,0,0,1,8.74-2.56c8.76-3.41,8.35-3.39,37.78-27.81a59.09,59.09,0,0,0,15.66-17.94L1015,507.82s3.61-4.94,5.45-6.39c0,0,4.73-.58,4.24-10.22,0,0,1-4.65-8.56-12.43,0,0-2.31-2.2-10.17-1.35,0,0-6.42.87-8.7,3.49l7.3,6L996.05,480s-4.62-3.93-7.67-4.35-5.47,1.19-6,8.33c0,0-.4,3.26,5,6.42,0,0,5.84,6.35,22.94,15.54l4.06,1.75"/><polygon class="cls-5" points="894.86 600.35 892.9 605.09 875.94 542.08 876.3 540.84 879.36 541.77 880.67 542.24 894.86 600.35"/><path class="cls-4" d="M1046.35,517.18s-1.1,11.07-4.15,18.06c0,0-.22,2.9-8.19,6.81"/><path class="cls-6" d="M1155.75,341.85c-6.66,2.84-25,13.58-25,13.58-4.8,1.4-27.62,18.76-27.62,18.76-2.52.47-8.74,5.13-8.74,5.13-8.19,6.53-28,17.71-28,17.71-2.68,1.4-14.69,2.1-14.69,2.1L1063.93,458l5.13-7.57a15.45,15.45,0,0,1,8.19-5.48s31.44-12.47,36.25-15.5c0,0,20.31-9.2,35.49-21.21,0,0,9.06-5.94,23.8-25.52,0,0,16.92-19.81,21.07-29.48,0,0,5.35-21.44-14-20.63,0,0-7.32-1-10.81,2.91l8.19,6.41-11.58-8.85s-5.24-5.38-9.06-.59c0,0-3.06,6.41-1.75,7.7,0,0-1.42,2.91,24.57,18.53,0,0,6.44,3.61,8.52,3.14"/><path class="cls-4" d="M1215.59,586.68s-5.75-7.54-3.27-22.15l2.91-18.72"/><path class="cls-4" d="M1200.89,563.6s-2.55-16.39,6.91-35.5"/><path class="cls-4" d="M1194.84,634a16,16,0,0,0,9.35-8.63l2.81-9s.37-2.56,3.28-7.22"/><path class="cls-6" d="M1296.59,372.94l-1.13.32c-3.22.58-10.86,8.51-10.86,8.51l-12.23,6.64a121.14,121.14,0,0,0-15.78,8.86s-9.39,5.71-20.09,12.53-13,9-13,9c-10.21,12.17-31.83,12.47-31.83,12.47l12.57,59.12s4.12-10.18,12.78-12.9l29.27-12.12s18.78-8,20.52-10.1l20.61-14s7.06-5.44,10.77-10.33l19.36-22.07s9-14.06,10.92-16.39c0,0-9-2.72-14.12-6.76L1301,376.68a43.77,43.77,0,0,1-4.75-4.12,4.72,4.72,0,0,1-1.22-1.78c-.37-1.71.07-4.35,1.67-7.54s5.61-1.48,5.61-1.48,6,3,7.42,4.82c0,0,6.63,4.51,7.94,5.9l-7.9-6s5-2.14,6.83-1.7,9.46-1.21,12.13,1.36,6.33,5.13,7,7.92a22.23,22.23,0,0,1,.29,7.05,12.49,12.49,0,0,1-4,7.46l-4,4.68"/><path class="cls-6" d="M1475,506.11a42.69,42.69,0,0,1-10.34,7.77c-1.67.7-7.13,3.65-7.13,3.65l-12.23,7.3-20.68,13.37s-7.79,4.81-23.14,14.91a69.84,69.84,0,0,1-30,11.19l12.74,58.27s1.75-8.94,13-12.74c0,0,26.79-7.77,34.58-13.44l14.27-7.77s14.27-9.17,21.18-16.55a228.72,228.72,0,0,0,17.33-17c6.55-7.54,12.37-12.82,15.94-21,0,0,5.24-8.55,8.3-10.26a16.52,16.52,0,0,0,4.29-17c-3.13-10.72-18.42-8.23-18.42-8.23l-6.47.93,7.35,6-9-7.16-5.67-3.25s-4.37-3-6.12,1.16l-1.53,6.22s-1.31.78,1.68,3.65S1491,518.39,1491,518.39s13.66,8.2,15.07,7.38"/><polygon class="cls-5" points="1369.77 564.61 1375.88 565 1384.76 619.54 1382.87 626.37 1365.84 564.22 1369.77 564.61"/><path class="cls-3" d="M1349.6,623.42s22.13,12.28,34.51,3c0,0,7.42-4.5,9.61-7.3l-.88,3.5s-4.51,13.59-4.8,18.1c0,0-1.6,3.26-1,22.84a205.82,205.82,0,0,1,.73,23.62s.29,12.74-7.14,23.77-31.48,15.85-31.48,15.85-6,1.44-8.77,1c0,0-15.76,5.44-17.73-1.87,0,0-1.42-11.3-2.73-15.85a22.55,22.55,0,0,1,1.9-14.83s2.58-9.68,3.93-11.62,1.16-4.35,5.42-12.47c0,0,0-2.06,5.71-14.95s6.41-14.45,7.07-18.88S1345.85,625,1349.6,623.42Z"/><path class="cls-4" d="M1354,723.29s9.7-4.78,14.79-14.25,3.79-10.41,3.79-10.41"/><polygon class="cls-5" points="1061.2 457.98 1063.53 457.98 1065.16 455.46 1052.72 399.52 1048.82 399.68 1061.2 457.98"/><polygon class="cls-5" points="1204.53 488.71 1202.6 493.02 1189.71 431.3 1191.31 431.69 1192.18 431.64 1204.53 488.71"/></svg>